<svg width="106" height="33" viewBox="0 0 106 33" fill="none" xmlns="http://www.w3.org/2000/svg">
<g id="Logo Cantoo 1" clip-path="url(#clip0_3386_2055)">
<path id="Vector" d="M96.4666 12.1426C95.9473 12.0882 95.4314 12.0488 94.9121 12.067C93.9494 12.1032 92.9896 12.2514 92.0811 12.5687C90.065 13.2367 88.3987 14.5151 87.2157 16.126C85.6795 13.9952 83.3102 12.5143 80.5362 12.1426C80.017 12.0882 79.5011 12.0488 78.9818 12.067C78.0191 12.1032 77.0593 12.2514 76.1508 12.5687C72.0067 13.959 69.3235 17.8125 69.453 22.1496C69.5073 24.1323 70.1384 26.0213 71.2854 27.5959C70.6366 28.0402 69.6374 28.0583 69.5073 28.0583C67.9528 28.0583 66.622 27.4086 65.9732 26.3175C65.3061 25.1871 64.9557 23.2407 64.9557 20.5175C64.9557 19.7408 64.9923 18.2387 65.0316 16.9783C65.0858 14.8657 65.5115 12.2363 65.6981 11.1966V11.1422H65.7529C69.5438 10.5498 74.2825 9.4013 78.6862 8.02913C82.477 6.84433 85.3657 5.6747 86.087 5.06418C87.3093 3.97008 87.8252 2.60095 87.5296 1.17439C87.4754 0.971893 87.3635 0.766372 87.2157 0.63641C86.7541 0.22839 86.1229 0.210256 85.6795 0.582008C81.6833 3.89754 73.1537 5.82581 68.4327 6.65999L66.5827 6.99245L66.8788 5.04605C66.9901 4.28743 67.1379 3.45326 66.5644 2.95154C66.2688 2.70976 65.8979 2.52539 65.4539 2.47098H65.3421C64.675 2.34102 63.993 2.56468 63.4737 3.04524C63.1782 3.34143 62.9185 3.95194 62.846 4.34183L62.3273 7.58485H62.1972C61.4576 7.69668 61.0319 7.76919 61.0319 7.76919C59.2395 7.95359 57.8511 7.80548 56.87 7.71479C56.1849 7.66039 55.6869 7.60296 55.4635 7.71479C54.9836 7.95656 54.8719 8.08656 54.7241 8.51268C54.558 8.99325 54.6486 9.54936 54.9836 10.181C55.6506 11.3477 56.9636 11.7013 57.685 11.8131C57.685 11.8131 59.369 11.9612 61.2191 11.517H61.2739C61.2739 11.517 61.3675 11.517 61.4034 11.5714C61.4576 11.6258 61.4576 11.665 61.4576 11.7376L61.2528 13.0916L60.8813 15.5548L60.7729 17.057C60.697 18.2598 60.661 19.91 60.661 21.0042C60.661 22.5063 60.7728 23.8572 61.0108 25.0813C61.2887 26.4898 61.6962 27.7138 62.2697 28.6931C63.5856 30.9175 65.7136 32.0479 68.6536 32.0479C70.2074 32.0479 72.9631 31.1774 74.3515 30.4158C75.8306 31.2862 77.5152 31.7487 79.2534 31.7487H79.5313C82.622 31.6731 85.4347 30.1378 87.2094 27.6534C87.5598 28.1551 87.9884 28.6175 88.4318 29.0436C90.2824 30.7845 92.6518 31.7487 95.1689 31.7487H95.4462C98.8508 31.655 101.903 29.8415 103.644 26.8947C104.401 25.5982 104.845 24.1897 104.957 22.6876C104.993 22.337 104.993 22.0015 104.993 21.6691C104.863 16.797 101.275 12.8135 96.4637 12.2L96.4997 12.1637L96.4637 12.1456L96.4666 12.1426ZM73.5612 29.9292C73.5612 29.9292 73.3951 29.763 73.3015 29.7055C73.507 29.8718 73.7272 30.0199 73.9686 30.168C73.8208 30.1136 73.6724 30.0199 73.5612 29.9262V29.9292ZM83.9408 25.8158C82.812 27.1698 81.164 27.9465 79.4258 28.0009C76.0755 28.0765 73.2439 25.4259 73.1537 22.0529C73.0989 19.7196 74.3184 17.607 76.3922 16.4948C77.243 16.0505 78.1304 15.8087 79.0936 15.7724H79.2597C79.8509 15.7724 80.4427 15.8661 81.0162 16.0323C83.3855 16.7547 85.1237 18.8855 85.3263 21.3699V21.4635C85.3263 21.4635 85.3622 21.6298 85.3622 21.7235C85.4165 23.2256 84.9006 24.6703 83.9379 25.8188L83.9408 25.8158ZM99.8528 25.8158C98.7241 27.1698 97.076 27.9465 95.3378 28.0009C91.9875 28.0765 89.1565 25.4259 89.0658 22.0529C89.0116 19.7196 90.2311 17.607 92.3042 16.4948C93.1557 16.0505 94.043 15.8087 95.0057 15.7724H95.1718C95.7635 15.7724 96.3547 15.8661 96.9282 16.0323C99.2976 16.7547 101.036 18.8855 101.238 21.3699V21.4635C101.238 21.4635 101.275 21.6298 101.275 21.7235C101.329 23.2256 100.813 24.6703 99.85 25.8188L99.8528 25.8158Z" fill="#521F82"/>
<path id="Vector_2" d="M11.0917 16.1259C11.6833 16.1803 12.3322 16.6457 12.462 16.8663C12.9238 17.6643 13.7025 18.1448 14.5355 18.1448H14.5718C15.3474 18.1448 15.9602 17.8667 16.3103 17.4043C16.7178 16.9026 16.8475 16.1621 16.6996 15.4035C16.6061 14.9773 16.3465 14.5512 15.9602 14.2187C14.442 12.9221 12.4258 12.2361 10.2436 12.2361C9.68823 12.2361 9.09664 12.2905 8.52313 12.3841C5.58035 12.8647 2.99069 14.5512 1.60229 16.9056C0.621352 18.4077 0.123339 20.1486 0.159558 21.9651C0.123339 23.7815 0.621352 25.5224 1.60229 27.0245C2.99069 29.3789 5.58035 31.0624 8.52313 31.546C11.3181 32.0084 14.0194 31.3435 15.9239 29.6751C16.3314 29.3427 16.591 28.9165 16.6634 28.4904C16.8294 27.7136 16.6634 26.9883 16.2741 26.4896C15.8847 26.009 15.275 25.7672 14.5355 25.7491H14.4993C13.6663 25.7491 12.8906 26.2296 12.4258 27.0275C12.296 27.2512 11.6682 27.7136 11.0555 27.768C9.44673 27.9161 8.05834 27.6199 6.91138 26.9157L6.85706 26.8795C5.48679 25.9727 4.59943 24.4706 4.37909 22.7116C4.37909 22.5272 4.34287 22.361 4.34287 22.1917V21.7475C4.34287 21.5812 4.34287 21.415 4.37909 21.2276C4.58131 19.4867 5.50792 17.9665 6.85706 17.0779L6.91138 17.0235C8.05834 16.3193 9.44673 16.0049 11.0555 16.1712H11.0917V16.1349V16.1259Z" fill="#521F82"/>
<path id="Vector_3" d="M38.2917 27.7802C37.2746 27.1516 37.1056 26.7617 37.1056 24.9271V14.0496C37.1056 13.161 36.4385 12.2332 35.2192 12.2332C33.9998 12.2332 33.553 13.161 33.553 14.0496V14.4395L33.4625 14.3639C32.0741 13.2154 30.3899 12.4931 28.576 12.2694C28.1504 12.215 27.7248 12.1938 27.3174 12.1938H27.0578C26.095 12.2301 25.1533 12.3782 24.2447 12.6956C20.1369 14.0677 17.4537 17.9031 17.5654 22.2372C17.6408 24.8304 18.7123 27.2573 20.6198 29.0557C22.4338 30.7784 24.8213 31.7425 27.3174 31.7425H27.595C29.8889 31.6881 32.0922 30.8147 33.7945 29.2974L33.8489 29.243L33.8851 29.3186C34.4223 30.7633 35.5149 31.5974 36.9939 31.673C37.7726 31.673 38.3642 31.4886 38.7686 31.0988C39.1399 30.7482 39.324 30.2284 39.324 29.636C39.324 28.9499 39.0101 28.3756 38.3068 27.8014L38.2887 27.7832L38.2917 27.7802ZM31.9081 25.7976C30.7974 27.1122 29.1887 27.9102 27.4682 27.9465H27.3022C24.0637 27.9465 21.3623 25.3533 21.2899 22.0921C21.2356 19.7951 22.4368 17.7006 24.4711 16.6065C25.3042 16.1622 26.2097 15.9204 27.1362 15.9023H27.3022C27.8757 15.9023 28.4673 15.9778 29.0408 16.1622C31.389 16.8665 33.0732 18.9972 33.2965 21.406V21.4997C33.2965 21.4997 33.3327 21.666 33.3327 21.7597C33.3871 23.2225 32.8709 24.649 31.9262 25.8006H31.9081V25.7976Z" fill="#521F82"/>
<path id="Vector_4" d="M54.778 13.1065C53.7608 12.4385 52.5566 12.0879 51.1893 12.0879C51.1893 12.0879 49.0795 11.8461 45.9707 13.7381C45.9707 13.7381 45.8409 13.7925 45.7866 13.85C45.6206 13.9437 45.4727 14.0736 45.3067 14.1824C45.0471 14.3668 44.8268 14.536 44.8268 14.536L44.7725 14.5904L44.7362 14.5149C44.3107 13.3845 43.5712 12.644 42.554 12.3085C42.2582 12.2149 41.9443 12.1423 41.6274 12.1242C40.8487 12.1242 40.2571 12.3085 39.8527 12.6984C39.4815 13.049 39.2974 13.5689 39.2974 14.1613C39.2974 14.8473 39.6112 15.4216 40.3145 15.9958C41.3316 16.6245 41.4976 17.0144 41.4976 18.8489V29.669C41.4976 30.2433 41.7029 30.745 42.0892 31.15C42.4212 31.5036 42.8106 31.6698 43.2905 31.688C44.4375 31.688 45.1769 30.7813 45.1769 29.8172V20.8316C45.1769 16.1258 50.1722 16.0502 50.1722 16.0502C52.4841 16.0502 54.114 17.2743 54.114 19.9612V29.5784C54.114 30.1708 54.3192 30.6906 54.7237 31.0986C55.0768 31.4704 55.4631 31.6366 55.9642 31.6366H56.0185C57.0175 31.6366 57.721 30.9505 57.8688 30.1164C57.9047 29.9864 57.923 29.8564 57.923 29.7265V19.6106C57.923 18.2384 57.6451 16.9993 57.1262 15.8477C56.589 14.6993 55.8103 13.7714 54.7931 13.1065V13.0702L54.775 13.1065H54.778Z" fill="#521F82"/>
</g>
<defs>
<clipPath id="clip0_3386_2055">
<rect width="105" height="32" fill="white" transform="translate(0.157715 0.316162)"/>
</clipPath>
</defs>
</svg>
