<svg width="542" height="388" viewBox="0 0 542 388" fill="none" xmlns="http://www.w3.org/2000/svg">
<path d="M3 215.857V236.826M10.4537 208.466V243.716M40.2685 213.819V238.874M47.7222 208.473V243.722M32.8043 220.846V233.286M25.3548 195.168V258.966M17.9873 220.856V233.297M62.7431 222.341V231.73M55.2936 215.691V238.382" stroke="white" stroke-width="4.69549" stroke-linecap="round" stroke-linejoin="round"/>
<g filter="url(#filter0_d_7394_249)">
<rect x="109.822" y="34" width="360.404" height="320" rx="15.4965" fill="white"/>
</g>
<path opacity="0.5" d="M109.822 49.4965C109.822 40.938 116.76 34 125.319 34L454.73 34C463.288 34 470.226 40.938 470.226 49.4965V76.8283H109.822V49.4965Z" fill="url(#paint0_linear_7394_249)"/>
<circle cx="402.753" cy="55.4141" r="6.06061" fill="white"/>
<circle cx="421.339" cy="55.4141" r="6.06061" fill="white"/>
<circle cx="439.924" cy="55.4141" r="6.06061" fill="white"/>
<rect opacity="0.25" x="304.571" y="103.494" width="135.758" height="135.758" fill="url(#paint1_linear_7394_249)"/>
<rect opacity="0.25" x="147.804" y="262.688" width="292.525" height="57.3737" fill="url(#paint2_linear_7394_249)"/>
<path d="M149.36 115V100.88H152.5V115H149.36ZM151.78 115V112.24H158.76V115H151.78ZM164.195 115.2C163.301 115.2 162.501 114.98 161.795 114.54C161.101 114.1 160.548 113.5 160.135 112.74C159.735 111.98 159.535 111.113 159.535 110.14C159.535 109.167 159.735 108.3 160.135 107.54C160.548 106.78 161.101 106.18 161.795 105.74C162.501 105.3 163.301 105.08 164.195 105.08C164.848 105.08 165.435 105.207 165.955 105.46C166.488 105.713 166.921 106.067 167.255 106.52C167.588 106.96 167.775 107.467 167.815 108.04V112.24C167.775 112.813 167.588 113.327 167.255 113.78C166.935 114.22 166.508 114.567 165.975 114.82C165.441 115.073 164.848 115.2 164.195 115.2ZM164.815 112.44C165.468 112.44 165.995 112.227 166.395 111.8C166.795 111.36 166.995 110.807 166.995 110.14C166.995 109.687 166.901 109.287 166.715 108.94C166.541 108.593 166.288 108.327 165.955 108.14C165.635 107.94 165.261 107.84 164.835 107.84C164.408 107.84 164.028 107.94 163.695 108.14C163.375 108.327 163.115 108.593 162.915 108.94C162.728 109.287 162.635 109.687 162.635 110.14C162.635 110.58 162.728 110.973 162.915 111.32C163.101 111.667 163.361 111.94 163.695 112.14C164.028 112.34 164.401 112.44 164.815 112.44ZM166.875 115V112.38L167.335 110.02L166.875 107.66V105.28H169.875V115H166.875ZM178.238 115V112.24H181.738C182.591 112.24 183.338 112.073 183.978 111.74C184.618 111.393 185.111 110.893 185.458 110.24C185.804 109.587 185.978 108.813 185.978 107.92C185.978 107.027 185.798 106.26 185.438 105.62C185.091 104.98 184.598 104.487 183.958 104.14C183.331 103.793 182.591 103.62 181.738 103.62H178.138V100.88H181.778C182.844 100.88 183.824 101.053 184.718 101.4C185.624 101.733 186.411 102.22 187.078 102.86C187.758 103.487 188.278 104.233 188.638 105.1C189.011 105.953 189.198 106.9 189.198 107.94C189.198 108.967 189.011 109.913 188.638 110.78C188.278 111.647 187.764 112.393 187.098 113.02C186.431 113.647 185.644 114.133 184.738 114.48C183.844 114.827 182.871 115 181.818 115H178.238ZM176.118 115V100.88H179.258V115H176.118ZM195.716 115.22C194.663 115.22 193.723 115.007 192.896 114.58C192.083 114.14 191.443 113.533 190.976 112.76C190.509 111.987 190.276 111.113 190.276 110.14C190.276 109.167 190.503 108.3 190.956 107.54C191.423 106.767 192.049 106.16 192.836 105.72C193.623 105.28 194.509 105.06 195.496 105.06C196.456 105.06 197.303 105.267 198.036 105.68C198.769 106.093 199.343 106.667 199.756 107.4C200.183 108.133 200.396 108.973 200.396 109.92C200.396 110.093 200.383 110.28 200.356 110.48C200.343 110.667 200.309 110.887 200.256 111.14L191.876 111.16V109.06L198.956 109.04L197.636 109.92C197.623 109.36 197.536 108.9 197.376 108.54C197.216 108.167 196.976 107.887 196.656 107.7C196.349 107.5 195.969 107.4 195.516 107.4C195.036 107.4 194.616 107.513 194.256 107.74C193.909 107.953 193.636 108.26 193.436 108.66C193.249 109.06 193.156 109.547 193.156 110.12C193.156 110.693 193.256 111.187 193.456 111.6C193.669 112 193.963 112.313 194.336 112.54C194.723 112.753 195.176 112.86 195.696 112.86C196.176 112.86 196.609 112.78 196.996 112.62C197.383 112.447 197.723 112.193 198.016 111.86L199.696 113.54C199.216 114.1 198.636 114.52 197.956 114.8C197.276 115.08 196.529 115.22 195.716 115.22ZM194.056 104.18L193.056 102.72L196.236 99.74L197.916 102.1L194.056 104.18ZM206.573 115.22C205.573 115.22 204.666 115 203.853 114.56C203.04 114.12 202.4 113.513 201.933 112.74C201.466 111.967 201.233 111.1 201.233 110.14C201.233 109.167 201.466 108.3 201.933 107.54C202.413 106.767 203.06 106.16 203.873 105.72C204.686 105.28 205.6 105.06 206.613 105.06C207.373 105.06 208.066 105.193 208.693 105.46C209.333 105.713 209.9 106.1 210.393 106.62L208.433 108.58C208.206 108.327 207.94 108.14 207.633 108.02C207.34 107.9 207 107.84 206.613 107.84C206.173 107.84 205.78 107.94 205.433 108.14C205.1 108.327 204.833 108.593 204.633 108.94C204.446 109.273 204.353 109.667 204.353 110.12C204.353 110.573 204.446 110.973 204.633 111.32C204.833 111.667 205.106 111.94 205.453 112.14C205.8 112.34 206.186 112.44 206.613 112.44C207.013 112.44 207.366 112.373 207.673 112.24C207.993 112.093 208.266 111.893 208.493 111.64L210.433 113.6C209.926 114.133 209.353 114.54 208.713 114.82C208.073 115.087 207.36 115.22 206.573 115.22ZM211.795 115V100.48H214.855V115H211.795ZM221.07 115.2C220.176 115.2 219.376 114.98 218.67 114.54C217.976 114.1 217.423 113.5 217.01 112.74C216.61 111.98 216.41 111.113 216.41 110.14C216.41 109.167 216.61 108.3 217.01 107.54C217.423 106.78 217.976 106.18 218.67 105.74C219.376 105.3 220.176 105.08 221.07 105.08C221.723 105.08 222.31 105.207 222.83 105.46C223.363 105.713 223.796 106.067 224.13 106.52C224.463 106.96 224.65 107.467 224.69 108.04V112.24C224.65 112.813 224.463 113.327 224.13 113.78C223.81 114.22 223.383 114.567 222.85 114.82C222.316 115.073 221.723 115.2 221.07 115.2ZM221.69 112.44C222.343 112.44 222.87 112.227 223.27 111.8C223.67 111.36 223.87 110.807 223.87 110.14C223.87 109.687 223.776 109.287 223.59 108.94C223.416 108.593 223.163 108.327 222.83 108.14C222.51 107.94 222.136 107.84 221.71 107.84C221.283 107.84 220.903 107.94 220.57 108.14C220.25 108.327 219.99 108.593 219.79 108.94C219.603 109.287 219.51 109.687 219.51 110.14C219.51 110.58 219.603 110.973 219.79 111.32C219.976 111.667 220.236 111.94 220.57 112.14C220.903 112.34 221.276 112.44 221.69 112.44ZM223.75 115V112.38L224.21 110.02L223.75 107.66V105.28H226.75V115H223.75ZM228.904 115V105.28H231.964V115H228.904ZM231.964 109.66L230.684 108.66C230.938 107.527 231.364 106.647 231.964 106.02C232.564 105.393 233.398 105.08 234.464 105.08C234.931 105.08 235.338 105.153 235.684 105.3C236.044 105.433 236.358 105.647 236.624 105.94L234.804 108.24C234.671 108.093 234.504 107.98 234.304 107.9C234.104 107.82 233.878 107.78 233.624 107.78C233.118 107.78 232.711 107.94 232.404 108.26C232.111 108.567 231.964 109.033 231.964 109.66ZM241.226 115.2C240.333 115.2 239.533 114.98 238.826 114.54C238.133 114.1 237.579 113.5 237.166 112.74C236.766 111.98 236.566 111.113 236.566 110.14C236.566 109.167 236.766 108.3 237.166 107.54C237.579 106.78 238.133 106.18 238.826 105.74C239.533 105.3 240.333 105.08 241.226 105.08C241.879 105.08 242.466 105.207 242.986 105.46C243.519 105.713 243.953 106.067 244.286 106.52C244.619 106.96 244.806 107.467 244.846 108.04V112.24C244.806 112.813 244.619 113.327 244.286 113.78C243.966 114.22 243.539 114.567 243.006 114.82C242.473 115.073 241.879 115.2 241.226 115.2ZM241.846 112.44C242.499 112.44 243.026 112.227 243.426 111.8C243.826 111.36 244.026 110.807 244.026 110.14C244.026 109.687 243.933 109.287 243.746 108.94C243.573 108.593 243.319 108.327 242.986 108.14C242.666 107.94 242.293 107.84 241.866 107.84C241.439 107.84 241.059 107.94 240.726 108.14C240.406 108.327 240.146 108.593 239.946 108.94C239.759 109.287 239.666 109.687 239.666 110.14C239.666 110.58 239.759 110.973 239.946 111.32C240.133 111.667 240.393 111.94 240.726 112.14C241.059 112.34 241.433 112.44 241.846 112.44ZM243.906 115V112.38L244.366 110.02L243.906 107.66V105.28H246.906V115H243.906ZM250.44 115V101.26H253.5V115H250.44ZM248.24 107.88V105.28H255.7V107.88H248.24ZM257.049 115V105.28H260.109V115H257.049ZM258.589 103.94C258.109 103.94 257.709 103.78 257.389 103.46C257.082 103.127 256.929 102.727 256.929 102.26C256.929 101.78 257.082 101.38 257.389 101.06C257.709 100.74 258.109 100.58 258.589 100.58C259.069 100.58 259.462 100.74 259.769 101.06C260.075 101.38 260.229 101.78 260.229 102.26C260.229 102.727 260.075 103.127 259.769 103.46C259.462 103.78 259.069 103.94 258.589 103.94ZM266.944 115.22C265.944 115.22 265.037 115 264.224 114.56C263.424 114.107 262.79 113.493 262.324 112.72C261.857 111.947 261.624 111.08 261.624 110.12C261.624 109.16 261.857 108.3 262.324 107.54C262.79 106.78 263.424 106.18 264.224 105.74C265.024 105.287 265.93 105.06 266.944 105.06C267.957 105.06 268.864 105.28 269.664 105.72C270.464 106.16 271.097 106.767 271.564 107.54C272.03 108.3 272.264 109.16 272.264 110.12C272.264 111.08 272.03 111.947 271.564 112.72C271.097 113.493 270.464 114.107 269.664 114.56C268.864 115 267.957 115.22 266.944 115.22ZM266.944 112.44C267.384 112.44 267.77 112.347 268.104 112.16C268.437 111.96 268.69 111.687 268.864 111.34C269.05 110.98 269.144 110.573 269.144 110.12C269.144 109.667 269.05 109.273 268.864 108.94C268.677 108.593 268.417 108.327 268.084 108.14C267.764 107.94 267.384 107.84 266.944 107.84C266.517 107.84 266.137 107.94 265.804 108.14C265.47 108.327 265.21 108.593 265.024 108.94C264.837 109.287 264.744 109.687 264.744 110.14C264.744 110.58 264.837 110.98 265.024 111.34C265.21 111.687 265.47 111.96 265.804 112.16C266.137 112.347 266.517 112.44 266.944 112.44ZM280.207 115V109.46C280.207 108.953 280.047 108.547 279.727 108.24C279.42 107.92 279.027 107.76 278.547 107.76C278.214 107.76 277.92 107.833 277.667 107.98C277.414 108.113 277.214 108.313 277.067 108.58C276.92 108.833 276.847 109.127 276.847 109.46L275.667 108.88C275.667 108.12 275.834 107.453 276.167 106.88C276.5 106.307 276.96 105.867 277.547 105.56C278.147 105.24 278.82 105.08 279.567 105.08C280.287 105.08 280.92 105.253 281.467 105.6C282.027 105.933 282.467 106.38 282.787 106.94C283.107 107.5 283.267 108.113 283.267 108.78V115H280.207ZM273.787 115V105.28H276.847V115H273.787ZM153.22 140.2C152.3 140.2 151.48 139.98 150.76 139.54C150.053 139.1 149.493 138.5 149.08 137.74C148.68 136.98 148.48 136.113 148.48 135.14C148.48 134.167 148.68 133.3 149.08 132.54C149.493 131.78 150.053 131.18 150.76 130.74C151.48 130.3 152.3 130.08 153.22 130.08C153.887 130.08 154.487 130.207 155.02 130.46C155.567 130.713 156.013 131.067 156.36 131.52C156.72 131.96 156.92 132.467 156.96 133.04V137.14C156.92 137.713 156.727 138.233 156.38 138.7C156.033 139.153 155.587 139.52 155.04 139.8C154.493 140.067 153.887 140.2 153.22 140.2ZM153.76 137.44C154.2 137.44 154.58 137.347 154.9 137.16C155.22 136.96 155.473 136.687 155.66 136.34C155.847 135.993 155.94 135.593 155.94 135.14C155.94 134.687 155.847 134.293 155.66 133.96C155.487 133.613 155.233 133.34 154.9 133.14C154.58 132.94 154.207 132.84 153.78 132.84C153.353 132.84 152.973 132.94 152.64 133.14C152.32 133.34 152.06 133.613 151.86 133.96C151.673 134.307 151.58 134.7 151.58 135.14C151.58 135.58 151.673 135.973 151.86 136.32C152.047 136.667 152.307 136.94 152.64 137.14C152.973 137.34 153.347 137.44 153.76 137.44ZM158.82 140H155.82V137.38L156.28 135.02L155.76 132.66V125.48H158.82V140ZM165.775 140.22C164.721 140.22 163.781 140.007 162.955 139.58C162.141 139.14 161.501 138.533 161.035 137.76C160.568 136.987 160.335 136.113 160.335 135.14C160.335 134.167 160.561 133.3 161.015 132.54C161.481 131.767 162.108 131.16 162.895 130.72C163.681 130.28 164.568 130.06 165.555 130.06C166.515 130.06 167.361 130.267 168.095 130.68C168.828 131.093 169.401 131.667 169.815 132.4C170.241 133.133 170.455 133.973 170.455 134.92C170.455 135.093 170.441 135.28 170.415 135.48C170.401 135.667 170.368 135.887 170.315 136.14L161.935 136.16V134.06L169.015 134.04L167.695 134.92C167.681 134.36 167.595 133.9 167.435 133.54C167.275 133.167 167.035 132.887 166.715 132.7C166.408 132.5 166.028 132.4 165.575 132.4C165.095 132.4 164.675 132.513 164.315 132.74C163.968 132.953 163.695 133.26 163.495 133.66C163.308 134.06 163.215 134.547 163.215 135.12C163.215 135.693 163.315 136.187 163.515 136.6C163.728 137 164.021 137.313 164.395 137.54C164.781 137.753 165.235 137.86 165.755 137.86C166.235 137.86 166.668 137.78 167.055 137.62C167.441 137.447 167.781 137.193 168.075 136.86L169.755 138.54C169.275 139.1 168.695 139.52 168.015 139.8C167.335 140.08 166.588 140.22 165.775 140.22ZM175.472 140.24C174.898 140.24 174.332 140.167 173.772 140.02C173.225 139.873 172.712 139.667 172.232 139.4C171.765 139.12 171.365 138.8 171.032 138.44L172.772 136.68C173.092 137.027 173.472 137.3 173.912 137.5C174.352 137.687 174.832 137.78 175.352 137.78C175.712 137.78 175.985 137.727 176.172 137.62C176.372 137.513 176.472 137.367 176.472 137.18C176.472 136.94 176.352 136.76 176.112 136.64C175.885 136.507 175.592 136.393 175.232 136.3C174.872 136.193 174.492 136.08 174.092 135.96C173.692 135.84 173.312 135.673 172.952 135.46C172.592 135.247 172.298 134.953 172.072 134.58C171.845 134.193 171.732 133.707 171.732 133.12C171.732 132.493 171.892 131.953 172.212 131.5C172.532 131.033 172.985 130.667 173.572 130.4C174.158 130.133 174.845 130 175.632 130C176.458 130 177.218 130.147 177.912 130.44C178.618 130.72 179.192 131.14 179.632 131.7L177.892 133.46C177.585 133.1 177.238 132.847 176.852 132.7C176.478 132.553 176.112 132.48 175.752 132.48C175.405 132.48 175.145 132.533 174.972 132.64C174.798 132.733 174.712 132.873 174.712 133.06C174.712 133.26 174.825 133.42 175.052 133.54C175.278 133.66 175.572 133.767 175.932 133.86C176.292 133.953 176.672 134.067 177.072 134.2C177.472 134.333 177.852 134.513 178.212 134.74C178.572 134.967 178.865 135.273 179.092 135.66C179.318 136.033 179.432 136.527 179.432 137.14C179.432 138.087 179.072 138.84 178.352 139.4C177.645 139.96 176.685 140.24 175.472 140.24ZM189.04 140.2C188.12 140.2 187.3 139.98 186.58 139.54C185.874 139.1 185.314 138.5 184.9 137.74C184.5 136.98 184.3 136.113 184.3 135.14C184.3 134.167 184.5 133.3 184.9 132.54C185.314 131.78 185.874 131.18 186.58 130.74C187.3 130.3 188.12 130.08 189.04 130.08C189.707 130.08 190.307 130.207 190.84 130.46C191.387 130.713 191.834 131.067 192.18 131.52C192.54 131.96 192.74 132.467 192.78 133.04V137.14C192.74 137.713 192.547 138.233 192.2 138.7C191.854 139.153 191.407 139.52 190.86 139.8C190.314 140.067 189.707 140.2 189.04 140.2ZM189.58 137.44C190.02 137.44 190.4 137.347 190.72 137.16C191.04 136.96 191.294 136.687 191.48 136.34C191.667 135.993 191.76 135.593 191.76 135.14C191.76 134.687 191.667 134.293 191.48 133.96C191.307 133.613 191.054 133.34 190.72 133.14C190.4 132.94 190.027 132.84 189.6 132.84C189.174 132.84 188.794 132.94 188.46 133.14C188.14 133.34 187.88 133.613 187.68 133.96C187.494 134.307 187.4 134.7 187.4 135.14C187.4 135.58 187.494 135.973 187.68 136.32C187.867 136.667 188.127 136.94 188.46 137.14C188.794 137.34 189.167 137.44 189.58 137.44ZM194.64 140H191.64V137.38L192.1 135.02L191.58 132.66V125.48H194.64V140ZM196.795 140V130.28H199.855V140H196.795ZM199.855 134.66L198.575 133.66C198.828 132.527 199.255 131.647 199.855 131.02C200.455 130.393 201.288 130.08 202.355 130.08C202.822 130.08 203.228 130.153 203.575 130.3C203.935 130.433 204.248 130.647 204.515 130.94L202.695 133.24C202.562 133.093 202.395 132.98 202.195 132.9C201.995 132.82 201.768 132.78 201.515 132.78C201.008 132.78 200.602 132.94 200.295 133.26C200.002 133.567 199.855 134.033 199.855 134.66ZM209.737 140.22C208.737 140.22 207.83 140 207.017 139.56C206.217 139.107 205.583 138.493 205.117 137.72C204.65 136.947 204.417 136.08 204.417 135.12C204.417 134.16 204.65 133.3 205.117 132.54C205.583 131.78 206.217 131.18 207.017 130.74C207.817 130.287 208.723 130.06 209.737 130.06C210.75 130.06 211.657 130.28 212.457 130.72C213.257 131.16 213.89 131.767 214.357 132.54C214.823 133.3 215.057 134.16 215.057 135.12C215.057 136.08 214.823 136.947 214.357 137.72C213.89 138.493 213.257 139.107 212.457 139.56C211.657 140 210.75 140.22 209.737 140.22ZM209.737 137.44C210.177 137.44 210.563 137.347 210.897 137.16C211.23 136.96 211.483 136.687 211.657 136.34C211.843 135.98 211.937 135.573 211.937 135.12C211.937 134.667 211.843 134.273 211.657 133.94C211.47 133.593 211.21 133.327 210.877 133.14C210.557 132.94 210.177 132.84 209.737 132.84C209.31 132.84 208.93 132.94 208.597 133.14C208.263 133.327 208.003 133.593 207.817 133.94C207.63 134.287 207.537 134.687 207.537 135.14C207.537 135.58 207.63 135.98 207.817 136.34C208.003 136.687 208.263 136.96 208.597 137.16C208.93 137.347 209.31 137.44 209.737 137.44ZM216.58 140V130.28H219.64V140H216.58ZM218.12 128.94C217.64 128.94 217.24 128.78 216.92 128.46C216.613 128.127 216.46 127.727 216.46 127.26C216.46 126.78 216.613 126.38 216.92 126.06C217.24 125.74 217.64 125.58 218.12 125.58C218.6 125.58 218.993 125.74 219.3 126.06C219.607 126.38 219.76 126.78 219.76 127.26C219.76 127.727 219.607 128.127 219.3 128.46C218.993 128.78 218.6 128.94 218.12 128.94ZM223.175 140V126.26H226.235V140H223.175ZM220.975 132.88V130.28H228.435V132.88H220.975ZM233.128 140.24C232.554 140.24 231.988 140.167 231.428 140.02C230.881 139.873 230.368 139.667 229.888 139.4C229.421 139.12 229.021 138.8 228.688 138.44L230.428 136.68C230.748 137.027 231.128 137.3 231.568 137.5C232.008 137.687 232.488 137.78 233.008 137.78C233.368 137.78 233.641 137.727 233.828 137.62C234.028 137.513 234.128 137.367 234.128 137.18C234.128 136.94 234.008 136.76 233.768 136.64C233.541 136.507 233.248 136.393 232.888 136.3C232.528 136.193 232.148 136.08 231.748 135.96C231.348 135.84 230.968 135.673 230.608 135.46C230.248 135.247 229.954 134.953 229.728 134.58C229.501 134.193 229.388 133.707 229.388 133.12C229.388 132.493 229.548 131.953 229.868 131.5C230.188 131.033 230.641 130.667 231.228 130.4C231.814 130.133 232.501 130 233.288 130C234.114 130 234.874 130.147 235.568 130.44C236.274 130.72 236.848 131.14 237.288 131.7L235.548 133.46C235.241 133.1 234.894 132.847 234.508 132.7C234.134 132.553 233.768 132.48 233.408 132.48C233.061 132.48 232.801 132.533 232.628 132.64C232.454 132.733 232.368 132.873 232.368 133.06C232.368 133.26 232.481 133.42 232.708 133.54C232.934 133.66 233.228 133.767 233.588 133.86C233.948 133.953 234.328 134.067 234.728 134.2C235.128 134.333 235.508 134.513 235.868 134.74C236.228 134.967 236.521 135.273 236.748 135.66C236.974 136.033 237.088 136.527 237.088 137.14C237.088 138.087 236.728 138.84 236.008 139.4C235.301 139.96 234.341 140.24 233.128 140.24ZM246.697 140.2C245.777 140.2 244.957 139.98 244.237 139.54C243.53 139.1 242.97 138.5 242.557 137.74C242.157 136.98 241.957 136.113 241.957 135.14C241.957 134.167 242.157 133.3 242.557 132.54C242.97 131.78 243.53 131.18 244.237 130.74C244.957 130.3 245.777 130.08 246.697 130.08C247.363 130.08 247.963 130.207 248.497 130.46C249.043 130.713 249.49 131.067 249.837 131.52C250.197 131.96 250.397 132.467 250.437 133.04V137.14C250.397 137.713 250.203 138.233 249.857 138.7C249.51 139.153 249.063 139.52 248.517 139.8C247.97 140.067 247.363 140.2 246.697 140.2ZM247.237 137.44C247.677 137.44 248.057 137.347 248.377 137.16C248.697 136.96 248.95 136.687 249.137 136.34C249.323 135.993 249.417 135.593 249.417 135.14C249.417 134.687 249.323 134.293 249.137 133.96C248.963 133.613 248.71 133.34 248.377 133.14C248.057 132.94 247.683 132.84 247.257 132.84C246.83 132.84 246.45 132.94 246.117 133.14C245.797 133.34 245.537 133.613 245.337 133.96C245.15 134.307 245.057 134.7 245.057 135.14C245.057 135.58 245.15 135.973 245.337 136.32C245.523 136.667 245.783 136.94 246.117 137.14C246.45 137.34 246.823 137.44 247.237 137.44ZM252.297 140H249.297V137.38L249.757 135.02L249.237 132.66V125.48H252.297V140ZM259.251 140.22C258.198 140.22 257.258 140.007 256.431 139.58C255.618 139.14 254.978 138.533 254.511 137.76C254.044 136.987 253.811 136.113 253.811 135.14C253.811 134.167 254.038 133.3 254.491 132.54C254.958 131.767 255.584 131.16 256.371 130.72C257.158 130.28 258.044 130.06 259.031 130.06C259.991 130.06 260.838 130.267 261.571 130.68C262.304 131.093 262.878 131.667 263.291 132.4C263.718 133.133 263.931 133.973 263.931 134.92C263.931 135.093 263.918 135.28 263.891 135.48C263.878 135.667 263.844 135.887 263.791 136.14L255.411 136.16V134.06L262.491 134.04L261.171 134.92C261.158 134.36 261.071 133.9 260.911 133.54C260.751 133.167 260.511 132.887 260.191 132.7C259.884 132.5 259.504 132.4 259.051 132.4C258.571 132.4 258.151 132.513 257.791 132.74C257.444 132.953 257.171 133.26 256.971 133.66C256.784 134.06 256.691 134.547 256.691 135.12C256.691 135.693 256.791 136.187 256.991 136.6C257.204 137 257.498 137.313 257.871 137.54C258.258 137.753 258.711 137.86 259.231 137.86C259.711 137.86 260.144 137.78 260.531 137.62C260.918 137.447 261.258 137.193 261.551 136.86L263.231 138.54C262.751 139.1 262.171 139.52 261.491 139.8C260.811 140.08 260.064 140.22 259.251 140.22ZM149.08 165V150.48H152.14V165H149.08ZM154.795 156.42L154.235 150.48H157.195L156.635 156.42H154.795ZM165.715 165V159.46C165.715 158.953 165.555 158.547 165.235 158.24C164.928 157.92 164.535 157.76 164.055 157.76C163.722 157.76 163.428 157.833 163.175 157.98C162.922 158.113 162.722 158.313 162.575 158.58C162.428 158.833 162.355 159.127 162.355 159.46L161.175 158.88C161.175 158.12 161.335 157.453 161.655 156.88C161.975 156.307 162.422 155.867 162.995 155.56C163.568 155.24 164.228 155.08 164.975 155.08C165.735 155.08 166.402 155.24 166.975 155.56C167.548 155.867 167.988 156.3 168.295 156.86C168.615 157.407 168.775 158.047 168.775 158.78V165H165.715ZM159.295 165V150.48H162.355V165H159.295ZM175.42 165.22C174.42 165.22 173.513 165 172.7 164.56C171.9 164.107 171.267 163.493 170.8 162.72C170.333 161.947 170.1 161.08 170.1 160.12C170.1 159.16 170.333 158.3 170.8 157.54C171.267 156.78 171.9 156.18 172.7 155.74C173.5 155.287 174.407 155.06 175.42 155.06C176.433 155.06 177.34 155.28 178.14 155.72C178.94 156.16 179.573 156.767 180.04 157.54C180.507 158.3 180.74 159.16 180.74 160.12C180.74 161.08 180.507 161.947 180.04 162.72C179.573 163.493 178.94 164.107 178.14 164.56C177.34 165 176.433 165.22 175.42 165.22ZM175.42 162.44C175.86 162.44 176.247 162.347 176.58 162.16C176.913 161.96 177.167 161.687 177.34 161.34C177.527 160.98 177.62 160.573 177.62 160.12C177.62 159.667 177.527 159.273 177.34 158.94C177.153 158.593 176.893 158.327 176.56 158.14C176.24 157.94 175.86 157.84 175.42 157.84C174.993 157.84 174.613 157.94 174.28 158.14C173.947 158.327 173.687 158.593 173.5 158.94C173.313 159.287 173.22 159.687 173.22 160.14C173.22 160.58 173.313 160.98 173.5 161.34C173.687 161.687 173.947 161.96 174.28 162.16C174.613 162.347 174.993 162.44 175.42 162.44ZM182.264 165V155.28H185.324V165H182.264ZM188.484 165V159.32C188.484 158.827 188.33 158.447 188.024 158.18C187.73 157.9 187.364 157.76 186.924 157.76C186.617 157.76 186.344 157.827 186.104 157.96C185.864 158.08 185.67 158.253 185.524 158.48C185.39 158.707 185.324 158.987 185.324 159.32L184.144 158.8C184.144 158.027 184.31 157.367 184.644 156.82C184.977 156.26 185.43 155.833 186.004 155.54C186.577 155.233 187.224 155.08 187.944 155.08C188.624 155.08 189.23 155.233 189.764 155.54C190.31 155.847 190.744 156.273 191.064 156.82C191.384 157.367 191.544 158.02 191.544 158.78V165H188.484ZM194.704 165V159.32C194.704 158.827 194.55 158.447 194.244 158.18C193.95 157.9 193.584 157.76 193.144 157.76C192.837 157.76 192.564 157.827 192.324 157.96C192.084 158.08 191.89 158.253 191.744 158.48C191.61 158.707 191.544 158.987 191.544 159.32L189.784 159.08C189.81 158.253 190.004 157.547 190.364 156.96C190.737 156.36 191.224 155.9 191.824 155.58C192.437 155.247 193.124 155.08 193.884 155.08C194.63 155.08 195.29 155.24 195.864 155.56C196.45 155.867 196.91 156.313 197.244 156.9C197.59 157.473 197.764 158.167 197.764 158.98V165H194.704ZM199.725 165V155.28H202.785V165H199.725ZM205.945 165V159.32C205.945 158.827 205.791 158.447 205.485 158.18C205.191 157.9 204.825 157.76 204.385 157.76C204.078 157.76 203.805 157.827 203.565 157.96C203.325 158.08 203.131 158.253 202.985 158.48C202.851 158.707 202.785 158.987 202.785 159.32L201.605 158.8C201.605 158.027 201.771 157.367 202.105 156.82C202.438 156.26 202.891 155.833 203.465 155.54C204.038 155.233 204.685 155.08 205.405 155.08C206.085 155.08 206.691 155.233 207.225 155.54C207.771 155.847 208.205 156.273 208.525 156.82C208.845 157.367 209.005 158.02 209.005 158.78V165H205.945ZM212.165 165V159.32C212.165 158.827 212.011 158.447 211.705 158.18C211.411 157.9 211.045 157.76 210.605 157.76C210.298 157.76 210.025 157.827 209.785 157.96C209.545 158.08 209.351 158.253 209.205 158.48C209.071 158.707 209.005 158.987 209.005 159.32L207.245 159.08C207.271 158.253 207.465 157.547 207.825 156.96C208.198 156.36 208.685 155.9 209.285 155.58C209.898 155.247 210.585 155.08 211.345 155.08C212.091 155.08 212.751 155.24 213.325 155.56C213.911 155.867 214.371 156.313 214.705 156.9C215.051 157.473 215.225 158.167 215.225 158.98V165H212.165ZM221.985 165.22C220.932 165.22 219.992 165.007 219.165 164.58C218.352 164.14 217.712 163.533 217.245 162.76C216.779 161.987 216.545 161.113 216.545 160.14C216.545 159.167 216.772 158.3 217.225 157.54C217.692 156.767 218.319 156.16 219.105 155.72C219.892 155.28 220.779 155.06 221.765 155.06C222.725 155.06 223.572 155.267 224.305 155.68C225.039 156.093 225.612 156.667 226.025 157.4C226.452 158.133 226.665 158.973 226.665 159.92C226.665 160.093 226.652 160.28 226.625 160.48C226.612 160.667 226.579 160.887 226.525 161.14L218.145 161.16V159.06L225.225 159.04L223.905 159.92C223.892 159.36 223.805 158.9 223.645 158.54C223.485 158.167 223.245 157.887 222.925 157.7C222.619 157.5 222.239 157.4 221.785 157.4C221.305 157.4 220.885 157.513 220.525 157.74C220.179 157.953 219.905 158.26 219.705 158.66C219.519 159.06 219.425 159.547 219.425 160.12C219.425 160.693 219.525 161.187 219.725 161.6C219.939 162 220.232 162.313 220.605 162.54C220.992 162.753 221.445 162.86 221.965 162.86C222.445 162.86 222.879 162.78 223.265 162.62C223.652 162.447 223.992 162.193 224.285 161.86L225.965 163.54C225.485 164.1 224.905 164.52 224.225 164.8C223.545 165.08 222.799 165.22 221.985 165.22ZM236.751 165.22C235.698 165.22 234.758 165.007 233.931 164.58C233.118 164.14 232.478 163.533 232.011 162.76C231.544 161.987 231.311 161.113 231.311 160.14C231.311 159.167 231.538 158.3 231.991 157.54C232.458 156.767 233.084 156.16 233.871 155.72C234.658 155.28 235.544 155.06 236.531 155.06C237.491 155.06 238.338 155.267 239.071 155.68C239.804 156.093 240.378 156.667 240.791 157.4C241.218 158.133 241.431 158.973 241.431 159.92C241.431 160.093 241.418 160.28 241.391 160.48C241.378 160.667 241.344 160.887 241.291 161.14L232.911 161.16V159.06L239.991 159.04L238.671 159.92C238.658 159.36 238.571 158.9 238.411 158.54C238.251 158.167 238.011 157.887 237.691 157.7C237.384 157.5 237.004 157.4 236.551 157.4C236.071 157.4 235.651 157.513 235.291 157.74C234.944 157.953 234.671 158.26 234.471 158.66C234.284 159.06 234.191 159.547 234.191 160.12C234.191 160.693 234.291 161.187 234.491 161.6C234.704 162 234.998 162.313 235.371 162.54C235.758 162.753 236.211 162.86 236.731 162.86C237.211 162.86 237.644 162.78 238.031 162.62C238.418 162.447 238.758 162.193 239.051 161.86L240.731 163.54C240.251 164.1 239.671 164.52 238.991 164.8C238.311 165.08 237.564 165.22 236.751 165.22ZM244.093 165V151.26H247.153V165H244.093ZM241.893 157.88V155.28H249.353V157.88H241.893ZM258.65 165.2C257.73 165.2 256.91 164.98 256.19 164.54C255.483 164.1 254.923 163.5 254.51 162.74C254.11 161.98 253.91 161.113 253.91 160.14C253.91 159.167 254.11 158.3 254.51 157.54C254.923 156.78 255.483 156.18 256.19 155.74C256.91 155.3 257.73 155.08 258.65 155.08C259.316 155.08 259.916 155.207 260.45 155.46C260.996 155.713 261.443 156.067 261.79 156.52C262.15 156.96 262.35 157.467 262.39 158.04V162.14C262.35 162.713 262.156 163.233 261.81 163.7C261.463 164.153 261.016 164.52 260.47 164.8C259.923 165.067 259.316 165.2 258.65 165.2ZM259.19 162.44C259.63 162.44 260.01 162.347 260.33 162.16C260.65 161.96 260.903 161.687 261.09 161.34C261.276 160.993 261.37 160.593 261.37 160.14C261.37 159.687 261.276 159.293 261.09 158.96C260.916 158.613 260.663 158.34 260.33 158.14C260.01 157.94 259.636 157.84 259.21 157.84C258.783 157.84 258.403 157.94 258.07 158.14C257.75 158.34 257.49 158.613 257.29 158.96C257.103 159.307 257.01 159.7 257.01 160.14C257.01 160.58 257.103 160.973 257.29 161.32C257.476 161.667 257.736 161.94 258.07 162.14C258.403 162.34 258.776 162.44 259.19 162.44ZM264.25 165H261.25V162.38L261.71 160.02L261.19 157.66V150.48H264.25V165ZM270.724 165.22C269.831 165.22 269.038 165.04 268.344 164.68C267.664 164.307 267.131 163.8 266.744 163.16C266.358 162.507 266.164 161.76 266.164 160.92V155.28H269.224V160.88C269.224 161.213 269.278 161.5 269.384 161.74C269.504 161.98 269.678 162.167 269.904 162.3C270.131 162.433 270.404 162.5 270.724 162.5C271.178 162.5 271.538 162.36 271.804 162.08C272.071 161.787 272.204 161.387 272.204 160.88V155.28H275.264V160.9C275.264 161.753 275.071 162.507 274.684 163.16C274.298 163.8 273.764 164.307 273.084 164.68C272.404 165.04 271.618 165.22 270.724 165.22ZM153.78 190.22C152.78 190.22 151.873 190 151.06 189.56C150.247 189.12 149.607 188.513 149.14 187.74C148.673 186.967 148.44 186.1 148.44 185.14C148.44 184.167 148.673 183.3 149.14 182.54C149.62 181.767 150.267 181.16 151.08 180.72C151.893 180.28 152.807 180.06 153.82 180.06C154.58 180.06 155.273 180.193 155.9 180.46C156.54 180.713 157.107 181.1 157.6 181.62L155.64 183.58C155.413 183.327 155.147 183.14 154.84 183.02C154.547 182.9 154.207 182.84 153.82 182.84C153.38 182.84 152.987 182.94 152.64 183.14C152.307 183.327 152.04 183.593 151.84 183.94C151.653 184.273 151.56 184.667 151.56 185.12C151.56 185.573 151.653 185.973 151.84 186.32C152.04 186.667 152.313 186.94 152.66 187.14C153.007 187.34 153.393 187.44 153.82 187.44C154.22 187.44 154.573 187.373 154.88 187.24C155.2 187.093 155.473 186.893 155.7 186.64L157.64 188.6C157.133 189.133 156.56 189.54 155.92 189.82C155.28 190.087 154.567 190.22 153.78 190.22ZM159.002 190V180.28H162.062V190H159.002ZM160.542 178.94C160.062 178.94 159.662 178.78 159.342 178.46C159.035 178.127 158.882 177.727 158.882 177.26C158.882 176.78 159.035 176.38 159.342 176.06C159.662 175.74 160.062 175.58 160.542 175.58C161.022 175.58 161.415 175.74 161.722 176.06C162.029 176.38 162.182 176.78 162.182 177.26C162.182 177.727 162.029 178.127 161.722 178.46C161.415 178.78 161.022 178.94 160.542 178.94ZM165.597 190V176.26H168.657V190H165.597ZM163.397 182.88V180.28H170.857V182.88H163.397ZM176.69 190.22C175.69 190.22 174.783 190 173.97 189.56C173.17 189.107 172.536 188.493 172.07 187.72C171.603 186.947 171.37 186.08 171.37 185.12C171.37 184.16 171.603 183.3 172.07 182.54C172.536 181.78 173.17 181.18 173.97 180.74C174.77 180.287 175.676 180.06 176.69 180.06C177.703 180.06 178.61 180.28 179.41 180.72C180.21 181.16 180.843 181.767 181.31 182.54C181.776 183.3 182.01 184.16 182.01 185.12C182.01 186.08 181.776 186.947 181.31 187.72C180.843 188.493 180.21 189.107 179.41 189.56C178.61 190 177.703 190.22 176.69 190.22ZM176.69 187.44C177.13 187.44 177.516 187.347 177.85 187.16C178.183 186.96 178.436 186.687 178.61 186.34C178.796 185.98 178.89 185.573 178.89 185.12C178.89 184.667 178.796 184.273 178.61 183.94C178.423 183.593 178.163 183.327 177.83 183.14C177.51 182.94 177.13 182.84 176.69 182.84C176.263 182.84 175.883 182.94 175.55 183.14C175.216 183.327 174.956 183.593 174.77 183.94C174.583 184.287 174.49 184.687 174.49 185.14C174.49 185.58 174.583 185.98 174.77 186.34C174.956 186.687 175.216 186.96 175.55 187.16C175.883 187.347 176.263 187.44 176.69 187.44ZM186.279 190.04L182.279 180.28H185.579L188.119 188.02H186.899L189.499 180.28H192.799L188.639 190.04H186.279ZM183.779 194.1L186.699 187.8L188.639 190.04L186.919 194.1H183.779ZM198.411 190.22C197.358 190.22 196.418 190.007 195.591 189.58C194.778 189.14 194.138 188.533 193.671 187.76C193.205 186.987 192.971 186.113 192.971 185.14C192.971 184.167 193.198 183.3 193.651 182.54C194.118 181.767 194.745 181.16 195.531 180.72C196.318 180.28 197.205 180.06 198.191 180.06C199.151 180.06 199.998 180.267 200.731 180.68C201.465 181.093 202.038 181.667 202.451 182.4C202.878 183.133 203.091 183.973 203.091 184.92C203.091 185.093 203.078 185.28 203.051 185.48C203.038 185.667 203.005 185.887 202.951 186.14L194.571 186.16V184.06L201.651 184.04L200.331 184.92C200.318 184.36 200.231 183.9 200.071 183.54C199.911 183.167 199.671 182.887 199.351 182.7C199.045 182.5 198.665 182.4 198.211 182.4C197.731 182.4 197.311 182.513 196.951 182.74C196.605 182.953 196.331 183.26 196.131 183.66C195.945 184.06 195.851 184.547 195.851 185.12C195.851 185.693 195.951 186.187 196.151 186.6C196.365 187 196.658 187.313 197.031 187.54C197.418 187.753 197.871 187.86 198.391 187.86C198.871 187.86 199.305 187.78 199.691 187.62C200.078 187.447 200.418 187.193 200.711 186.86L202.391 188.54C201.911 189.1 201.331 189.52 200.651 189.8C199.971 190.08 199.225 190.22 198.411 190.22ZM210.988 190V184.46C210.988 183.953 210.828 183.547 210.508 183.24C210.202 182.92 209.808 182.76 209.328 182.76C208.995 182.76 208.702 182.833 208.448 182.98C208.195 183.113 207.995 183.313 207.848 183.58C207.702 183.833 207.628 184.127 207.628 184.46L206.448 183.88C206.448 183.12 206.615 182.453 206.948 181.88C207.282 181.307 207.742 180.867 208.328 180.56C208.928 180.24 209.602 180.08 210.348 180.08C211.068 180.08 211.702 180.253 212.248 180.6C212.808 180.933 213.248 181.38 213.568 181.94C213.888 182.5 214.048 183.113 214.048 183.78V190H210.988ZM204.568 190V180.28H207.628V190H204.568ZM223.962 190.2C223.042 190.2 222.222 189.98 221.502 189.54C220.796 189.1 220.236 188.5 219.822 187.74C219.422 186.98 219.222 186.113 219.222 185.14C219.222 184.167 219.422 183.3 219.822 182.54C220.236 181.78 220.796 181.18 221.502 180.74C222.222 180.3 223.042 180.08 223.962 180.08C224.629 180.08 225.229 180.207 225.762 180.46C226.309 180.713 226.756 181.067 227.102 181.52C227.462 181.96 227.662 182.467 227.702 183.04V187.14C227.662 187.713 227.469 188.233 227.122 188.7C226.776 189.153 226.329 189.52 225.782 189.8C225.236 190.067 224.629 190.2 223.962 190.2ZM224.502 187.44C224.942 187.44 225.322 187.347 225.642 187.16C225.962 186.96 226.216 186.687 226.402 186.34C226.589 185.993 226.682 185.593 226.682 185.14C226.682 184.687 226.589 184.293 226.402 183.96C226.229 183.613 225.976 183.34 225.642 183.14C225.322 182.94 224.949 182.84 224.522 182.84C224.096 182.84 223.716 182.94 223.382 183.14C223.062 183.34 222.802 183.613 222.602 183.96C222.416 184.307 222.322 184.7 222.322 185.14C222.322 185.58 222.416 185.973 222.602 186.32C222.789 186.667 223.049 186.94 223.382 187.14C223.716 187.34 224.089 187.44 224.502 187.44ZM229.562 190H226.562V187.38L227.022 185.02L226.502 182.66V175.48H229.562V190ZM236.517 190.22C235.463 190.22 234.523 190.007 233.697 189.58C232.883 189.14 232.243 188.533 231.777 187.76C231.31 186.987 231.077 186.113 231.077 185.14C231.077 184.167 231.303 183.3 231.757 182.54C232.223 181.767 232.85 181.16 233.637 180.72C234.423 180.28 235.31 180.06 236.297 180.06C237.257 180.06 238.103 180.267 238.837 180.68C239.57 181.093 240.143 181.667 240.557 182.4C240.983 183.133 241.197 183.973 241.197 184.92C241.197 185.093 241.183 185.28 241.157 185.48C241.143 185.667 241.11 185.887 241.057 186.14L232.677 186.16V184.06L239.757 184.04L238.437 184.92C238.423 184.36 238.337 183.9 238.177 183.54C238.017 183.167 237.777 182.887 237.457 182.7C237.15 182.5 236.77 182.4 236.317 182.4C235.837 182.4 235.417 182.513 235.057 182.74C234.71 182.953 234.437 183.26 234.237 183.66C234.05 184.06 233.957 184.547 233.957 185.12C233.957 185.693 234.057 186.187 234.257 186.6C234.47 187 234.763 187.313 235.137 187.54C235.523 187.753 235.977 187.86 236.497 187.86C236.977 187.86 237.41 187.78 237.797 187.62C238.183 187.447 238.523 187.193 238.817 186.86L240.497 188.54C240.017 189.1 239.437 189.52 238.757 189.8C238.077 190.08 237.33 190.22 236.517 190.22ZM248.522 190V175.88H251.642V190H248.522ZM245.802 178.54V175.88H251.442V178.54H245.802ZM255.241 190L260.041 177.64H263.101L258.481 190H255.241ZM253.361 178.54V175.88H263.101V177.64L262.061 178.54H253.361ZM268.874 190.22C267.861 190.22 266.974 190.04 266.214 189.68C265.467 189.32 264.881 188.827 264.454 188.2C264.041 187.573 263.834 186.86 263.834 186.06C263.834 185.393 263.961 184.793 264.214 184.26C264.481 183.727 264.847 183.28 265.314 182.92C265.794 182.56 266.347 182.313 266.974 182.18L266.914 182.82C266.381 182.7 265.927 182.48 265.554 182.16C265.181 181.827 264.894 181.427 264.694 180.96C264.494 180.493 264.394 180.007 264.394 179.5C264.394 178.753 264.581 178.093 264.954 177.52C265.341 176.933 265.874 176.473 266.554 176.14C267.234 175.807 268.007 175.64 268.874 175.64C269.754 175.64 270.527 175.807 271.194 176.14C271.874 176.473 272.401 176.933 272.774 177.52C273.161 178.093 273.354 178.753 273.354 179.5C273.354 180.007 273.254 180.493 273.054 180.96C272.867 181.427 272.587 181.827 272.214 182.16C271.841 182.48 271.387 182.7 270.854 182.82L270.774 182.18C271.414 182.313 271.967 182.56 272.434 182.92C272.914 183.28 273.281 183.727 273.534 184.26C273.787 184.793 273.914 185.393 273.914 186.06C273.914 186.86 273.707 187.573 273.294 188.2C272.881 188.827 272.294 189.32 271.534 189.68C270.787 190.04 269.901 190.22 268.874 190.22ZM268.874 187.54C269.274 187.54 269.627 187.46 269.934 187.3C270.241 187.127 270.481 186.893 270.654 186.6C270.841 186.307 270.934 185.98 270.934 185.62C270.934 185.247 270.841 184.92 270.654 184.64C270.481 184.347 270.241 184.12 269.934 183.96C269.627 183.787 269.274 183.7 268.874 183.7C268.474 183.7 268.121 183.787 267.814 183.96C267.507 184.12 267.267 184.347 267.094 184.64C266.921 184.92 266.834 185.247 266.834 185.62C266.834 185.98 266.921 186.307 267.094 186.6C267.267 186.893 267.507 187.127 267.814 187.3C268.121 187.46 268.474 187.54 268.874 187.54ZM268.874 181.42C269.341 181.42 269.721 181.273 270.014 180.98C270.321 180.673 270.474 180.293 270.474 179.84C270.474 179.373 270.321 178.993 270.014 178.7C269.721 178.393 269.341 178.24 268.874 178.24C268.421 178.24 268.041 178.387 267.734 178.68C267.427 178.973 267.274 179.353 267.274 179.82C267.274 180.273 267.427 180.653 267.734 180.96C268.041 181.267 268.421 181.42 268.874 181.42ZM276.567 190L281.007 183.82L282.167 183.74C281.993 184.047 281.8 184.32 281.587 184.56C281.387 184.787 281.127 184.967 280.807 185.1C280.5 185.22 280.087 185.28 279.567 185.28C278.713 185.28 277.927 185.08 277.207 184.68C276.5 184.267 275.933 183.713 275.507 183.02C275.093 182.313 274.887 181.513 274.887 180.62C274.887 179.687 275.12 178.847 275.587 178.1C276.053 177.353 276.68 176.76 277.467 176.32C278.253 175.88 279.14 175.66 280.127 175.66C281.113 175.66 282 175.88 282.787 176.32C283.573 176.747 284.193 177.333 284.647 178.08C285.113 178.813 285.347 179.647 285.347 180.58C285.347 181.78 284.933 182.987 284.107 184.2L280.127 190H276.567ZM280.127 182.94C280.54 182.94 280.913 182.84 281.247 182.64C281.58 182.44 281.84 182.173 282.027 181.84C282.213 181.493 282.307 181.107 282.307 180.68C282.307 180.24 282.213 179.847 282.027 179.5C281.84 179.153 281.58 178.887 281.247 178.7C280.913 178.5 280.54 178.4 280.127 178.4C279.7 178.4 279.32 178.5 278.987 178.7C278.667 178.887 278.407 179.153 278.207 179.5C278.02 179.847 277.927 180.24 277.927 180.68C277.927 181.107 278.02 181.493 278.207 181.84C278.407 182.173 278.673 182.44 279.007 182.64C279.34 182.84 279.713 182.94 280.127 182.94ZM153.88 215.22C152.827 215.22 151.887 215.007 151.06 214.58C150.247 214.14 149.607 213.533 149.14 212.76C148.673 211.987 148.44 211.113 148.44 210.14C148.44 209.167 148.667 208.3 149.12 207.54C149.587 206.767 150.213 206.16 151 205.72C151.787 205.28 152.673 205.06 153.66 205.06C154.62 205.06 155.467 205.267 156.2 205.68C156.933 206.093 157.507 206.667 157.92 207.4C158.347 208.133 158.56 208.973 158.56 209.92C158.56 210.093 158.547 210.28 158.52 210.48C158.507 210.667 158.473 210.887 158.42 211.14L150.04 211.16V209.06L157.12 209.04L155.8 209.92C155.787 209.36 155.7 208.9 155.54 208.54C155.38 208.167 155.14 207.887 154.82 207.7C154.513 207.5 154.133 207.4 153.68 207.4C153.2 207.4 152.78 207.513 152.42 207.74C152.073 207.953 151.8 208.26 151.6 208.66C151.413 209.06 151.32 209.547 151.32 210.12C151.32 210.693 151.42 211.187 151.62 211.6C151.833 212 152.127 212.313 152.5 212.54C152.887 212.753 153.34 212.86 153.86 212.86C154.34 212.86 154.773 212.78 155.16 212.62C155.547 212.447 155.887 212.193 156.18 211.86L157.86 213.54C157.38 214.1 156.8 214.52 156.12 214.8C155.44 215.08 154.693 215.22 153.88 215.22ZM163.577 215.24C163.004 215.24 162.437 215.167 161.877 215.02C161.33 214.873 160.817 214.667 160.337 214.4C159.87 214.12 159.47 213.8 159.137 213.44L160.877 211.68C161.197 212.027 161.577 212.3 162.017 212.5C162.457 212.687 162.937 212.78 163.457 212.78C163.817 212.78 164.09 212.727 164.277 212.62C164.477 212.513 164.577 212.367 164.577 212.18C164.577 211.94 164.457 211.76 164.217 211.64C163.99 211.507 163.697 211.393 163.337 211.3C162.977 211.193 162.597 211.08 162.197 210.96C161.797 210.84 161.417 210.673 161.057 210.46C160.697 210.247 160.404 209.953 160.177 209.58C159.95 209.193 159.837 208.707 159.837 208.12C159.837 207.493 159.997 206.953 160.317 206.5C160.637 206.033 161.09 205.667 161.677 205.4C162.264 205.133 162.95 205 163.737 205C164.564 205 165.324 205.147 166.017 205.44C166.724 205.72 167.297 206.14 167.737 206.7L165.997 208.46C165.69 208.1 165.344 207.847 164.957 207.7C164.584 207.553 164.217 207.48 163.857 207.48C163.51 207.48 163.25 207.533 163.077 207.64C162.904 207.733 162.817 207.873 162.817 208.06C162.817 208.26 162.93 208.42 163.157 208.54C163.384 208.66 163.677 208.767 164.037 208.86C164.397 208.953 164.777 209.067 165.177 209.2C165.577 209.333 165.957 209.513 166.317 209.74C166.677 209.967 166.97 210.273 167.197 210.66C167.424 211.033 167.537 211.527 167.537 212.14C167.537 213.087 167.177 213.84 166.457 214.4C165.75 214.96 164.79 215.24 163.577 215.24ZM170.577 215V201.26H173.637V215H170.577ZM168.377 207.88V205.28H175.837V207.88H168.377ZM185.314 215.22C184.421 215.22 183.627 215.04 182.934 214.68C182.254 214.307 181.721 213.8 181.334 213.16C180.947 212.507 180.754 211.76 180.754 210.92V205.28H183.814V210.88C183.814 211.213 183.867 211.5 183.974 211.74C184.094 211.98 184.267 212.167 184.494 212.3C184.721 212.433 184.994 212.5 185.314 212.5C185.767 212.5 186.127 212.36 186.394 212.08C186.661 211.787 186.794 211.387 186.794 210.88V205.28H189.854V210.9C189.854 211.753 189.661 212.507 189.274 213.16C188.887 213.8 188.354 214.307 187.674 214.68C186.994 215.04 186.207 215.22 185.314 215.22ZM198.195 215V209.46C198.195 208.953 198.035 208.547 197.715 208.24C197.409 207.92 197.015 207.76 196.535 207.76C196.202 207.76 195.909 207.833 195.655 207.98C195.402 208.113 195.202 208.313 195.055 208.58C194.909 208.833 194.835 209.127 194.835 209.46L193.655 208.88C193.655 208.12 193.822 207.453 194.155 206.88C194.489 206.307 194.949 205.867 195.535 205.56C196.135 205.24 196.809 205.08 197.555 205.08C198.275 205.08 198.909 205.253 199.455 205.6C200.015 205.933 200.455 206.38 200.775 206.94C201.095 207.5 201.255 208.113 201.255 208.78V215H198.195ZM191.775 215V205.28H194.835V215H191.775ZM208.409 215V201.26H211.469V215H208.409ZM206.209 207.88V205.28H213.669V207.88H206.209ZM219.622 215.22C218.569 215.22 217.629 215.007 216.802 214.58C215.989 214.14 215.349 213.533 214.882 212.76C214.416 211.987 214.182 211.113 214.182 210.14C214.182 209.167 214.409 208.3 214.862 207.54C215.329 206.767 215.956 206.16 216.742 205.72C217.529 205.28 218.416 205.06 219.402 205.06C220.362 205.06 221.209 205.267 221.942 205.68C222.676 206.093 223.249 206.667 223.662 207.4C224.089 208.133 224.302 208.973 224.302 209.92C224.302 210.093 224.289 210.28 224.262 210.48C224.249 210.667 224.216 210.887 224.162 211.14L215.782 211.16V209.06L222.862 209.04L221.542 209.92C221.529 209.36 221.442 208.9 221.282 208.54C221.122 208.167 220.882 207.887 220.562 207.7C220.256 207.5 219.876 207.4 219.422 207.4C218.942 207.4 218.522 207.513 218.162 207.74C217.816 207.953 217.542 208.26 217.342 208.66C217.156 209.06 217.062 209.547 217.062 210.12C217.062 210.693 217.162 211.187 217.362 211.6C217.576 212 217.869 212.313 218.242 212.54C218.629 212.753 219.082 212.86 219.602 212.86C220.082 212.86 220.516 212.78 220.902 212.62C221.289 212.447 221.629 212.193 221.922 211.86L223.602 213.54C223.122 214.1 222.542 214.52 221.862 214.8C221.182 215.08 220.436 215.22 219.622 215.22ZM231.545 215L229.205 211.22L228.545 210.8L224.725 205.28H228.305L230.485 208.82L231.125 209.22L235.085 215H231.545ZM224.545 215L228.525 209.34L230.265 211.3L227.885 215H224.545ZM231.105 210.78L229.365 208.82L231.565 205.28H234.885L231.105 210.78ZM237.394 215V201.26H240.454V215H237.394ZM235.194 207.88V205.28H242.654V207.88H235.194ZM248.607 215.22C247.553 215.22 246.613 215.007 245.787 214.58C244.973 214.14 244.333 213.533 243.867 212.76C243.4 211.987 243.167 211.113 243.167 210.14C243.167 209.167 243.393 208.3 243.847 207.54C244.313 206.767 244.94 206.16 245.727 205.72C246.513 205.28 247.4 205.06 248.387 205.06C249.347 205.06 250.193 205.267 250.927 205.68C251.66 206.093 252.233 206.667 252.647 207.4C253.073 208.133 253.287 208.973 253.287 209.92C253.287 210.093 253.273 210.28 253.247 210.48C253.233 210.667 253.2 210.887 253.147 211.14L244.767 211.16V209.06L251.847 209.04L250.527 209.92C250.513 209.36 250.427 208.9 250.267 208.54C250.107 208.167 249.867 207.887 249.547 207.7C249.24 207.5 248.86 207.4 248.407 207.4C247.927 207.4 247.507 207.513 247.147 207.74C246.8 207.953 246.527 208.26 246.327 208.66C246.14 209.06 246.047 209.547 246.047 210.12C246.047 210.693 246.147 211.187 246.347 211.6C246.56 212 246.853 212.313 247.227 212.54C247.613 212.753 248.067 212.86 248.587 212.86C249.067 212.86 249.5 212.78 249.887 212.62C250.273 212.447 250.613 212.193 250.907 211.86L252.587 213.54C252.107 214.1 251.527 214.52 250.847 214.8C250.167 215.08 249.42 215.22 248.607 215.22ZM150.32 240V229.44C150.32 228.653 150.493 227.947 150.84 227.32C151.2 226.68 151.7 226.18 152.34 225.82C152.98 225.447 153.74 225.26 154.62 225.26C155.287 225.26 155.867 225.373 156.36 225.6C156.867 225.813 157.307 226.113 157.68 226.5L155.76 228.42C155.627 228.287 155.473 228.187 155.3 228.12C155.14 228.04 154.947 228 154.72 228C154.307 228 153.98 228.12 153.74 228.36C153.5 228.6 153.38 228.927 153.38 229.34V240H150.32ZM148.18 232.88V230.28H156.18V232.88H148.18ZM162.041 240.22C161.041 240.22 160.135 240 159.321 239.56C158.521 239.107 157.888 238.493 157.421 237.72C156.955 236.947 156.721 236.08 156.721 235.12C156.721 234.16 156.955 233.3 157.421 232.54C157.888 231.78 158.521 231.18 159.321 230.74C160.121 230.287 161.028 230.06 162.041 230.06C163.055 230.06 163.961 230.28 164.761 230.72C165.561 231.16 166.195 231.767 166.661 232.54C167.128 233.3 167.361 234.16 167.361 235.12C167.361 236.08 167.128 236.947 166.661 237.72C166.195 238.493 165.561 239.107 164.761 239.56C163.961 240 163.055 240.22 162.041 240.22ZM162.041 237.44C162.481 237.44 162.868 237.347 163.201 237.16C163.535 236.96 163.788 236.687 163.961 236.34C164.148 235.98 164.241 235.573 164.241 235.12C164.241 234.667 164.148 234.273 163.961 233.94C163.775 233.593 163.515 233.327 163.181 233.14C162.861 232.94 162.481 232.84 162.041 232.84C161.615 232.84 161.235 232.94 160.901 233.14C160.568 233.327 160.308 233.593 160.121 233.94C159.935 234.287 159.841 234.687 159.841 235.14C159.841 235.58 159.935 235.98 160.121 236.34C160.308 236.687 160.568 236.96 160.901 237.16C161.235 237.347 161.615 237.44 162.041 237.44ZM175.305 240V234.46C175.305 233.953 175.145 233.547 174.825 233.24C174.518 232.92 174.125 232.76 173.645 232.76C173.311 232.76 173.018 232.833 172.765 232.98C172.511 233.113 172.311 233.313 172.165 233.58C172.018 233.833 171.945 234.127 171.945 234.46L170.765 233.88C170.765 233.12 170.931 232.453 171.265 231.88C171.598 231.307 172.058 230.867 172.645 230.56C173.245 230.24 173.918 230.08 174.665 230.08C175.385 230.08 176.018 230.253 176.565 230.6C177.125 230.933 177.565 231.38 177.885 231.94C178.205 232.5 178.365 233.113 178.365 233.78V240H175.305ZM168.885 240V230.28H171.945V240H168.885ZM184.47 240.2C183.55 240.2 182.73 239.98 182.01 239.54C181.303 239.1 180.743 238.5 180.33 237.74C179.93 236.98 179.73 236.113 179.73 235.14C179.73 234.167 179.93 233.3 180.33 232.54C180.743 231.78 181.303 231.18 182.01 230.74C182.73 230.3 183.55 230.08 184.47 230.08C185.137 230.08 185.737 230.207 186.27 230.46C186.817 230.713 187.263 231.067 187.61 231.52C187.97 231.96 188.17 232.467 188.21 233.04V237.14C188.17 237.713 187.977 238.233 187.63 238.7C187.283 239.153 186.837 239.52 186.29 239.8C185.743 240.067 185.137 240.2 184.47 240.2ZM185.01 237.44C185.45 237.44 185.83 237.347 186.15 237.16C186.47 236.96 186.723 236.687 186.91 236.34C187.097 235.993 187.19 235.593 187.19 235.14C187.19 234.687 187.097 234.293 186.91 233.96C186.737 233.613 186.483 233.34 186.15 233.14C185.83 232.94 185.457 232.84 185.03 232.84C184.603 232.84 184.223 232.94 183.89 233.14C183.57 233.34 183.31 233.613 183.11 233.96C182.923 234.307 182.83 234.7 182.83 235.14C182.83 235.58 182.923 235.973 183.11 236.32C183.297 236.667 183.557 236.94 183.89 237.14C184.223 237.34 184.597 237.44 185.01 237.44ZM190.07 240H187.07V237.38L187.53 235.02L187.01 232.66V225.48H190.07V240ZM196.285 240.2C195.391 240.2 194.591 239.98 193.885 239.54C193.191 239.1 192.638 238.5 192.225 237.74C191.825 236.98 191.625 236.113 191.625 235.14C191.625 234.167 191.825 233.3 192.225 232.54C192.638 231.78 193.191 231.18 193.885 230.74C194.591 230.3 195.391 230.08 196.285 230.08C196.938 230.08 197.525 230.207 198.045 230.46C198.578 230.713 199.011 231.067 199.345 231.52C199.678 231.96 199.865 232.467 199.905 233.04V237.24C199.865 237.813 199.678 238.327 199.345 238.78C199.025 239.22 198.598 239.567 198.065 239.82C197.531 240.073 196.938 240.2 196.285 240.2ZM196.905 237.44C197.558 237.44 198.085 237.227 198.485 236.8C198.885 236.36 199.085 235.807 199.085 235.14C199.085 234.687 198.991 234.287 198.805 233.94C198.631 233.593 198.378 233.327 198.045 233.14C197.725 232.94 197.351 232.84 196.925 232.84C196.498 232.84 196.118 232.94 195.785 233.14C195.465 233.327 195.205 233.593 195.005 233.94C194.818 234.287 194.725 234.687 194.725 235.14C194.725 235.58 194.818 235.973 195.005 236.32C195.191 236.667 195.451 236.94 195.785 237.14C196.118 237.34 196.491 237.44 196.905 237.44ZM198.965 240V237.38L199.425 235.02L198.965 232.66V230.28H201.965V240H198.965ZM204.119 240V230.28H207.179V240H204.119ZM210.339 240V234.32C210.339 233.827 210.186 233.447 209.879 233.18C209.586 232.9 209.219 232.76 208.779 232.76C208.472 232.76 208.199 232.827 207.959 232.96C207.719 233.08 207.526 233.253 207.379 233.48C207.246 233.707 207.179 233.987 207.179 234.32L205.999 233.8C205.999 233.027 206.166 232.367 206.499 231.82C206.832 231.26 207.286 230.833 207.859 230.54C208.432 230.233 209.079 230.08 209.799 230.08C210.479 230.08 211.086 230.233 211.619 230.54C212.166 230.847 212.599 231.273 212.919 231.82C213.239 232.367 213.399 233.02 213.399 233.78V240H210.339ZM216.559 240V234.32C216.559 233.827 216.406 233.447 216.099 233.18C215.806 232.9 215.439 232.76 214.999 232.76C214.692 232.76 214.419 232.827 214.179 232.96C213.939 233.08 213.746 233.253 213.599 233.48C213.466 233.707 213.399 233.987 213.399 234.32L211.639 234.08C211.666 233.253 211.859 232.547 212.219 231.96C212.592 231.36 213.079 230.9 213.679 230.58C214.292 230.247 214.979 230.08 215.739 230.08C216.486 230.08 217.146 230.24 217.719 230.56C218.306 230.867 218.766 231.313 219.099 231.9C219.446 232.473 219.619 233.167 219.619 233.98V240H216.559ZM226.38 240.22C225.327 240.22 224.387 240.007 223.56 239.58C222.747 239.14 222.107 238.533 221.64 237.76C221.173 236.987 220.94 236.113 220.94 235.14C220.94 234.167 221.167 233.3 221.62 232.54C222.087 231.767 222.713 231.16 223.5 230.72C224.287 230.28 225.173 230.06 226.16 230.06C227.12 230.06 227.967 230.267 228.7 230.68C229.433 231.093 230.007 231.667 230.42 232.4C230.847 233.133 231.06 233.973 231.06 234.92C231.06 235.093 231.047 235.28 231.02 235.48C231.007 235.667 230.973 235.887 230.92 236.14L222.54 236.16V234.06L229.62 234.04L228.3 234.92C228.287 234.36 228.2 233.9 228.04 233.54C227.88 233.167 227.64 232.887 227.32 232.7C227.013 232.5 226.633 232.4 226.18 232.4C225.7 232.4 225.28 232.513 224.92 232.74C224.573 232.953 224.3 233.26 224.1 233.66C223.913 234.06 223.82 234.547 223.82 235.12C223.82 235.693 223.92 236.187 224.12 236.6C224.333 237 224.627 237.313 225 237.54C225.387 237.753 225.84 237.86 226.36 237.86C226.84 237.86 227.273 237.78 227.66 237.62C228.047 237.447 228.387 237.193 228.68 236.86L230.36 238.54C229.88 239.1 229.3 239.52 228.62 239.8C227.94 240.08 227.193 240.22 226.38 240.22ZM238.957 240V234.46C238.957 233.953 238.797 233.547 238.477 233.24C238.17 232.92 237.777 232.76 237.297 232.76C236.964 232.76 236.67 232.833 236.417 232.98C236.164 233.113 235.964 233.313 235.817 233.58C235.67 233.833 235.597 234.127 235.597 234.46L234.417 233.88C234.417 233.12 234.584 232.453 234.917 231.88C235.25 231.307 235.71 230.867 236.297 230.56C236.897 230.24 237.57 230.08 238.317 230.08C239.037 230.08 239.67 230.253 240.217 230.6C240.777 230.933 241.217 231.38 241.537 231.94C241.857 232.5 242.017 233.113 242.017 233.78V240H238.957ZM232.537 240V230.28H235.597V240H232.537ZM245.245 240V226.26H248.305V240H245.245ZM243.045 232.88V230.28H250.505V232.88H243.045ZM255.718 240.2C254.825 240.2 254.025 239.98 253.318 239.54C252.625 239.1 252.071 238.5 251.658 237.74C251.258 236.98 251.058 236.113 251.058 235.14C251.058 234.167 251.258 233.3 251.658 232.54C252.071 231.78 252.625 231.18 253.318 230.74C254.025 230.3 254.825 230.08 255.718 230.08C256.371 230.08 256.958 230.207 257.478 230.46C258.011 230.713 258.445 231.067 258.778 231.52C259.111 231.96 259.298 232.467 259.338 233.04V237.24C259.298 237.813 259.111 238.327 258.778 238.78C258.458 239.22 258.031 239.567 257.498 239.82C256.965 240.073 256.371 240.2 255.718 240.2ZM256.338 237.44C256.991 237.44 257.518 237.227 257.918 236.8C258.318 236.36 258.518 235.807 258.518 235.14C258.518 234.687 258.425 234.287 258.238 233.94C258.065 233.593 257.811 233.327 257.478 233.14C257.158 232.94 256.785 232.84 256.358 232.84C255.931 232.84 255.551 232.94 255.218 233.14C254.898 233.327 254.638 233.593 254.438 233.94C254.251 234.287 254.158 234.687 254.158 235.14C254.158 235.58 254.251 235.973 254.438 236.32C254.625 236.667 254.885 236.94 255.218 237.14C255.551 237.34 255.925 237.44 256.338 237.44ZM258.398 240V237.38L258.858 235.02L258.398 232.66V230.28H261.398V240H258.398ZM263.553 240V225.48H266.613V240H263.553ZM276.716 240.2C275.796 240.2 274.976 239.98 274.256 239.54C273.549 239.1 272.989 238.5 272.576 237.74C272.176 236.98 271.976 236.113 271.976 235.14C271.976 234.167 272.176 233.3 272.576 232.54C272.989 231.78 273.549 231.18 274.256 230.74C274.976 230.3 275.796 230.08 276.716 230.08C277.383 230.08 277.983 230.207 278.516 230.46C279.063 230.713 279.509 231.067 279.856 231.52C280.216 231.96 280.416 232.467 280.456 233.04V237.14C280.416 237.713 280.223 238.233 279.876 238.7C279.529 239.153 279.083 239.52 278.536 239.8C277.989 240.067 277.383 240.2 276.716 240.2ZM277.256 237.44C277.696 237.44 278.076 237.347 278.396 237.16C278.716 236.96 278.969 236.687 279.156 236.34C279.343 235.993 279.436 235.593 279.436 235.14C279.436 234.687 279.343 234.293 279.156 233.96C278.983 233.613 278.729 233.34 278.396 233.14C278.076 232.94 277.703 232.84 277.276 232.84C276.849 232.84 276.469 232.94 276.136 233.14C275.816 233.34 275.556 233.613 275.356 233.96C275.169 234.307 275.076 234.7 275.076 235.14C275.076 235.58 275.169 235.973 275.356 236.32C275.543 236.667 275.803 236.94 276.136 237.14C276.469 237.34 276.843 237.44 277.256 237.44ZM282.316 240H279.316V237.38L279.776 235.02L279.256 232.66V225.48H282.316V240ZM289.271 240.22C288.217 240.22 287.277 240.007 286.451 239.58C285.637 239.14 284.997 238.533 284.531 237.76C284.064 236.987 283.831 236.113 283.831 235.14C283.831 234.167 284.057 233.3 284.511 232.54C284.977 231.767 285.604 231.16 286.391 230.72C287.177 230.28 288.064 230.06 289.051 230.06C290.011 230.06 290.857 230.267 291.591 230.68C292.324 231.093 292.897 231.667 293.311 232.4C293.737 233.133 293.951 233.973 293.951 234.92C293.951 235.093 293.937 235.28 293.911 235.48C293.897 235.667 293.864 235.887 293.811 236.14L285.431 236.16V234.06L292.511 234.04L291.191 234.92C291.177 234.36 291.091 233.9 290.931 233.54C290.771 233.167 290.531 232.887 290.211 232.7C289.904 232.5 289.524 232.4 289.071 232.4C288.591 232.4 288.171 232.513 287.811 232.74C287.464 232.953 287.191 233.26 286.991 233.66C286.804 234.06 286.711 234.547 286.711 235.12C286.711 235.693 286.811 236.187 287.011 236.6C287.224 237 287.517 237.313 287.891 237.54C288.277 237.753 288.731 237.86 289.251 237.86C289.731 237.86 290.164 237.78 290.551 237.62C290.937 237.447 291.277 237.193 291.571 236.86L293.251 238.54C292.771 239.1 292.191 239.52 291.511 239.8C290.831 240.08 290.084 240.22 289.271 240.22Z" fill="#593188"/>
<rect x="131" y="45" width="253" height="20" rx="10" fill="white"/>
<path opacity="0.6" d="M145.252 59L143.072 53.1836H144.662L146.083 57.4104L145.601 57.4225L147.058 53.1836H148.202L149.659 57.4225L149.178 57.4104L150.599 53.1836H152.188L150.021 59H148.877L147.407 54.9779H147.853L146.384 59H145.252ZM155.441 59L153.261 53.1836H154.851L156.272 57.4104L155.79 57.4225L157.247 53.1836H158.391L159.848 57.4225L159.366 57.4104L160.787 53.1836H162.377L160.209 59H159.065L157.596 54.9779H158.042L156.573 59H155.441ZM165.629 59L163.45 53.1836H165.039L166.46 57.4104L165.979 57.4225L167.436 53.1836H168.58L170.037 57.4225L169.555 57.4104L170.976 53.1836H172.566L170.398 59H169.254L167.785 54.9779H168.231L166.761 59H165.629ZM175.266 59.1204C174.977 59.1204 174.74 59.0241 174.556 58.8314C174.371 58.6387 174.279 58.4019 174.279 58.1209C174.279 57.8399 174.371 57.6031 174.556 57.4104C174.74 57.2178 174.977 57.1214 175.266 57.1214C175.547 57.1214 175.78 57.2178 175.965 57.4104C176.149 57.6031 176.242 57.8399 176.242 58.1209C176.242 58.4019 176.149 58.6387 175.965 58.8314C175.78 59.0241 175.547 59.1204 175.266 59.1204ZM178.938 59V53.1836H180.516V59H178.938ZM182.732 59V55.568C182.732 55.2308 182.623 54.9699 182.406 54.7852C182.198 54.5926 181.937 54.4962 181.624 54.4962C181.415 54.4962 181.226 54.5404 181.058 54.6287C180.889 54.709 180.757 54.8294 180.66 54.99C180.564 55.1505 180.516 55.3432 180.516 55.568L179.902 55.2669C179.902 54.8174 179.998 54.428 180.191 54.0988C180.391 53.7697 180.66 53.5168 180.997 53.3402C181.335 53.1555 181.716 53.0632 182.141 53.0632C182.543 53.0632 182.908 53.1555 183.237 53.3402C183.566 53.5168 183.827 53.7697 184.02 54.0988C184.213 54.42 184.309 54.8093 184.309 55.2669V59H182.732ZM186.525 59V55.568C186.525 55.2308 186.416 54.9699 186.2 54.7852C185.991 54.5926 185.73 54.4962 185.417 54.4962C185.216 54.4962 185.028 54.5404 184.851 54.6287C184.682 54.709 184.55 54.8294 184.454 54.99C184.357 55.1505 184.309 55.3432 184.309 55.568L183.406 55.3512C183.438 54.8856 183.562 54.4842 183.779 54.147C183.996 53.8018 184.281 53.5369 184.634 53.3522C184.987 53.1595 185.381 53.0632 185.814 53.0632C186.248 53.0632 186.637 53.1555 186.982 53.3402C187.328 53.5168 187.601 53.7737 187.801 54.1109C188.002 54.4481 188.102 54.8495 188.102 55.3151V59H186.525ZM193.018 59.1204C192.488 59.1204 192.01 58.988 191.585 58.723C191.159 58.4581 190.826 58.0968 190.585 57.6392C190.344 57.1816 190.224 56.6678 190.224 56.0978C190.224 55.5198 190.344 55.002 190.585 54.5444C190.826 54.0868 191.159 53.7255 191.585 53.4606C192.01 53.1957 192.488 53.0632 193.018 53.0632C193.435 53.0632 193.809 53.1475 194.138 53.3161C194.467 53.4847 194.728 53.7215 194.92 54.0266C195.121 54.3236 195.23 54.6608 195.246 55.0381V57.1335C195.23 57.5188 195.121 57.86 194.92 58.157C194.728 58.4541 194.467 58.6909 194.138 58.8675C193.809 59.0361 193.435 59.1204 193.018 59.1204ZM193.307 57.6633C193.748 57.6633 194.106 57.5188 194.379 57.2298C194.652 56.9328 194.788 56.5514 194.788 56.0858C194.788 55.7807 194.724 55.5118 194.595 55.279C194.475 55.0381 194.302 54.8535 194.077 54.725C193.861 54.5886 193.604 54.5203 193.307 54.5203C193.018 54.5203 192.761 54.5886 192.536 54.725C192.319 54.8535 192.147 55.0381 192.018 55.279C191.898 55.5118 191.838 55.7807 191.838 56.0858C191.838 56.3989 191.898 56.6759 192.018 56.9167C192.147 57.1495 192.319 57.3342 192.536 57.4706C192.761 57.5991 193.018 57.6633 193.307 57.6633ZM194.704 59V57.4345L194.957 56.0135L194.704 54.6167V53.1836H196.269V59H194.704ZM198.869 56.6397V55.2067H203.036V56.6397H198.869ZM205.636 59V53.1836H207.213V59H205.636ZM207.213 55.7847L206.599 55.3753C206.671 54.6608 206.88 54.0988 207.225 53.6894C207.57 53.2719 208.068 53.0632 208.718 53.0632C208.999 53.0632 209.252 53.1114 209.477 53.2077C209.702 53.296 209.907 53.4445 210.091 53.6533L209.104 54.7852C209.015 54.6889 208.907 54.6167 208.779 54.5685C208.658 54.5203 208.518 54.4962 208.357 54.4962C208.02 54.4962 207.743 54.6046 207.526 54.8214C207.318 55.0301 207.213 55.3512 207.213 55.7847ZM214.467 59.1204C213.857 59.1204 213.315 58.992 212.841 58.7351C212.367 58.4701 211.99 58.1089 211.709 57.6513C211.436 57.1937 211.3 56.6718 211.3 56.0858C211.3 55.5078 211.432 54.994 211.697 54.5444C211.97 54.0868 212.339 53.7255 212.805 53.4606C213.27 53.1876 213.788 53.0512 214.358 53.0512C214.92 53.0512 215.414 53.1796 215.839 53.4365C216.273 53.6854 216.61 54.0306 216.851 54.4721C217.1 54.9057 217.224 55.3994 217.224 55.9533C217.224 56.0577 217.216 56.1661 217.2 56.2785C217.192 56.3828 217.172 56.5033 217.14 56.6397L212.251 56.6518V55.4716L216.405 55.4596L215.767 55.9533C215.751 55.6081 215.687 55.3191 215.575 55.0863C215.47 54.8535 215.314 54.6769 215.105 54.5564C214.904 54.428 214.655 54.3638 214.358 54.3638C214.045 54.3638 213.772 54.436 213.539 54.5805C213.307 54.717 213.126 54.9137 212.998 55.1706C212.877 55.4195 212.817 55.7165 212.817 56.0617C212.817 56.4149 212.881 56.724 213.01 56.989C213.146 57.2459 213.339 57.4466 213.588 57.5911C213.836 57.7275 214.125 57.7958 214.455 57.7958C214.752 57.7958 215.021 57.7476 215.261 57.6513C215.502 57.5469 215.711 57.3944 215.888 57.1937L216.815 58.1209C216.534 58.4501 216.189 58.6989 215.779 58.8675C215.378 59.0361 214.94 59.1204 214.467 59.1204ZM221.403 59.1325C221.074 59.1325 220.749 59.0883 220.428 59C220.115 58.9117 219.826 58.7913 219.561 58.6387C219.296 58.4782 219.067 58.2855 218.874 58.0607L219.814 57.1094C220.014 57.3342 220.247 57.5028 220.512 57.6152C220.777 57.7275 221.07 57.7837 221.391 57.7837C221.648 57.7837 221.841 57.7476 221.969 57.6754C222.106 57.6031 222.174 57.4947 222.174 57.3502C222.174 57.1897 222.102 57.0652 221.957 56.9769C221.821 56.8886 221.64 56.8164 221.415 56.7602C221.19 56.6959 220.954 56.6277 220.705 56.5554C220.464 56.4752 220.231 56.3748 220.006 56.2544C219.781 56.1259 219.597 55.9533 219.452 55.7366C219.316 55.5118 219.248 55.2228 219.248 54.8695C219.248 54.5002 219.336 54.1791 219.513 53.9062C219.697 53.6332 219.958 53.4205 220.295 53.2679C220.632 53.1154 221.03 53.0391 221.487 53.0391C221.969 53.0391 222.403 53.1234 222.788 53.292C223.181 53.4606 223.507 53.7135 223.763 54.0507L222.812 55.002C222.635 54.7852 222.435 54.6287 222.21 54.5324C221.993 54.436 221.756 54.3879 221.499 54.3879C221.267 54.3879 221.086 54.424 220.958 54.4962C220.837 54.5685 220.777 54.6688 220.777 54.7973C220.777 54.9418 220.845 55.0542 220.982 55.1345C221.126 55.2147 221.311 55.287 221.536 55.3512C221.76 55.4074 221.993 55.4757 222.234 55.5559C222.483 55.6282 222.716 55.7326 222.933 55.869C223.157 56.0055 223.338 56.1861 223.474 56.4109C223.619 56.6357 223.691 56.9247 223.691 57.278C223.691 57.848 223.486 58.3016 223.077 58.6387C222.668 58.9679 222.11 59.1325 221.403 59.1325ZM227.958 59.1325C227.629 59.1325 227.304 59.0883 226.983 59C226.67 58.9117 226.381 58.7913 226.116 58.6387C225.851 58.4782 225.622 58.2855 225.429 58.0607L226.369 57.1094C226.569 57.3342 226.802 57.5028 227.067 57.6152C227.332 57.7275 227.625 57.7837 227.946 57.7837C228.203 57.7837 228.396 57.7476 228.524 57.6754C228.661 57.6031 228.729 57.4947 228.729 57.3502C228.729 57.1897 228.657 57.0652 228.512 56.9769C228.376 56.8886 228.195 56.8164 227.97 56.7602C227.745 56.6959 227.509 56.6277 227.26 56.5554C227.019 56.4752 226.786 56.3748 226.561 56.2544C226.336 56.1259 226.152 55.9533 226.007 55.7366C225.871 55.5118 225.803 55.2228 225.803 54.8695C225.803 54.5002 225.891 54.1791 226.068 53.9062C226.252 53.6332 226.513 53.4205 226.85 53.2679C227.187 53.1154 227.585 53.0391 228.042 53.0391C228.524 53.0391 228.958 53.1234 229.343 53.292C229.736 53.4606 230.061 53.7135 230.318 54.0507L229.367 55.002C229.19 54.7852 228.99 54.6287 228.765 54.5324C228.548 54.436 228.311 54.3879 228.054 54.3879C227.822 54.3879 227.641 54.424 227.513 54.4962C227.392 54.5685 227.332 54.6688 227.332 54.7973C227.332 54.9418 227.4 55.0542 227.537 55.1345C227.681 55.2147 227.866 55.287 228.091 55.3512C228.315 55.4074 228.548 55.4757 228.789 55.5559C229.038 55.6282 229.271 55.7326 229.487 55.869C229.712 56.0055 229.893 56.1861 230.029 56.4109C230.174 56.6357 230.246 56.9247 230.246 57.278C230.246 57.848 230.041 58.3016 229.632 58.6387C229.223 58.9679 228.665 59.1325 227.958 59.1325ZM235.248 59.1204C234.662 59.1204 234.132 58.988 233.658 58.723C233.192 58.4501 232.819 58.0848 232.538 57.6272C232.265 57.1616 232.129 56.6437 232.129 56.0738C232.129 55.5038 232.265 54.994 232.538 54.5444C232.811 54.0868 233.184 53.7255 233.658 53.4606C234.132 53.1876 234.658 53.0512 235.236 53.0512C235.83 53.0512 236.36 53.1876 236.825 53.4606C237.299 53.7255 237.672 54.0868 237.945 54.5444C238.218 54.994 238.355 55.5038 238.355 56.0738C238.355 56.6437 238.218 57.1616 237.945 57.6272C237.672 58.0848 237.299 58.4501 236.825 58.723C236.36 58.988 235.834 59.1204 235.248 59.1204ZM235.236 57.6513C235.533 57.6513 235.794 57.5871 236.018 57.4586C236.251 57.3221 236.428 57.1375 236.548 56.9047C236.677 56.6638 236.741 56.3909 236.741 56.0858C236.741 55.7807 236.677 55.5118 236.548 55.279C236.42 55.0462 236.243 54.8655 236.018 54.7371C235.794 54.6006 235.533 54.5324 235.236 54.5324C234.947 54.5324 234.69 54.6006 234.465 54.7371C234.24 54.8655 234.064 55.0462 233.935 55.279C233.807 55.5118 233.742 55.7807 233.742 56.0858C233.742 56.3909 233.807 56.6638 233.935 56.9047C234.064 57.1375 234.24 57.3221 234.465 57.4586C234.69 57.5871 234.947 57.6513 235.236 57.6513ZM243.055 59.1204C242.541 59.1204 242.084 59.012 241.682 58.7953C241.289 58.5785 240.98 58.2775 240.755 57.8921C240.53 57.5068 240.418 57.0612 240.418 56.5554V53.1836H242.007V56.5193C242.007 56.7602 242.048 56.9689 242.128 57.1455C242.208 57.3141 242.329 57.4425 242.489 57.5309C242.65 57.6192 242.838 57.6633 243.055 57.6633C243.384 57.6633 243.641 57.563 243.826 57.3623C244.01 57.1616 244.103 56.8806 244.103 56.5193V53.1836H245.68V56.5554C245.68 57.0692 245.568 57.5188 245.343 57.9042C245.126 58.2895 244.817 58.5906 244.416 58.8073C244.022 59.0161 243.569 59.1204 243.055 59.1204ZM248.141 59V53.1836H249.718V59H248.141ZM249.718 55.7847L249.104 55.3753C249.176 54.6608 249.385 54.0988 249.73 53.6894C250.075 53.2719 250.573 53.0632 251.224 53.0632C251.504 53.0632 251.757 53.1114 251.982 53.2077C252.207 53.296 252.412 53.4445 252.596 53.6533L251.609 54.7852C251.521 54.6889 251.412 54.6167 251.284 54.5685C251.163 54.5203 251.023 54.4962 250.862 54.4962C250.525 54.4962 250.248 54.6046 250.031 54.8214C249.823 55.0301 249.718 55.3512 249.718 55.7847ZM256.936 59.1204C256.342 59.1204 255.808 58.988 255.334 58.723C254.86 58.4581 254.487 58.0968 254.214 57.6392C253.941 57.1816 253.805 56.6678 253.805 56.0978C253.805 55.5198 253.941 55.002 254.214 54.5444C254.487 54.0868 254.86 53.7255 255.334 53.4606C255.816 53.1876 256.35 53.0512 256.936 53.0512C257.393 53.0512 257.815 53.1355 258.2 53.3041C258.585 53.4726 258.919 53.7135 259.2 54.0266L258.188 55.0502C258.035 54.8816 257.851 54.7531 257.634 54.6648C257.425 54.5765 257.193 54.5324 256.936 54.5324C256.647 54.5324 256.386 54.6006 256.153 54.7371C255.928 54.8655 255.747 55.0462 255.611 55.279C255.483 55.5038 255.418 55.7727 255.418 56.0858C255.418 56.3909 255.483 56.6638 255.611 56.9047C255.747 57.1375 255.928 57.3221 256.153 57.4586C256.386 57.5871 256.647 57.6513 256.936 57.6513C257.201 57.6513 257.437 57.6071 257.646 57.5188C257.863 57.4225 258.048 57.286 258.2 57.1094L259.224 58.133C258.927 58.4541 258.585 58.6989 258.2 58.8675C257.815 59.0361 257.393 59.1204 256.936 59.1204ZM263.974 59.1204C263.363 59.1204 262.822 58.992 262.348 58.7351C261.874 58.4701 261.497 58.1089 261.216 57.6513C260.943 57.1937 260.807 56.6718 260.807 56.0858C260.807 55.5078 260.939 54.994 261.204 54.5444C261.477 54.0868 261.846 53.7255 262.312 53.4606C262.777 53.1876 263.295 53.0512 263.865 53.0512C264.427 53.0512 264.921 53.1796 265.346 53.4365C265.78 53.6854 266.117 54.0306 266.358 54.4721C266.607 54.9057 266.731 55.3994 266.731 55.9533C266.731 56.0577 266.723 56.1661 266.707 56.2785C266.699 56.3828 266.679 56.5033 266.647 56.6397L261.758 56.6518V55.4716L265.912 55.4596L265.274 55.9533C265.258 55.6081 265.194 55.3191 265.081 55.0863C264.977 54.8535 264.821 54.6769 264.612 54.5564C264.411 54.428 264.162 54.3638 263.865 54.3638C263.552 54.3638 263.279 54.436 263.046 54.5805C262.814 54.717 262.633 54.9137 262.504 55.1706C262.384 55.4195 262.324 55.7165 262.324 56.0617C262.324 56.4149 262.388 56.724 262.517 56.989C262.653 57.2459 262.846 57.4466 263.095 57.5911C263.343 57.7275 263.632 57.7958 263.962 57.7958C264.259 57.7958 264.528 57.7476 264.768 57.6513C265.009 57.5469 265.218 57.3944 265.395 57.1937L266.322 58.1209C266.041 58.4501 265.696 58.6989 265.286 58.8675C264.885 59.0361 264.447 59.1204 263.974 59.1204ZM269.995 59.1204C269.706 59.1204 269.469 59.0241 269.284 58.8314C269.1 58.6387 269.007 58.4019 269.007 58.1209C269.007 57.8399 269.1 57.6031 269.284 57.4104C269.469 57.2178 269.706 57.1214 269.995 57.1214C270.276 57.1214 270.509 57.2178 270.693 57.4104C270.878 57.6031 270.97 57.8399 270.97 58.1209C270.97 58.4019 270.878 58.6387 270.693 58.8314C270.509 59.0241 270.276 59.1204 269.995 59.1204ZM274.061 59V52.5574C274.061 52.0918 274.162 51.6824 274.362 51.3291C274.563 50.9679 274.848 50.6829 275.217 50.4741C275.587 50.2654 276.02 50.1611 276.518 50.1611C276.895 50.1611 277.22 50.2253 277.493 50.3537C277.766 50.4822 278.011 50.6588 278.228 50.8836L277.228 51.8951C277.14 51.8068 277.044 51.7386 276.939 51.6904C276.835 51.6422 276.702 51.6182 276.542 51.6182C276.253 51.6182 276.028 51.6984 275.868 51.859C275.715 52.0115 275.639 52.2323 275.639 52.5213V59H274.061ZM272.712 54.5685V53.1836H277.361V54.5685H272.712ZM279.328 59V53.1836H280.906V59H279.328ZM280.906 55.7847L280.291 55.3753C280.364 54.6608 280.572 54.0988 280.918 53.6894C281.263 53.2719 281.761 53.0632 282.411 53.0632C282.692 53.0632 282.945 53.1114 283.169 53.2077C283.394 53.296 283.599 53.4445 283.784 53.6533L282.796 54.7852C282.708 54.6889 282.599 54.6167 282.471 54.5685C282.351 54.5203 282.21 54.4962 282.05 54.4962C281.712 54.4962 281.435 54.6046 281.219 54.8214C281.01 55.0301 280.906 55.3512 280.906 55.7847Z" fill="#010003"/>
<g opacity="0.45">
<circle cx="361" cy="139" r="13" fill="url(#paint3_linear_7394_249)"/>
<path d="M331.201 190.183L304 214.34V239H439V197.732L403 161.5L356.388 208.804L331.201 190.183Z" fill="url(#paint4_linear_7394_249)"/>
</g>
<g filter="url(#filter1_d_7394_249)">
<rect x="64" y="201" width="345" height="45" rx="3.52162" fill="url(#paint5_linear_7394_249)"/>
</g>
<path d="M87.4437 234.014C86.0163 234.014 84.7485 233.714 83.6404 233.113C82.5323 232.493 81.6495 231.648 80.9921 230.577C80.3535 229.506 80.0343 228.286 80.0343 226.915C80.0343 225.562 80.3442 224.36 80.964 223.308C81.6025 222.238 82.4665 221.393 83.5559 220.773C84.6452 220.134 85.8567 219.815 87.1902 219.815C88.5049 219.815 89.66 220.116 90.6554 220.717C91.6697 221.299 92.4585 222.106 93.022 223.139C93.6042 224.154 93.8953 225.309 93.8953 226.605C93.8953 226.849 93.8766 227.102 93.839 227.365C93.8202 227.61 93.7733 227.891 93.6981 228.211L82.2599 228.239V225.478L91.9796 225.45L90.4864 226.605C90.4488 225.797 90.2986 225.121 90.0356 224.576C89.7915 224.032 89.4252 223.618 88.9369 223.337C88.4673 223.036 87.8851 222.886 87.1902 222.886C86.4577 222.886 85.8191 223.055 85.2744 223.393C84.7297 223.712 84.3071 224.172 84.0066 224.773C83.7249 225.356 83.584 226.051 83.584 226.858C83.584 227.685 83.7343 228.408 84.0348 229.028C84.3541 229.629 84.8049 230.098 85.3871 230.436C85.9694 230.755 86.6455 230.915 87.4156 230.915C88.1105 230.915 88.7397 230.802 89.3031 230.577C89.8666 230.333 90.3549 229.976 90.7681 229.506L92.9375 231.676C92.2801 232.446 91.4725 233.028 90.5146 233.423C89.5755 233.817 88.5519 234.014 87.4437 234.014ZM100.854 234.042C100.084 234.042 99.3238 233.939 98.5725 233.732C97.84 233.526 97.1638 233.244 96.544 232.887C95.9242 232.512 95.3889 232.061 94.9382 231.535L97.1357 229.309C97.6052 229.835 98.1499 230.23 98.7697 230.493C99.3895 230.755 100.075 230.887 100.826 230.887C101.427 230.887 101.878 230.802 102.179 230.633C102.498 230.464 102.658 230.211 102.658 229.873C102.658 229.497 102.489 229.206 102.15 228.999C101.831 228.793 101.409 228.624 100.883 228.492C100.357 228.342 99.8027 228.182 99.2205 228.013C98.657 227.825 98.1123 227.591 97.5864 227.309C97.0605 227.008 96.6285 226.605 96.2905 226.098C95.9712 225.572 95.8115 224.896 95.8115 224.069C95.8115 223.205 96.0181 222.454 96.4313 221.815C96.8633 221.177 97.4737 220.679 98.2626 220.322C99.0514 219.965 99.9811 219.787 101.052 219.787C102.179 219.787 103.193 219.984 104.094 220.378C105.015 220.773 105.775 221.365 106.376 222.153L104.151 224.379C103.738 223.872 103.268 223.506 102.742 223.28C102.235 223.055 101.681 222.942 101.08 222.942C100.535 222.942 100.113 223.027 99.8121 223.196C99.5304 223.365 99.3895 223.6 99.3895 223.9C99.3895 224.238 99.5491 224.501 99.8684 224.689C100.207 224.877 100.638 225.046 101.164 225.196C101.69 225.327 102.235 225.487 102.798 225.675C103.381 225.844 103.925 226.088 104.432 226.407C104.958 226.727 105.381 227.149 105.7 227.675C106.038 228.201 106.207 228.877 106.207 229.704C106.207 231.037 105.728 232.098 104.771 232.887C103.813 233.657 102.507 234.042 100.854 234.042ZM110.696 233.732V214.462H114.387V233.732H110.696ZM107.513 223.365V220.125H117.57V223.365H107.513ZM130.952 234.014C129.75 234.014 128.68 233.761 127.74 233.253C126.82 232.746 126.097 232.042 125.571 231.141C125.045 230.239 124.782 229.197 124.782 228.013V220.125H128.501V227.929C128.501 228.492 128.595 228.981 128.783 229.394C128.971 229.788 129.252 230.089 129.628 230.295C130.004 230.502 130.445 230.605 130.952 230.605C131.722 230.605 132.323 230.37 132.755 229.901C133.187 229.431 133.403 228.774 133.403 227.929V220.125H137.094V228.013C137.094 229.215 136.831 230.267 136.305 231.169C135.798 232.07 135.075 232.775 134.136 233.282C133.215 233.77 132.154 234.014 130.952 234.014ZM149.189 233.732V225.929C149.189 225.121 148.936 224.464 148.428 223.956C147.921 223.449 147.264 223.196 146.456 223.196C145.93 223.196 145.461 223.308 145.048 223.534C144.634 223.759 144.306 224.078 144.062 224.492C143.836 224.905 143.724 225.384 143.724 225.929L142.287 225.196C142.287 224.125 142.512 223.196 142.963 222.407C143.432 221.599 144.071 220.97 144.879 220.519C145.705 220.069 146.635 219.843 147.668 219.843C148.663 219.843 149.555 220.097 150.344 220.604C151.133 221.092 151.753 221.74 152.204 222.548C152.654 223.337 152.88 224.191 152.88 225.112V233.732H149.189ZM140.033 233.732V220.125H143.724V233.732H140.033ZM163.355 233.732V214.462H167.046V233.732H163.355ZM160.172 223.365V220.125H170.23V223.365H160.172ZM178.483 234.014C177.056 234.014 175.788 233.714 174.68 233.113C173.572 232.493 172.689 231.648 172.031 230.577C171.393 229.506 171.074 228.286 171.074 226.915C171.074 225.562 171.383 224.36 172.003 223.308C172.642 222.238 173.506 221.393 174.595 220.773C175.684 220.134 176.896 219.815 178.229 219.815C179.544 219.815 180.699 220.116 181.695 220.717C182.709 221.299 183.498 222.106 184.061 223.139C184.643 224.154 184.935 225.309 184.935 226.605C184.935 226.849 184.916 227.102 184.878 227.365C184.859 227.61 184.813 227.891 184.737 228.211L173.299 228.239V225.478L183.019 225.45L181.526 226.605C181.488 225.797 181.338 225.121 181.075 224.576C180.831 224.032 180.464 223.618 179.976 223.337C179.507 223.036 178.924 222.886 178.229 222.886C177.497 222.886 176.858 223.055 176.314 223.393C175.769 223.712 175.346 224.172 175.046 224.773C174.764 225.356 174.623 226.051 174.623 226.858C174.623 227.685 174.774 228.408 175.074 229.028C175.393 229.629 175.844 230.098 176.426 230.436C177.009 230.755 177.685 230.915 178.455 230.915C179.15 230.915 179.779 230.802 180.342 230.577C180.906 230.333 181.394 229.976 181.807 229.506L183.977 231.676C183.319 232.446 182.512 233.028 181.554 233.423C180.615 233.817 179.591 234.014 178.483 234.014ZM195.368 233.732L191.79 228.211L191.029 227.647L185.732 220.125H190.099L193.395 225.112L194.1 225.647L199.706 233.732H195.368ZM185.451 233.732L191.001 225.957L193.114 228.464L189.62 233.732H185.451ZM194.241 227.619L192.071 225.14L195.311 220.125H199.453L194.241 227.619ZM203.194 233.732V214.462H206.884V233.732H203.194ZM200.01 223.365V220.125H210.068V223.365H200.01ZM218.321 234.014C216.894 234.014 215.626 233.714 214.518 233.113C213.41 232.493 212.527 231.648 211.87 230.577C211.231 229.506 210.912 228.286 210.912 226.915C210.912 225.562 211.222 224.36 211.841 223.308C212.48 222.238 213.344 221.393 214.433 220.773C215.523 220.134 216.734 219.815 218.068 219.815C219.382 219.815 220.538 220.116 221.533 220.717C222.547 221.299 223.336 222.106 223.9 223.139C224.482 224.154 224.773 225.309 224.773 226.605C224.773 226.849 224.754 227.102 224.717 227.365C224.698 227.61 224.651 227.891 224.576 228.211L213.137 228.239V225.478L222.857 225.45L221.364 226.605C221.326 225.797 221.176 225.121 220.913 224.576C220.669 224.032 220.303 223.618 219.814 223.337C219.345 223.036 218.763 222.886 218.068 222.886C217.335 222.886 216.697 223.055 216.152 223.393C215.607 223.712 215.185 224.172 214.884 224.773C214.602 225.356 214.462 226.051 214.462 226.858C214.462 227.685 214.612 228.408 214.912 229.028C215.232 229.629 215.682 230.098 216.265 230.436C216.847 230.755 217.523 230.915 218.293 230.915C218.988 230.915 219.617 230.802 220.181 230.577C220.744 230.333 221.232 229.976 221.646 229.506L223.815 231.676C223.158 232.446 222.35 233.028 221.392 233.423C220.453 233.817 219.429 234.014 218.321 234.014ZM234.361 233.732V218.66C234.361 217.571 234.596 216.613 235.065 215.786C235.535 214.941 236.202 214.274 237.066 213.786C237.929 213.298 238.944 213.053 240.108 213.053C240.991 213.053 241.752 213.204 242.39 213.504C243.029 213.805 243.602 214.218 244.109 214.744L241.77 217.11C241.564 216.904 241.338 216.744 241.094 216.631C240.85 216.519 240.54 216.462 240.165 216.462C239.488 216.462 238.962 216.65 238.587 217.026C238.23 217.383 238.052 217.899 238.052 218.575V233.732H234.361ZM231.206 223.365V220.125H242.08V223.365H231.206ZM250.123 234.014C248.752 234.014 247.513 233.704 246.404 233.084C245.315 232.446 244.442 231.591 243.784 230.521C243.146 229.431 242.826 228.22 242.826 226.886C242.826 225.553 243.146 224.36 243.784 223.308C244.423 222.238 245.296 221.393 246.404 220.773C247.513 220.134 248.743 219.815 250.095 219.815C251.485 219.815 252.725 220.134 253.814 220.773C254.922 221.393 255.795 222.238 256.434 223.308C257.073 224.36 257.392 225.553 257.392 226.886C257.392 228.22 257.073 229.431 256.434 230.521C255.795 231.591 254.922 232.446 253.814 233.084C252.725 233.704 251.494 234.014 250.123 234.014ZM250.095 230.577C250.79 230.577 251.4 230.427 251.926 230.126C252.471 229.807 252.884 229.375 253.166 228.83C253.466 228.267 253.617 227.628 253.617 226.915C253.617 226.201 253.466 225.572 253.166 225.027C252.865 224.482 252.452 224.06 251.926 223.759C251.4 223.44 250.79 223.28 250.095 223.28C249.419 223.28 248.818 223.44 248.292 223.759C247.766 224.06 247.353 224.482 247.052 225.027C246.752 225.572 246.602 226.201 246.602 226.915C246.602 227.628 246.752 228.267 247.052 228.83C247.353 229.375 247.766 229.807 248.292 230.126C248.818 230.427 249.419 230.577 250.095 230.577ZM268.924 233.732V225.929C268.924 225.121 268.67 224.464 268.163 223.956C267.656 223.449 266.999 223.196 266.191 223.196C265.665 223.196 265.196 223.308 264.783 223.534C264.369 223.759 264.041 224.078 263.797 224.492C263.571 224.905 263.458 225.384 263.458 225.929L262.022 225.196C262.022 224.125 262.247 223.196 262.698 222.407C263.167 221.599 263.806 220.97 264.614 220.519C265.44 220.069 266.37 219.843 267.403 219.843C268.398 219.843 269.29 220.097 270.079 220.604C270.868 221.092 271.488 221.74 271.939 222.548C272.389 223.337 272.615 224.191 272.615 225.112V233.732H268.924ZM259.768 233.732V220.125H263.458V233.732H259.768ZM281.335 234.014C280.076 234.014 278.95 233.704 277.954 233.084C276.959 232.465 276.17 231.619 275.588 230.549C275.024 229.478 274.742 228.276 274.742 226.943C274.742 225.59 275.024 224.379 275.588 223.308C276.17 222.238 276.949 221.393 277.926 220.773C278.921 220.153 280.058 219.843 281.335 219.843C282.312 219.843 283.185 220.04 283.955 220.435C284.744 220.829 285.373 221.383 285.843 222.097C286.331 222.792 286.594 223.581 286.631 224.464V229.309C286.594 230.192 286.34 230.99 285.871 231.704C285.401 232.418 284.772 232.981 283.983 233.394C283.194 233.808 282.312 234.014 281.335 234.014ZM281.955 230.605C282.65 230.605 283.251 230.455 283.758 230.154C284.284 229.835 284.687 229.403 284.969 228.859C285.27 228.295 285.42 227.647 285.42 226.915C285.42 226.201 285.27 225.572 284.969 225.027C284.687 224.464 284.284 224.032 283.758 223.731C283.251 223.412 282.659 223.252 281.983 223.252C281.288 223.252 280.677 223.412 280.152 223.731C279.644 224.05 279.241 224.482 278.94 225.027C278.658 225.572 278.518 226.201 278.518 226.915C278.518 227.647 278.658 228.295 278.94 228.859C279.241 229.403 279.654 229.835 280.18 230.154C280.706 230.455 281.297 230.605 281.955 230.605ZM288.885 233.732H285.223V230.07L285.814 226.746L285.195 223.477V213.363H288.885V233.732ZM297.841 234.014C296.601 234.014 295.484 233.704 294.489 233.084C293.493 232.465 292.714 231.619 292.15 230.549C291.587 229.478 291.305 228.276 291.305 226.943C291.305 225.59 291.587 224.379 292.15 223.308C292.714 222.238 293.493 221.393 294.489 220.773C295.484 220.153 296.601 219.843 297.841 219.843C298.818 219.843 299.691 220.04 300.461 220.435C301.231 220.829 301.842 221.383 302.292 222.097C302.762 222.792 303.016 223.581 303.053 224.464V229.366C303.016 230.267 302.762 231.065 302.292 231.76C301.842 232.455 301.231 233.009 300.461 233.423C299.691 233.817 298.818 234.014 297.841 234.014ZM298.517 230.605C299.55 230.605 300.386 230.267 301.025 229.591C301.663 228.896 301.983 228.004 301.983 226.915C301.983 226.201 301.832 225.572 301.532 225.027C301.25 224.464 300.846 224.032 300.32 223.731C299.813 223.412 299.212 223.252 298.517 223.252C297.841 223.252 297.24 223.412 296.714 223.731C296.207 224.032 295.803 224.464 295.503 225.027C295.221 225.572 295.08 226.201 295.08 226.915C295.08 227.647 295.221 228.295 295.503 228.859C295.803 229.403 296.207 229.835 296.714 230.154C297.24 230.455 297.841 230.605 298.517 230.605ZM301.785 233.732V230.07L302.377 226.746L301.785 223.477V220.125H305.448V233.732H301.785ZM308.713 233.732V220.125H312.403V233.732H308.713ZM317.587 233.732V225.703C317.587 224.914 317.334 224.304 316.827 223.872C316.338 223.421 315.728 223.196 314.995 223.196C314.507 223.196 314.066 223.299 313.671 223.506C313.277 223.693 312.967 223.975 312.742 224.351C312.516 224.726 312.403 225.177 312.403 225.703L310.967 224.999C310.967 223.947 311.192 223.036 311.643 222.266C312.112 221.496 312.742 220.904 313.53 220.491C314.319 220.059 315.211 219.843 316.207 219.843C317.146 219.843 318 220.059 318.771 220.491C319.541 220.904 320.151 221.496 320.602 222.266C321.053 223.017 321.278 223.928 321.278 224.999V233.732H317.587ZM326.462 233.732V225.703C326.462 224.914 326.208 224.304 325.701 223.872C325.213 223.421 324.602 223.196 323.87 223.196C323.4 223.196 322.959 223.299 322.546 223.506C322.151 223.693 321.841 223.975 321.616 224.351C321.391 224.726 321.278 225.177 321.278 225.703L319.165 225.196C319.24 224.107 319.531 223.168 320.038 222.379C320.545 221.571 321.212 220.951 322.039 220.519C322.865 220.069 323.785 219.843 324.8 219.843C325.814 219.843 326.725 220.059 327.532 220.491C328.34 220.904 328.979 221.505 329.448 222.294C329.918 223.083 330.152 224.022 330.152 225.112V233.732H326.462ZM339.652 234.014C338.224 234.014 336.957 233.714 335.849 233.113C334.74 232.493 333.858 231.648 333.2 230.577C332.562 229.506 332.242 228.286 332.242 226.915C332.242 225.562 332.552 224.36 333.172 223.308C333.811 222.238 334.675 221.393 335.764 220.773C336.853 220.134 338.065 219.815 339.398 219.815C340.713 219.815 341.868 220.116 342.864 220.717C343.878 221.299 344.667 222.106 345.23 223.139C345.812 224.154 346.104 225.309 346.104 226.605C346.104 226.849 346.085 227.102 346.047 227.365C346.028 227.61 345.981 227.891 345.906 228.211L334.468 228.239V225.478L344.188 225.45L342.695 226.605C342.657 225.797 342.507 225.121 342.244 224.576C342 224.032 341.633 223.618 341.145 223.337C340.676 223.036 340.093 222.886 339.398 222.886C338.666 222.886 338.027 223.055 337.483 223.393C336.938 223.712 336.515 224.172 336.215 224.773C335.933 225.356 335.792 226.051 335.792 226.858C335.792 227.685 335.942 228.408 336.243 229.028C336.562 229.629 337.013 230.098 337.595 230.436C338.178 230.755 338.854 230.915 339.624 230.915C340.319 230.915 340.948 230.802 341.511 230.577C342.075 230.333 342.563 229.976 342.976 229.506L345.146 231.676C344.488 232.446 343.681 233.028 342.723 233.423C341.784 233.817 340.76 234.014 339.652 234.014ZM357.542 233.732V225.929C357.542 225.121 357.289 224.464 356.782 223.956C356.274 223.449 355.617 223.196 354.809 223.196C354.284 223.196 353.814 223.308 353.401 223.534C352.988 223.759 352.659 224.078 352.415 224.492C352.189 224.905 352.077 225.384 352.077 225.929L350.64 225.196C350.64 224.125 350.865 223.196 351.316 222.407C351.786 221.599 352.424 220.97 353.232 220.519C354.058 220.069 354.988 219.843 356.021 219.843C357.016 219.843 357.908 220.097 358.697 220.604C359.486 221.092 360.106 221.74 360.557 222.548C361.007 223.337 361.233 224.191 361.233 225.112V233.732H357.542ZM348.386 233.732V220.125H352.077V233.732H348.386ZM366.041 233.732V214.462H369.732V233.732H366.041ZM362.857 223.365V220.125H372.915V223.365H362.857ZM380.351 234.014C379.112 234.014 377.994 233.704 376.999 233.084C376.003 232.465 375.224 231.619 374.661 230.549C374.097 229.478 373.815 228.276 373.815 226.943C373.815 225.59 374.097 224.379 374.661 223.308C375.224 222.238 376.003 221.393 376.999 220.773C377.994 220.153 379.112 219.843 380.351 219.843C381.328 219.843 382.201 220.04 382.972 220.435C383.742 220.829 384.352 221.383 384.803 222.097C385.272 222.792 385.526 223.581 385.563 224.464V229.366C385.526 230.267 385.272 231.065 384.803 231.76C384.352 232.455 383.742 233.009 382.972 233.423C382.201 233.817 381.328 234.014 380.351 234.014ZM381.028 230.605C382.061 230.605 382.896 230.267 383.535 229.591C384.174 228.896 384.493 228.004 384.493 226.915C384.493 226.201 384.343 225.572 384.042 225.027C383.76 224.464 383.357 224.032 382.831 223.731C382.324 223.412 381.723 223.252 381.028 223.252C380.351 223.252 379.75 223.412 379.225 223.731C378.717 224.032 378.314 224.464 378.013 225.027C377.731 225.572 377.591 226.201 377.591 226.915C377.591 227.647 377.731 228.295 378.013 228.859C378.314 229.403 378.717 229.835 379.225 230.154C379.75 230.455 380.351 230.605 381.028 230.605ZM384.296 233.732V230.07L384.887 226.746L384.296 223.477V220.125H387.958V233.732H384.296ZM391.223 233.732V213.363H394.914V233.732H391.223Z" fill="white"/>
<g filter="url(#filter2_d_7394_249)">
<path d="M394 88C394 80.8203 399.539 75 406.371 75L499.629 75C506.461 75 512 80.8203 512 88V160C512 167.18 506.461 173 499.629 173H406.371C399.539 173 394 167.18 394 160V88Z" fill="white"/>
<path d="M424.805 173H464.773L430.5 193.58C427.962 195.104 424.805 193.179 424.805 190.107V173Z" fill="white"/>
<path d="M469.959 147.482C469.597 147.485 469.237 147.411 468.902 147.266C468.567 147.121 468.262 146.908 468.006 146.638C467.751 146.371 467.548 146.053 467.409 145.703C467.271 145.354 467.2 144.979 467.2 144.6C467.2 144.221 467.271 143.846 467.409 143.497C467.548 143.147 467.751 142.829 468.006 142.562C469.79 140.69 471.206 138.467 472.172 136.021C473.137 133.574 473.634 130.952 473.634 128.304C473.634 125.656 473.137 123.034 472.172 120.587C471.206 118.141 469.79 115.918 468.006 114.046C467.751 113.779 467.548 113.461 467.409 113.111C467.271 112.762 467.2 112.387 467.2 112.008C467.2 111.629 467.271 111.254 467.409 110.905C467.548 110.555 467.751 110.237 468.006 109.97C468.262 109.7 468.566 109.485 468.902 109.339C469.237 109.193 469.596 109.117 469.959 109.117C470.322 109.117 470.681 109.193 471.017 109.339C471.352 109.485 471.656 109.7 471.912 109.97C474.216 112.37 476.043 115.227 477.287 118.374C478.53 121.521 479.166 124.897 479.157 128.304C479.165 131.711 478.529 135.086 477.285 138.233C476.04 141.379 474.213 144.235 471.909 146.635C471.652 146.904 471.348 147.117 471.013 147.262C470.677 147.406 470.318 147.48 469.956 147.479L469.959 147.482ZM460.195 142.046C459.832 142.049 459.473 141.975 459.137 141.83C458.802 141.685 458.498 141.472 458.242 141.202C457.986 140.935 457.784 140.617 457.645 140.267C457.507 139.918 457.436 139.543 457.436 139.164C457.436 138.785 457.507 138.41 457.645 138.061C457.784 137.711 457.986 137.393 458.242 137.126C460.472 134.785 461.724 131.611 461.724 128.301C461.724 124.99 460.472 121.816 458.242 119.475C457.986 119.208 457.784 118.89 457.645 118.541C457.507 118.191 457.436 117.816 457.436 117.437C457.436 117.058 457.507 116.683 457.645 116.334C457.784 115.984 457.986 115.666 458.242 115.399C458.498 115.129 458.802 114.914 459.137 114.768C459.472 114.622 459.832 114.546 460.195 114.546C460.558 114.546 460.917 114.622 461.252 114.768C461.587 114.914 461.892 115.129 462.148 115.399C463.762 117.093 465.043 119.104 465.916 121.318C466.79 123.532 467.24 125.904 467.24 128.301C467.24 130.697 466.79 133.069 465.916 135.283C465.043 137.497 463.762 139.508 462.148 141.202C461.891 141.471 461.587 141.684 461.252 141.829C460.916 141.974 460.557 142.048 460.195 142.046Z" fill="url(#paint6_linear_7394_249)"/>
<path d="M449.828 152.608C449.341 152.609 448.873 152.408 448.526 152.048L434.404 137.237L427.829 137.237C427.344 137.236 426.88 137.033 426.537 136.673C426.194 136.313 426.001 135.825 426 135.316L426 116.101C426.002 115.592 426.195 115.105 426.538 114.746C426.881 114.387 427.345 114.185 427.829 114.184L434.404 114.184L448.533 99.3725C448.789 99.1034 449.116 98.9204 449.472 98.8468C449.828 98.7732 450.197 98.8123 450.531 98.9591C450.866 99.1044 451.153 99.3508 451.354 99.667C451.556 99.9833 451.664 100.355 451.664 100.736L451.664 150.688C451.661 151.067 451.552 151.436 451.35 151.75C451.148 152.064 450.862 152.308 450.528 152.451C450.307 152.552 450.069 152.605 449.828 152.608Z" fill="url(#paint7_linear_7394_249)"/>
</g>
<defs>
<filter id="filter0_d_7394_249" x="76.2465" y="0.424191" width="427.556" height="387.152" filterUnits="userSpaceOnUse" color-interpolation-filters="sRGB">
<feFlood flood-opacity="0" result="BackgroundImageFix"/>
<feColorMatrix in="SourceAlpha" type="matrix" values="0 0 0 0 0 0 0 0 0 0 0 0 0 0 0 0 0 0 127 0" result="hardAlpha"/>
<feOffset/>
<feGaussianBlur stdDeviation="16.7879"/>
<feComposite in2="hardAlpha" operator="out"/>
<feColorMatrix type="matrix" values="0 0 0 0 0 0 0 0 0 0 0 0 0 0 0 0 0 0 0.25 0"/>
<feBlend mode="normal" in2="BackgroundImageFix" result="effect1_dropShadow_7394_249"/>
<feBlend mode="normal" in="SourceGraphic" in2="effect1_dropShadow_7394_249" result="shape"/>
</filter>
<filter id="filter1_d_7394_249" x="52.9656" y="191.139" width="367.069" height="67.0688" filterUnits="userSpaceOnUse" color-interpolation-filters="sRGB">
<feFlood flood-opacity="0" result="BackgroundImageFix"/>
<feColorMatrix in="SourceAlpha" type="matrix" values="0 0 0 0 0 0 0 0 0 0 0 0 0 0 0 0 0 0 127 0" result="hardAlpha"/>
<feOffset dy="1.17387"/>
<feGaussianBlur stdDeviation="5.5172"/>
<feComposite in2="hardAlpha" operator="out"/>
<feColorMatrix type="matrix" values="0 0 0 0 0 0 0 0 0 0 0 0 0 0 0 0 0 0 0.15 0"/>
<feBlend mode="normal" in2="BackgroundImageFix" result="effect1_dropShadow_7394_249"/>
<feBlend mode="normal" in="SourceGraphic" in2="effect1_dropShadow_7394_249" result="shape"/>
</filter>
<filter id="filter2_d_7394_249" x="364.214" y="45.2144" width="177.571" height="178.684" filterUnits="userSpaceOnUse" color-interpolation-filters="sRGB">
<feFlood flood-opacity="0" result="BackgroundImageFix"/>
<feColorMatrix in="SourceAlpha" type="matrix" values="0 0 0 0 0 0 0 0 0 0 0 0 0 0 0 0 0 0 127 0" result="hardAlpha"/>
<feOffset/>
<feGaussianBlur stdDeviation="14.8928"/>
<feComposite in2="hardAlpha" operator="out"/>
<feColorMatrix type="matrix" values="0 0 0 0 0 0 0 0 0 0 0 0 0 0 0 0 0 0 0.25 0"/>
<feBlend mode="normal" in2="BackgroundImageFix" result="effect1_dropShadow_7394_249"/>
<feBlend mode="normal" in="SourceGraphic" in2="effect1_dropShadow_7394_249" result="shape"/>
</filter>
<linearGradient id="paint0_linear_7394_249" x1="178.524" y1="38.7432" x2="195.926" y2="150.461" gradientUnits="userSpaceOnUse">
<stop stop-color="#44276E"/>
<stop offset="1" stop-color="#733C8F"/>
</linearGradient>
<linearGradient id="paint1_linear_7394_249" x1="330.45" y1="118.529" x2="505.364" y2="251.974" gradientUnits="userSpaceOnUse">
<stop stop-color="#44276E"/>
<stop offset="1" stop-color="#733C8F"/>
</linearGradient>
<linearGradient id="paint2_linear_7394_249" x1="203.566" y1="269.042" x2="240.531" y2="412.829" gradientUnits="userSpaceOnUse">
<stop stop-color="#44276E"/>
<stop offset="1" stop-color="#733C8F"/>
</linearGradient>
<linearGradient id="paint3_linear_7394_249" x1="352.956" y1="128.879" x2="386.455" y2="154.437" gradientUnits="userSpaceOnUse">
<stop stop-color="#44276E"/>
<stop offset="1" stop-color="#733C8F"/>
</linearGradient>
<linearGradient id="paint4_linear_7394_249" x1="329.734" y1="170.083" x2="429.216" y2="302.289" gradientUnits="userSpaceOnUse">
<stop stop-color="#44276E"/>
<stop offset="1" stop-color="#733C8F"/>
</linearGradient>
<linearGradient id="paint5_linear_7394_249" x1="129.766" y1="205.984" x2="149.737" y2="322.799" gradientUnits="userSpaceOnUse">
<stop stop-color="#44276E"/>
<stop offset="1" stop-color="#733C8F"/>
</linearGradient>
<linearGradient id="paint6_linear_7394_249" x1="461.576" y1="113.366" x2="498.89" y2="129.484" gradientUnits="userSpaceOnUse">
<stop stop-color="#44276E"/>
<stop offset="1" stop-color="#733C8F"/>
</linearGradient>
<linearGradient id="paint7_linear_7394_249" x1="430.892" y1="104.769" x2="477.086" y2="121.581" gradientUnits="userSpaceOnUse">
<stop stop-color="#44276E"/>
<stop offset="1" stop-color="#733C8F"/>
</linearGradient>
</defs>
</svg>
