<svg width="522" height="384" viewBox="0 0 522 384" fill="none" xmlns="http://www.w3.org/2000/svg">
<g filter="url(#filter0_d_7394_216)">
<rect x="129" y="32" width="361" height="320.529" rx="14.3966" fill="white"/>
</g>
<path opacity="0.5" d="M129 46.3966C129 38.4456 135.446 32 143.397 32L475.603 32C483.554 32 490 38.4456 490 46.3966V74.8991H129V46.3966Z" fill="url(#paint0_linear_7394_216)"/>
<circle cx="422.414" cy="53.4495" r="6.07063" fill="white"/>
<circle cx="441.031" cy="53.4495" r="6.07063" fill="white"/>
<circle cx="459.648" cy="53.4495" r="6.07063" fill="white"/>
<rect opacity="0.5" x="324.069" y="101.609" width="135.982" height="135.982" fill="url(#paint1_linear_7394_216)"/>
<rect opacity="0.5" x="160" y="261" width="300" height="58" fill="url(#paint2_linear_7394_216)"/>
<g filter="url(#filter1_d_7394_216)">
<path d="M148 132.68C148 125.5 142.461 119.68 135.629 119.68L42.371 119.68C35.5387 119.68 30 125.5 30 132.68V204.68C30 211.859 35.5387 217.68 42.371 217.68H135.629C142.461 217.68 148 211.859 148 204.68V132.68Z" fill="white"/>
<path d="M117.195 217.68H77.2272L111.5 238.26C114.038 239.784 117.195 237.858 117.195 234.787L117.195 217.68Z" fill="white"/>
<path fill-rule="evenodd" clip-rule="evenodd" d="M57.2559 145.011C57.2559 143.327 58.6204 141.963 60.3036 141.963H117.444C119.128 141.963 120.492 143.327 120.492 145.011C120.492 146.694 119.128 148.058 117.444 148.058H60.3036C58.6204 148.058 57.2559 146.694 57.2559 145.011ZM101.877 175.489C101.877 173.806 103.241 172.441 104.925 172.441H117.188C118.871 172.441 120.236 173.806 120.236 175.489C120.236 177.172 118.871 178.537 117.188 178.537H104.925C103.241 178.537 101.877 177.172 101.877 175.489ZM60.0372 156.541C58.3598 156.541 57 157.901 57 159.578C57 161.256 58.3598 162.615 60.0372 162.615H117.385C119.063 162.615 120.423 161.256 120.423 159.578C120.423 157.901 119.063 156.541 117.385 156.541H60.0372ZM101.877 190.057C101.877 188.379 103.237 187.02 104.914 187.02H117.199C118.876 187.02 120.236 188.379 120.236 190.057C120.236 191.734 118.876 193.094 117.199 193.094H104.914C103.237 193.094 101.877 191.734 101.877 190.057ZM91.4479 170.587C91.7122 170.307 92.0861 170.096 92.4911 170.096C92.8961 170.096 93.27 170.307 93.5343 170.587L93.5404 170.594L97.3335 174.853C97.7952 175.441 97.7967 176.323 97.2405 176.913L97.2307 176.923L97.22 176.932C96.6531 177.433 95.793 177.433 95.2283 176.834L95.2241 176.83L93.9161 175.387V191.273L95.1825 189.769C95.6622 189.123 96.6339 189.001 97.2207 189.671C97.4845 189.973 97.6689 190.382 97.6689 190.809C97.6689 191.111 97.5832 191.53 97.2979 191.858L93.5146 196.434C93.2534 196.732 92.8775 196.964 92.4636 196.964C92.0496 196.964 91.6738 196.732 91.4126 196.433L91.4068 196.427L87.6144 191.84C87.1623 191.221 87.1598 190.296 87.7064 189.671L87.7158 189.661L87.7261 189.651C88.2965 189.108 89.1692 189.111 89.7341 189.756L89.7381 189.761L91.0386 191.305V175.417L89.765 176.822C89.2829 177.424 88.3249 177.531 87.7417 176.913C87.4763 176.631 87.2857 176.243 87.2857 175.833C87.2857 175.544 87.3744 175.145 87.6643 174.836L91.4479 170.587ZM57.2844 192.868C56.409 194.678 57.6602 196.822 59.5921 196.822C60.58 196.822 61.4818 196.231 61.9166 195.299L64.0671 190.687C64.2395 190.74 64.4219 190.768 64.6106 190.768H76.2798C76.3431 190.768 76.4057 190.765 76.4674 190.759L78.4608 195.219C78.898 196.198 79.8337 196.822 80.8621 196.822C82.8293 196.822 84.1123 194.65 83.2401 192.797L73.7219 172.57C73.099 171.246 71.8157 170.408 70.4107 170.408C69.0203 170.408 67.7477 171.229 67.1177 172.532L57.2844 192.868ZM74.6582 186.71L70.3823 177.143L65.9211 186.71H74.6582Z" fill="url(#paint3_linear_7394_216)"/>
</g>
<path d="M161.36 122V107.88H164.5V122H161.36ZM163.78 122V119.24H170.76V122H163.78ZM176.195 122.2C175.301 122.2 174.501 121.98 173.795 121.54C173.101 121.1 172.548 120.5 172.135 119.74C171.735 118.98 171.535 118.113 171.535 117.14C171.535 116.167 171.735 115.3 172.135 114.54C172.548 113.78 173.101 113.18 173.795 112.74C174.501 112.3 175.301 112.08 176.195 112.08C176.848 112.08 177.435 112.207 177.955 112.46C178.488 112.713 178.921 113.067 179.255 113.52C179.588 113.96 179.775 114.467 179.815 115.04V119.24C179.775 119.813 179.588 120.327 179.255 120.78C178.935 121.22 178.508 121.567 177.975 121.82C177.441 122.073 176.848 122.2 176.195 122.2ZM176.815 119.44C177.468 119.44 177.995 119.227 178.395 118.8C178.795 118.36 178.995 117.807 178.995 117.14C178.995 116.687 178.901 116.287 178.715 115.94C178.541 115.593 178.288 115.327 177.955 115.14C177.635 114.94 177.261 114.84 176.835 114.84C176.408 114.84 176.028 114.94 175.695 115.14C175.375 115.327 175.115 115.593 174.915 115.94C174.728 116.287 174.635 116.687 174.635 117.14C174.635 117.58 174.728 117.973 174.915 118.32C175.101 118.667 175.361 118.94 175.695 119.14C176.028 119.34 176.401 119.44 176.815 119.44ZM178.875 122V119.38L179.335 117.02L178.875 114.66V112.28H181.875V122H178.875ZM191.997 147.2C191.077 147.2 190.257 146.98 189.537 146.54C188.831 146.1 188.271 145.5 187.857 144.74C187.457 143.98 187.257 143.113 187.257 142.14C187.257 141.167 187.457 140.3 187.857 139.54C188.271 138.78 188.831 138.18 189.537 137.74C190.257 137.3 191.077 137.08 191.997 137.08C192.664 137.08 193.264 137.207 193.797 137.46C194.344 137.713 194.791 138.067 195.137 138.52C195.497 138.96 195.697 139.467 195.737 140.04V144.14C195.697 144.713 195.504 145.233 195.157 145.7C194.811 146.153 194.364 146.52 193.817 146.8C193.271 147.067 192.664 147.2 191.997 147.2ZM192.537 144.44C192.977 144.44 193.357 144.347 193.677 144.16C193.997 143.96 194.251 143.687 194.437 143.34C194.624 142.993 194.717 142.593 194.717 142.14C194.717 141.687 194.624 141.293 194.437 140.96C194.264 140.613 194.011 140.34 193.677 140.14C193.357 139.94 192.984 139.84 192.557 139.84C192.131 139.84 191.751 139.94 191.417 140.14C191.097 140.34 190.837 140.613 190.637 140.96C190.451 141.307 190.357 141.7 190.357 142.14C190.357 142.58 190.451 142.973 190.637 143.32C190.824 143.667 191.084 143.94 191.417 144.14C191.751 144.34 192.124 144.44 192.537 144.44ZM197.597 147H194.597V144.38L195.057 142.02L194.537 139.66V132.48H197.597V147ZM204.552 147.22C203.499 147.22 202.559 147.007 201.732 146.58C200.919 146.14 200.279 145.533 199.812 144.76C199.345 143.987 199.112 143.113 199.112 142.14C199.112 141.167 199.339 140.3 199.792 139.54C200.259 138.767 200.885 138.16 201.672 137.72C202.459 137.28 203.345 137.06 204.332 137.06C205.292 137.06 206.139 137.267 206.872 137.68C207.605 138.093 208.179 138.667 208.592 139.4C209.019 140.133 209.232 140.973 209.232 141.92C209.232 142.093 209.219 142.28 209.192 142.48C209.179 142.667 209.145 142.887 209.092 143.14L200.712 143.16V141.06L207.792 141.04L206.472 141.92C206.459 141.36 206.372 140.9 206.212 140.54C206.052 140.167 205.812 139.887 205.492 139.7C205.185 139.5 204.805 139.4 204.352 139.4C203.872 139.4 203.452 139.513 203.092 139.74C202.745 139.953 202.472 140.26 202.272 140.66C202.085 141.06 201.992 141.547 201.992 142.12C201.992 142.693 202.092 143.187 202.292 143.6C202.505 144 202.799 144.313 203.172 144.54C203.559 144.753 204.012 144.86 204.532 144.86C205.012 144.86 205.445 144.78 205.832 144.62C206.219 144.447 206.559 144.193 206.852 143.86L208.532 145.54C208.052 146.1 207.472 146.52 206.792 146.8C206.112 147.08 205.365 147.22 204.552 147.22ZM214.249 147.24C213.676 147.24 213.109 147.167 212.549 147.02C212.002 146.873 211.489 146.667 211.009 146.4C210.542 146.12 210.142 145.8 209.809 145.44L211.549 143.68C211.869 144.027 212.249 144.3 212.689 144.5C213.129 144.687 213.609 144.78 214.129 144.78C214.489 144.78 214.762 144.727 214.949 144.62C215.149 144.513 215.249 144.367 215.249 144.18C215.249 143.94 215.129 143.76 214.889 143.64C214.662 143.507 214.369 143.393 214.009 143.3C213.649 143.193 213.269 143.08 212.869 142.96C212.469 142.84 212.089 142.673 211.729 142.46C211.369 142.247 211.076 141.953 210.849 141.58C210.622 141.193 210.509 140.707 210.509 140.12C210.509 139.493 210.669 138.953 210.989 138.5C211.309 138.033 211.762 137.667 212.349 137.4C212.936 137.133 213.622 137 214.409 137C215.236 137 215.996 137.147 216.689 137.44C217.396 137.72 217.969 138.14 218.409 138.7L216.669 140.46C216.362 140.1 216.016 139.847 215.629 139.7C215.256 139.553 214.889 139.48 214.529 139.48C214.182 139.48 213.922 139.533 213.749 139.64C213.576 139.733 213.489 139.873 213.489 140.06C213.489 140.26 213.602 140.42 213.829 140.54C214.056 140.66 214.349 140.767 214.709 140.86C215.069 140.953 215.449 141.067 215.849 141.2C216.249 141.333 216.629 141.513 216.989 141.74C217.349 141.967 217.642 142.273 217.869 142.66C218.096 143.033 218.209 143.527 218.209 144.14C218.209 145.087 217.849 145.84 217.129 146.4C216.422 146.96 215.462 147.24 214.249 147.24ZM285.474 147.2C284.554 147.2 283.734 146.98 283.014 146.54C282.307 146.1 281.747 145.5 281.334 144.74C280.934 143.98 280.734 143.113 280.734 142.14C280.734 141.167 280.934 140.3 281.334 139.54C281.747 138.78 282.307 138.18 283.014 137.74C283.734 137.3 284.554 137.08 285.474 137.08C286.141 137.08 286.741 137.207 287.274 137.46C287.821 137.713 288.267 138.067 288.614 138.52C288.974 138.96 289.174 139.467 289.214 140.04V144.14C289.174 144.713 288.981 145.233 288.634 145.7C288.287 146.153 287.841 146.52 287.294 146.8C286.747 147.067 286.141 147.2 285.474 147.2ZM286.014 144.44C286.454 144.44 286.834 144.347 287.154 144.16C287.474 143.96 287.727 143.687 287.914 143.34C288.101 142.993 288.194 142.593 288.194 142.14C288.194 141.687 288.101 141.293 287.914 140.96C287.741 140.613 287.487 140.34 287.154 140.14C286.834 139.94 286.461 139.84 286.034 139.84C285.607 139.84 285.227 139.94 284.894 140.14C284.574 140.34 284.314 140.613 284.114 140.96C283.927 141.307 283.834 141.7 283.834 142.14C283.834 142.58 283.927 142.973 284.114 143.32C284.301 143.667 284.561 143.94 284.894 144.14C285.227 144.34 285.601 144.44 286.014 144.44ZM291.074 147H288.074V144.38L288.534 142.02L288.014 139.66V132.48H291.074V147ZM298.028 147.22C296.975 147.22 296.035 147.007 295.208 146.58C294.395 146.14 293.755 145.533 293.288 144.76C292.822 143.987 292.588 143.113 292.588 142.14C292.588 141.167 292.815 140.3 293.268 139.54C293.735 138.767 294.362 138.16 295.148 137.72C295.935 137.28 296.822 137.06 297.808 137.06C298.768 137.06 299.615 137.267 300.348 137.68C301.082 138.093 301.655 138.667 302.068 139.4C302.495 140.133 302.708 140.973 302.708 141.92C302.708 142.093 302.695 142.28 302.668 142.48C302.655 142.667 302.622 142.887 302.568 143.14L294.188 143.16V141.06L301.268 141.04L299.948 141.92C299.935 141.36 299.848 140.9 299.688 140.54C299.528 140.167 299.288 139.887 298.968 139.7C298.662 139.5 298.282 139.4 297.828 139.4C297.348 139.4 296.928 139.513 296.568 139.74C296.222 139.953 295.948 140.26 295.748 140.66C295.562 141.06 295.468 141.547 295.468 142.12C295.468 142.693 295.568 143.187 295.768 143.6C295.982 144 296.275 144.313 296.648 144.54C297.035 144.753 297.488 144.86 298.008 144.86C298.488 144.86 298.922 144.78 299.308 144.62C299.695 144.447 300.035 144.193 300.328 143.86L302.008 145.54C301.528 146.1 300.948 146.52 300.268 146.8C299.588 147.08 298.842 147.22 298.028 147.22ZM258.419 172.22C257.366 172.22 256.426 172.007 255.599 171.58C254.786 171.14 254.146 170.533 253.679 169.76C253.212 168.987 252.979 168.113 252.979 167.14C252.979 166.167 253.206 165.3 253.659 164.54C254.126 163.767 254.752 163.16 255.539 162.72C256.326 162.28 257.212 162.06 258.199 162.06C259.159 162.06 260.006 162.267 260.739 162.68C261.472 163.093 262.046 163.667 262.459 164.4C262.886 165.133 263.099 165.973 263.099 166.92C263.099 167.093 263.086 167.28 263.059 167.48C263.046 167.667 263.012 167.887 262.959 168.14L254.579 168.16V166.06L261.659 166.04L260.339 166.92C260.326 166.36 260.239 165.9 260.079 165.54C259.919 165.167 259.679 164.887 259.359 164.7C259.052 164.5 258.672 164.4 258.219 164.4C257.739 164.4 257.319 164.513 256.959 164.74C256.612 164.953 256.339 165.26 256.139 165.66C255.952 166.06 255.859 166.547 255.859 167.12C255.859 167.693 255.959 168.187 256.159 168.6C256.372 169 256.666 169.313 257.039 169.54C257.426 169.753 257.879 169.86 258.399 169.86C258.879 169.86 259.312 169.78 259.699 169.62C260.086 169.447 260.426 169.193 260.719 168.86L262.399 170.54C261.919 171.1 261.339 171.52 260.659 171.8C259.979 172.08 259.232 172.22 258.419 172.22ZM265.761 172V158.26H268.821V172H265.761ZM263.561 164.88V162.28H271.021V164.88H263.561ZM165.78 197.22C164.78 197.22 163.873 197 163.06 196.56C162.247 196.12 161.607 195.513 161.14 194.74C160.673 193.967 160.44 193.1 160.44 192.14C160.44 191.167 160.673 190.3 161.14 189.54C161.62 188.767 162.267 188.16 163.08 187.72C163.893 187.28 164.807 187.06 165.82 187.06C166.58 187.06 167.273 187.193 167.9 187.46C168.54 187.713 169.107 188.1 169.6 188.62L167.64 190.58C167.413 190.327 167.147 190.14 166.84 190.02C166.547 189.9 166.207 189.84 165.82 189.84C165.38 189.84 164.987 189.94 164.64 190.14C164.307 190.327 164.04 190.593 163.84 190.94C163.653 191.273 163.56 191.667 163.56 192.12C163.56 192.573 163.653 192.973 163.84 193.32C164.04 193.667 164.313 193.94 164.66 194.14C165.007 194.34 165.393 194.44 165.82 194.44C166.22 194.44 166.573 194.373 166.88 194.24C167.2 194.093 167.473 193.893 167.7 193.64L169.64 195.6C169.133 196.133 168.56 196.54 167.92 196.82C167.28 197.087 166.567 197.22 165.78 197.22ZM171.002 197V187.28H174.062V197H171.002ZM172.542 185.94C172.062 185.94 171.662 185.78 171.342 185.46C171.035 185.127 170.882 184.727 170.882 184.26C170.882 183.78 171.035 183.38 171.342 183.06C171.662 182.74 172.062 182.58 172.542 182.58C173.022 182.58 173.415 182.74 173.722 183.06C174.029 183.38 174.182 183.78 174.182 184.26C174.182 184.727 174.029 185.127 173.722 185.46C173.415 185.78 173.022 185.94 172.542 185.94ZM186.601 197V183.26H189.661V197H186.601ZM184.401 189.88V187.28H191.861V189.88H184.401ZM197.694 197.22C196.694 197.22 195.787 197 194.974 196.56C194.174 196.107 193.54 195.493 193.074 194.72C192.607 193.947 192.374 193.08 192.374 192.12C192.374 191.16 192.607 190.3 193.074 189.54C193.54 188.78 194.174 188.18 194.974 187.74C195.774 187.287 196.68 187.06 197.694 187.06C198.707 187.06 199.614 187.28 200.414 187.72C201.214 188.16 201.847 188.767 202.314 189.54C202.78 190.3 203.014 191.16 203.014 192.12C203.014 193.08 202.78 193.947 202.314 194.72C201.847 195.493 201.214 196.107 200.414 196.56C199.614 197 198.707 197.22 197.694 197.22ZM197.694 194.44C198.134 194.44 198.52 194.347 198.854 194.16C199.187 193.96 199.44 193.687 199.614 193.34C199.8 192.98 199.894 192.573 199.894 192.12C199.894 191.667 199.8 191.273 199.614 190.94C199.427 190.593 199.167 190.327 198.834 190.14C198.514 189.94 198.134 189.84 197.694 189.84C197.267 189.84 196.887 189.94 196.554 190.14C196.22 190.327 195.96 190.593 195.774 190.94C195.587 191.287 195.494 191.687 195.494 192.14C195.494 192.58 195.587 192.98 195.774 193.34C195.96 193.687 196.22 193.96 196.554 194.16C196.887 194.347 197.267 194.44 197.694 194.44ZM207.283 197.04L203.283 187.28H206.583L209.123 195.02H207.903L210.503 187.28H213.803L209.643 197.04H207.283ZM204.783 201.1L207.703 194.8L209.643 197.04L207.923 201.1H204.783ZM228.927 197.22C227.874 197.22 226.934 197.007 226.107 196.58C225.294 196.14 224.654 195.533 224.187 194.76C223.72 193.987 223.487 193.113 223.487 192.14C223.487 191.167 223.714 190.3 224.167 189.54C224.634 188.767 225.26 188.16 226.047 187.72C226.834 187.28 227.72 187.06 228.707 187.06C229.667 187.06 230.514 187.267 231.247 187.68C231.98 188.093 232.554 188.667 232.967 189.4C233.394 190.133 233.607 190.973 233.607 191.92C233.607 192.093 233.594 192.28 233.567 192.48C233.554 192.667 233.52 192.887 233.467 193.14L225.087 193.16V191.06L232.167 191.04L230.847 191.92C230.834 191.36 230.747 190.9 230.587 190.54C230.427 190.167 230.187 189.887 229.867 189.7C229.56 189.5 229.18 189.4 228.727 189.4C228.247 189.4 227.827 189.513 227.467 189.74C227.12 189.953 226.847 190.26 226.647 190.66C226.46 191.06 226.367 191.547 226.367 192.12C226.367 192.693 226.467 193.187 226.667 193.6C226.88 194 227.174 194.313 227.547 194.54C227.934 194.753 228.387 194.86 228.907 194.86C229.387 194.86 229.82 194.78 230.207 194.62C230.594 194.447 230.934 194.193 231.227 193.86L232.907 195.54C232.427 196.1 231.847 196.52 231.167 196.8C230.487 197.08 229.74 197.22 228.927 197.22ZM241.504 197V191.46C241.504 190.953 241.344 190.547 241.024 190.24C240.717 189.92 240.324 189.76 239.844 189.76C239.511 189.76 239.217 189.833 238.964 189.98C238.711 190.113 238.511 190.313 238.364 190.58C238.217 190.833 238.144 191.127 238.144 191.46L236.964 190.88C236.964 190.12 237.131 189.453 237.464 188.88C237.797 188.307 238.257 187.867 238.844 187.56C239.444 187.24 240.117 187.08 240.864 187.08C241.584 187.08 242.217 187.253 242.764 187.6C243.324 187.933 243.764 188.38 244.084 188.94C244.404 189.5 244.564 190.113 244.564 190.78V197H241.504ZM235.084 197V187.28H238.144V197H235.084ZM279.038 197V182.88H282.158V197H279.038ZM276.318 185.54V182.88H281.958V185.54H276.318ZM285.757 197L290.557 184.64H293.617L288.997 197H285.757ZM283.877 185.54V182.88H293.617V184.64L292.577 185.54H283.877ZM299.39 197.22C298.376 197.22 297.49 197.04 296.73 196.68C295.983 196.32 295.396 195.827 294.97 195.2C294.556 194.573 294.35 193.86 294.35 193.06C294.35 192.393 294.476 191.793 294.73 191.26C294.996 190.727 295.363 190.28 295.83 189.92C296.31 189.56 296.863 189.313 297.49 189.18L297.43 189.82C296.896 189.7 296.443 189.48 296.07 189.16C295.696 188.827 295.41 188.427 295.21 187.96C295.01 187.493 294.91 187.007 294.91 186.5C294.91 185.753 295.096 185.093 295.47 184.52C295.856 183.933 296.39 183.473 297.07 183.14C297.75 182.807 298.523 182.64 299.39 182.64C300.27 182.64 301.043 182.807 301.71 183.14C302.39 183.473 302.916 183.933 303.29 184.52C303.676 185.093 303.87 185.753 303.87 186.5C303.87 187.007 303.77 187.493 303.57 187.96C303.383 188.427 303.103 188.827 302.73 189.16C302.356 189.48 301.903 189.7 301.37 189.82L301.29 189.18C301.93 189.313 302.483 189.56 302.95 189.92C303.43 190.28 303.796 190.727 304.05 191.26C304.303 191.793 304.43 192.393 304.43 193.06C304.43 193.86 304.223 194.573 303.81 195.2C303.396 195.827 302.81 196.32 302.05 196.68C301.303 197.04 300.416 197.22 299.39 197.22ZM299.39 194.54C299.79 194.54 300.143 194.46 300.45 194.3C300.756 194.127 300.996 193.893 301.17 193.6C301.356 193.307 301.45 192.98 301.45 192.62C301.45 192.247 301.356 191.92 301.17 191.64C300.996 191.347 300.756 191.12 300.45 190.96C300.143 190.787 299.79 190.7 299.39 190.7C298.99 190.7 298.636 190.787 298.33 190.96C298.023 191.12 297.783 191.347 297.61 191.64C297.436 191.92 297.35 192.247 297.35 192.62C297.35 192.98 297.436 193.307 297.61 193.6C297.783 193.893 298.023 194.127 298.33 194.3C298.636 194.46 298.99 194.54 299.39 194.54ZM299.39 188.42C299.856 188.42 300.236 188.273 300.53 187.98C300.836 187.673 300.99 187.293 300.99 186.84C300.99 186.373 300.836 185.993 300.53 185.7C300.236 185.393 299.856 185.24 299.39 185.24C298.936 185.24 298.556 185.387 298.25 185.68C297.943 185.973 297.79 186.353 297.79 186.82C297.79 187.273 297.943 187.653 298.25 187.96C298.556 188.267 298.936 188.42 299.39 188.42ZM307.082 197L311.522 190.82L312.682 190.74C312.509 191.047 312.316 191.32 312.102 191.56C311.902 191.787 311.642 191.967 311.322 192.1C311.016 192.22 310.602 192.28 310.082 192.28C309.229 192.28 308.442 192.08 307.722 191.68C307.016 191.267 306.449 190.713 306.022 190.02C305.609 189.313 305.402 188.513 305.402 187.62C305.402 186.687 305.636 185.847 306.102 185.1C306.569 184.353 307.196 183.76 307.982 183.32C308.769 182.88 309.656 182.66 310.642 182.66C311.629 182.66 312.516 182.88 313.302 183.32C314.089 183.747 314.709 184.333 315.162 185.08C315.629 185.813 315.862 186.647 315.862 187.58C315.862 188.78 315.449 189.987 314.622 191.2L310.642 197H307.082ZM310.642 189.94C311.056 189.94 311.429 189.84 311.762 189.64C312.096 189.44 312.356 189.173 312.542 188.84C312.729 188.493 312.822 188.107 312.822 187.68C312.822 187.24 312.729 186.847 312.542 186.5C312.356 186.153 312.096 185.887 311.762 185.7C311.429 185.5 311.056 185.4 310.642 185.4C310.216 185.4 309.836 185.5 309.502 185.7C309.182 185.887 308.922 186.153 308.722 186.5C308.536 186.847 308.442 187.24 308.442 187.68C308.442 188.107 308.536 188.493 308.722 188.84C308.922 189.173 309.189 189.44 309.522 189.64C309.856 189.84 310.229 189.94 310.642 189.94ZM197.314 222.22C196.421 222.22 195.627 222.04 194.934 221.68C194.254 221.307 193.721 220.8 193.334 220.16C192.947 219.507 192.754 218.76 192.754 217.92V212.28H195.814V217.88C195.814 218.213 195.867 218.5 195.974 218.74C196.094 218.98 196.267 219.167 196.494 219.3C196.721 219.433 196.994 219.5 197.314 219.5C197.767 219.5 198.127 219.36 198.394 219.08C198.661 218.787 198.794 218.387 198.794 217.88V212.28H201.854V217.9C201.854 218.753 201.661 219.507 201.274 220.16C200.887 220.8 200.354 221.307 199.674 221.68C198.994 222.04 198.207 222.22 197.314 222.22ZM210.195 222V216.46C210.195 215.953 210.035 215.547 209.715 215.24C209.409 214.92 209.015 214.76 208.535 214.76C208.202 214.76 207.909 214.833 207.655 214.98C207.402 215.113 207.202 215.313 207.055 215.58C206.909 215.833 206.835 216.127 206.835 216.46L205.655 215.88C205.655 215.12 205.822 214.453 206.155 213.88C206.489 213.307 206.949 212.867 207.535 212.56C208.135 212.24 208.809 212.08 209.555 212.08C210.275 212.08 210.909 212.253 211.455 212.6C212.015 212.933 212.455 213.38 212.775 213.94C213.095 214.5 213.255 215.113 213.255 215.78V222H210.195ZM203.775 222V212.28H206.835V222H203.775Z" fill="#4845CB"/>
<path d="M190.238 122V119.24H193.738C194.591 119.24 195.338 119.073 195.978 118.74C196.618 118.393 197.111 117.893 197.458 117.24C197.804 116.587 197.978 115.813 197.978 114.92C197.978 114.027 197.798 113.26 197.438 112.62C197.091 111.98 196.598 111.487 195.958 111.14C195.331 110.793 194.591 110.62 193.738 110.62H190.138V107.88H193.778C194.844 107.88 195.824 108.053 196.718 108.4C197.624 108.733 198.411 109.22 199.078 109.86C199.758 110.487 200.278 111.233 200.638 112.1C201.011 112.953 201.198 113.9 201.198 114.94C201.198 115.967 201.011 116.913 200.638 117.78C200.278 118.647 199.764 119.393 199.098 120.02C198.431 120.647 197.644 121.133 196.738 121.48C195.844 121.827 194.871 122 193.818 122H190.238ZM188.118 122V107.88H191.258V122H188.118ZM207.716 122.22C206.663 122.22 205.723 122.007 204.896 121.58C204.083 121.14 203.443 120.533 202.976 119.76C202.509 118.987 202.276 118.113 202.276 117.14C202.276 116.167 202.503 115.3 202.956 114.54C203.423 113.767 204.049 113.16 204.836 112.72C205.623 112.28 206.509 112.06 207.496 112.06C208.456 112.06 209.303 112.267 210.036 112.68C210.769 113.093 211.343 113.667 211.756 114.4C212.183 115.133 212.396 115.973 212.396 116.92C212.396 117.093 212.383 117.28 212.356 117.48C212.343 117.667 212.309 117.887 212.256 118.14L203.876 118.16V116.06L210.956 116.04L209.636 116.92C209.623 116.36 209.536 115.9 209.376 115.54C209.216 115.167 208.976 114.887 208.656 114.7C208.349 114.5 207.969 114.4 207.516 114.4C207.036 114.4 206.616 114.513 206.256 114.74C205.909 114.953 205.636 115.26 205.436 115.66C205.249 116.06 205.156 116.547 205.156 117.12C205.156 117.693 205.256 118.187 205.456 118.6C205.669 119 205.963 119.313 206.336 119.54C206.723 119.753 207.176 119.86 207.696 119.86C208.176 119.86 208.609 119.78 208.996 119.62C209.383 119.447 209.723 119.193 210.016 118.86L211.696 120.54C211.216 121.1 210.636 121.52 209.956 121.8C209.276 122.08 208.529 122.22 207.716 122.22ZM206.056 111.18L205.056 109.72L208.236 106.74L209.916 109.1L206.056 111.18ZM228.671 122.22C227.671 122.22 226.764 122 225.951 121.56C225.137 121.12 224.497 120.513 224.031 119.74C223.564 118.967 223.331 118.1 223.331 117.14C223.331 116.167 223.564 115.3 224.031 114.54C224.511 113.767 225.157 113.16 225.971 112.72C226.784 112.28 227.697 112.06 228.711 112.06C229.471 112.06 230.164 112.193 230.791 112.46C231.431 112.713 231.997 113.1 232.491 113.62L230.531 115.58C230.304 115.327 230.037 115.14 229.731 115.02C229.437 114.9 229.097 114.84 228.711 114.84C228.271 114.84 227.877 114.94 227.531 115.14C227.197 115.327 226.931 115.593 226.731 115.94C226.544 116.273 226.451 116.667 226.451 117.12C226.451 117.573 226.544 117.973 226.731 118.32C226.931 118.667 227.204 118.94 227.551 119.14C227.897 119.34 228.284 119.44 228.711 119.44C229.111 119.44 229.464 119.373 229.771 119.24C230.091 119.093 230.364 118.893 230.591 118.64L232.531 120.6C232.024 121.133 231.451 121.54 230.811 121.82C230.171 122.087 229.457 122.22 228.671 122.22ZM233.893 122V107.48H236.953V122H233.893ZM243.167 122.2C242.274 122.2 241.474 121.98 240.767 121.54C240.074 121.1 239.521 120.5 239.107 119.74C238.707 118.98 238.507 118.113 238.507 117.14C238.507 116.167 238.707 115.3 239.107 114.54C239.521 113.78 240.074 113.18 240.767 112.74C241.474 112.3 242.274 112.08 243.167 112.08C243.821 112.08 244.407 112.207 244.927 112.46C245.461 112.713 245.894 113.067 246.227 113.52C246.561 113.96 246.747 114.467 246.787 115.04V119.24C246.747 119.813 246.561 120.327 246.227 120.78C245.907 121.22 245.481 121.567 244.947 121.82C244.414 122.073 243.821 122.2 243.167 122.2ZM243.787 119.44C244.441 119.44 244.967 119.227 245.367 118.8C245.767 118.36 245.967 117.807 245.967 117.14C245.967 116.687 245.874 116.287 245.687 115.94C245.514 115.593 245.261 115.327 244.927 115.14C244.607 114.94 244.234 114.84 243.807 114.84C243.381 114.84 243.001 114.94 242.667 115.14C242.347 115.327 242.087 115.593 241.887 115.94C241.701 116.287 241.607 116.687 241.607 117.14C241.607 117.58 241.701 117.973 241.887 118.32C242.074 118.667 242.334 118.94 242.667 119.14C243.001 119.34 243.374 119.44 243.787 119.44ZM245.847 122V119.38L246.307 117.02L245.847 114.66V112.28H248.847V122H245.847ZM260.24 122V112.28H263.3V122H260.24ZM263.3 116.66L262.02 115.66C262.273 114.527 262.7 113.647 263.3 113.02C263.9 112.393 264.733 112.08 265.8 112.08C266.267 112.08 266.673 112.153 267.02 112.3C267.38 112.433 267.693 112.647 267.96 112.94L266.14 115.24C266.007 115.093 265.84 114.98 265.64 114.9C265.44 114.82 265.213 114.78 264.96 114.78C264.453 114.78 264.047 114.94 263.74 115.26C263.447 115.567 263.3 116.033 263.3 116.66ZM272.562 122.2C271.669 122.2 270.869 121.98 270.162 121.54C269.469 121.1 268.915 120.5 268.502 119.74C268.102 118.98 267.902 118.113 267.902 117.14C267.902 116.167 268.102 115.3 268.502 114.54C268.915 113.78 269.469 113.18 270.162 112.74C270.869 112.3 271.669 112.08 272.562 112.08C273.215 112.08 273.802 112.207 274.322 112.46C274.855 112.713 275.289 113.067 275.622 113.52C275.955 113.96 276.142 114.467 276.182 115.04V119.24C276.142 119.813 275.955 120.327 275.622 120.78C275.302 121.22 274.875 121.567 274.342 121.82C273.809 122.073 273.215 122.2 272.562 122.2ZM273.182 119.44C273.835 119.44 274.362 119.227 274.762 118.8C275.162 118.36 275.362 117.807 275.362 117.14C275.362 116.687 275.269 116.287 275.082 115.94C274.909 115.593 274.655 115.327 274.322 115.14C274.002 114.94 273.629 114.84 273.202 114.84C272.775 114.84 272.395 114.94 272.062 115.14C271.742 115.327 271.482 115.593 271.282 115.94C271.095 116.287 271.002 116.687 271.002 117.14C271.002 117.58 271.095 117.973 271.282 118.32C271.469 118.667 271.729 118.94 272.062 119.14C272.395 119.34 272.769 119.44 273.182 119.44ZM275.242 122V119.38L275.702 117.02L275.242 114.66V112.28H278.242V122H275.242ZM290.78 122V108.26H293.84V122H290.78ZM288.58 114.88V112.28H296.04V114.88H288.58ZM297.389 122V112.28H300.449V122H297.389ZM298.929 110.94C298.449 110.94 298.049 110.78 297.729 110.46C297.422 110.127 297.269 109.727 297.269 109.26C297.269 108.78 297.422 108.38 297.729 108.06C298.049 107.74 298.449 107.58 298.929 107.58C299.409 107.58 299.802 107.74 300.109 108.06C300.415 108.38 300.569 108.78 300.569 109.26C300.569 109.727 300.415 110.127 300.109 110.46C299.802 110.78 299.409 110.94 298.929 110.94ZM165.76 147.22C164.76 147.22 163.853 147 163.04 146.56C162.24 146.107 161.607 145.493 161.14 144.72C160.673 143.947 160.44 143.08 160.44 142.12C160.44 141.16 160.673 140.3 161.14 139.54C161.607 138.78 162.24 138.18 163.04 137.74C163.84 137.287 164.747 137.06 165.76 137.06C166.773 137.06 167.68 137.28 168.48 137.72C169.28 138.16 169.913 138.767 170.38 139.54C170.847 140.3 171.08 141.16 171.08 142.12C171.08 143.08 170.847 143.947 170.38 144.72C169.913 145.493 169.28 146.107 168.48 146.56C167.68 147 166.773 147.22 165.76 147.22ZM165.76 144.44C166.2 144.44 166.587 144.347 166.92 144.16C167.253 143.96 167.507 143.687 167.68 143.34C167.867 142.98 167.96 142.573 167.96 142.12C167.96 141.667 167.867 141.273 167.68 140.94C167.493 140.593 167.233 140.327 166.9 140.14C166.58 139.94 166.2 139.84 165.76 139.84C165.333 139.84 164.953 139.94 164.62 140.14C164.287 140.327 164.027 140.593 163.84 140.94C163.653 141.287 163.56 141.687 163.56 142.14C163.56 142.58 163.653 142.98 163.84 143.34C164.027 143.687 164.287 143.96 164.62 144.16C164.953 144.347 165.333 144.44 165.76 144.44ZM179.023 147V141.46C179.023 140.953 178.863 140.547 178.543 140.24C178.237 139.92 177.843 139.76 177.363 139.76C177.03 139.76 176.737 139.833 176.483 139.98C176.23 140.113 176.03 140.313 175.883 140.58C175.737 140.833 175.663 141.127 175.663 141.46L174.483 140.88C174.483 140.12 174.65 139.453 174.983 138.88C175.317 138.307 175.777 137.867 176.363 137.56C176.963 137.24 177.637 137.08 178.383 137.08C179.103 137.08 179.737 137.253 180.283 137.6C180.843 137.933 181.283 138.38 181.603 138.94C181.923 139.5 182.083 140.113 182.083 140.78V147H179.023ZM172.603 147V137.28H175.663V147H172.603ZM227.818 147.2C226.898 147.2 226.078 146.98 225.358 146.54C224.651 146.1 224.091 145.5 223.678 144.74C223.278 143.98 223.078 143.113 223.078 142.14C223.078 141.167 223.278 140.3 223.678 139.54C224.091 138.78 224.651 138.18 225.358 137.74C226.078 137.3 226.898 137.08 227.818 137.08C228.484 137.08 229.084 137.207 229.618 137.46C230.164 137.713 230.611 138.067 230.958 138.52C231.318 138.96 231.518 139.467 231.558 140.04V144.14C231.518 144.713 231.324 145.233 230.978 145.7C230.631 146.153 230.184 146.52 229.638 146.8C229.091 147.067 228.484 147.2 227.818 147.2ZM228.358 144.44C228.798 144.44 229.178 144.347 229.498 144.16C229.818 143.96 230.071 143.687 230.258 143.34C230.444 142.993 230.538 142.593 230.538 142.14C230.538 141.687 230.444 141.293 230.258 140.96C230.084 140.613 229.831 140.34 229.498 140.14C229.178 139.94 228.804 139.84 228.378 139.84C227.951 139.84 227.571 139.94 227.238 140.14C226.918 140.34 226.658 140.613 226.458 140.96C226.271 141.307 226.178 141.7 226.178 142.14C226.178 142.58 226.271 142.973 226.458 143.32C226.644 143.667 226.904 143.94 227.238 144.14C227.571 144.34 227.944 144.44 228.358 144.44ZM233.418 147H230.418V144.38L230.878 142.02L230.358 139.66V132.48H233.418V147ZM235.572 147V137.28H238.632V147H235.572ZM238.632 141.66L237.352 140.66C237.606 139.527 238.032 138.647 238.632 138.02C239.232 137.393 240.066 137.08 241.132 137.08C241.599 137.08 242.006 137.153 242.352 137.3C242.712 137.433 243.026 137.647 243.292 137.94L241.472 140.24C241.339 140.093 241.172 139.98 240.972 139.9C240.772 139.82 240.546 139.78 240.292 139.78C239.786 139.78 239.379 139.94 239.072 140.26C238.779 140.567 238.632 141.033 238.632 141.66ZM248.514 147.22C247.514 147.22 246.607 147 245.794 146.56C244.994 146.107 244.361 145.493 243.894 144.72C243.427 143.947 243.194 143.08 243.194 142.12C243.194 141.16 243.427 140.3 243.894 139.54C244.361 138.78 244.994 138.18 245.794 137.74C246.594 137.287 247.501 137.06 248.514 137.06C249.527 137.06 250.434 137.28 251.234 137.72C252.034 138.16 252.667 138.767 253.134 139.54C253.601 140.3 253.834 141.16 253.834 142.12C253.834 143.08 253.601 143.947 253.134 144.72C252.667 145.493 252.034 146.107 251.234 146.56C250.434 147 249.527 147.22 248.514 147.22ZM248.514 144.44C248.954 144.44 249.341 144.347 249.674 144.16C250.007 143.96 250.261 143.687 250.434 143.34C250.621 142.98 250.714 142.573 250.714 142.12C250.714 141.667 250.621 141.273 250.434 140.94C250.247 140.593 249.987 140.327 249.654 140.14C249.334 139.94 248.954 139.84 248.514 139.84C248.087 139.84 247.707 139.94 247.374 140.14C247.041 140.327 246.781 140.593 246.594 140.94C246.407 141.287 246.314 141.687 246.314 142.14C246.314 142.58 246.407 142.98 246.594 143.34C246.781 143.687 247.041 143.96 247.374 144.16C247.707 144.347 248.087 144.44 248.514 144.44ZM255.357 147V137.28H258.417V147H255.357ZM256.897 135.94C256.417 135.94 256.017 135.78 255.697 135.46C255.391 135.127 255.237 134.727 255.237 134.26C255.237 133.78 255.391 133.38 255.697 133.06C256.017 132.74 256.417 132.58 256.897 132.58C257.377 132.58 257.771 132.74 258.077 133.06C258.384 133.38 258.537 133.78 258.537 134.26C258.537 134.727 258.384 135.127 258.077 135.46C257.771 135.78 257.377 135.94 256.897 135.94ZM261.952 147V133.26H265.012V147H261.952ZM259.752 139.88V137.28H267.212V139.88H259.752ZM271.905 147.24C271.332 147.24 270.765 147.167 270.205 147.02C269.658 146.873 269.145 146.667 268.665 146.4C268.198 146.12 267.798 145.8 267.465 145.44L269.205 143.68C269.525 144.027 269.905 144.3 270.345 144.5C270.785 144.687 271.265 144.78 271.785 144.78C272.145 144.78 272.418 144.727 272.605 144.62C272.805 144.513 272.905 144.367 272.905 144.18C272.905 143.94 272.785 143.76 272.545 143.64C272.318 143.507 272.025 143.393 271.665 143.3C271.305 143.193 270.925 143.08 270.525 142.96C270.125 142.84 269.745 142.673 269.385 142.46C269.025 142.247 268.732 141.953 268.505 141.58C268.278 141.193 268.165 140.707 268.165 140.12C268.165 139.493 268.325 138.953 268.645 138.5C268.965 138.033 269.418 137.667 270.005 137.4C270.592 137.133 271.278 137 272.065 137C272.892 137 273.652 137.147 274.345 137.44C275.052 137.72 275.625 138.14 276.065 138.7L274.325 140.46C274.018 140.1 273.672 139.847 273.285 139.7C272.912 139.553 272.545 139.48 272.185 139.48C271.838 139.48 271.578 139.533 271.405 139.64C271.232 139.733 271.145 139.873 271.145 140.06C271.145 140.26 271.258 140.42 271.485 140.54C271.712 140.66 272.005 140.767 272.365 140.86C272.725 140.953 273.105 141.067 273.505 141.2C273.905 141.333 274.285 141.513 274.645 141.74C275.005 141.967 275.298 142.273 275.525 142.66C275.752 143.033 275.865 143.527 275.865 144.14C275.865 145.087 275.505 145.84 274.785 146.4C274.078 146.96 273.118 147.24 271.905 147.24ZM161.08 172V157.48H164.14V172H161.08ZM166.795 163.42L166.235 157.48H169.195L168.635 163.42H166.795ZM177.715 172V166.46C177.715 165.953 177.555 165.547 177.235 165.24C176.928 164.92 176.535 164.76 176.055 164.76C175.722 164.76 175.428 164.833 175.175 164.98C174.922 165.113 174.722 165.313 174.575 165.58C174.428 165.833 174.355 166.127 174.355 166.46L173.175 165.88C173.175 165.12 173.335 164.453 173.655 163.88C173.975 163.307 174.422 162.867 174.995 162.56C175.568 162.24 176.228 162.08 176.975 162.08C177.735 162.08 178.402 162.24 178.975 162.56C179.548 162.867 179.988 163.3 180.295 163.86C180.615 164.407 180.775 165.047 180.775 165.78V172H177.715ZM171.295 172V157.48H174.355V172H171.295ZM187.42 172.22C186.42 172.22 185.513 172 184.7 171.56C183.9 171.107 183.267 170.493 182.8 169.72C182.333 168.947 182.1 168.08 182.1 167.12C182.1 166.16 182.333 165.3 182.8 164.54C183.267 163.78 183.9 163.18 184.7 162.74C185.5 162.287 186.407 162.06 187.42 162.06C188.433 162.06 189.34 162.28 190.14 162.72C190.94 163.16 191.573 163.767 192.04 164.54C192.507 165.3 192.74 166.16 192.74 167.12C192.74 168.08 192.507 168.947 192.04 169.72C191.573 170.493 190.94 171.107 190.14 171.56C189.34 172 188.433 172.22 187.42 172.22ZM187.42 169.44C187.86 169.44 188.247 169.347 188.58 169.16C188.913 168.96 189.167 168.687 189.34 168.34C189.527 167.98 189.62 167.573 189.62 167.12C189.62 166.667 189.527 166.273 189.34 165.94C189.153 165.593 188.893 165.327 188.56 165.14C188.24 164.94 187.86 164.84 187.42 164.84C186.993 164.84 186.613 164.94 186.28 165.14C185.947 165.327 185.687 165.593 185.5 165.94C185.313 166.287 185.22 166.687 185.22 167.14C185.22 167.58 185.313 167.98 185.5 168.34C185.687 168.687 185.947 168.96 186.28 169.16C186.613 169.347 186.993 169.44 187.42 169.44ZM203.932 172V162.28H206.992V172H203.932ZM210.152 172V166.32C210.152 165.827 209.998 165.447 209.692 165.18C209.398 164.9 209.032 164.76 208.592 164.76C208.285 164.76 208.012 164.827 207.772 164.96C207.532 165.08 207.338 165.253 207.192 165.48C207.058 165.707 206.992 165.987 206.992 166.32L205.812 165.8C205.812 165.027 205.978 164.367 206.312 163.82C206.645 163.26 207.098 162.833 207.672 162.54C208.245 162.233 208.892 162.08 209.612 162.08C210.292 162.08 210.898 162.233 211.432 162.54C211.978 162.847 212.412 163.273 212.732 163.82C213.052 164.367 213.212 165.02 213.212 165.78V172H210.152ZM216.372 172V166.32C216.372 165.827 216.218 165.447 215.912 165.18C215.618 164.9 215.252 164.76 214.812 164.76C214.505 164.76 214.232 164.827 213.992 164.96C213.752 165.08 213.558 165.253 213.412 165.48C213.278 165.707 213.212 165.987 213.212 166.32L211.452 166.08C211.478 165.253 211.672 164.547 212.032 163.96C212.405 163.36 212.892 162.9 213.492 162.58C214.105 162.247 214.792 162.08 215.552 162.08C216.298 162.08 216.958 162.24 217.532 162.56C218.118 162.867 218.578 163.313 218.912 163.9C219.258 164.473 219.432 165.167 219.432 165.98V172H216.372ZM221.393 172V162.28H224.453V172H221.393ZM227.613 172V166.32C227.613 165.827 227.459 165.447 227.153 165.18C226.859 164.9 226.493 164.76 226.053 164.76C225.746 164.76 225.473 164.827 225.233 164.96C224.993 165.08 224.799 165.253 224.653 165.48C224.519 165.707 224.453 165.987 224.453 166.32L223.273 165.8C223.273 165.027 223.439 164.367 223.773 163.82C224.106 163.26 224.559 162.833 225.133 162.54C225.706 162.233 226.353 162.08 227.073 162.08C227.753 162.08 228.359 162.233 228.893 162.54C229.439 162.847 229.873 163.273 230.193 163.82C230.513 164.367 230.673 165.02 230.673 165.78V172H227.613ZM233.833 172V166.32C233.833 165.827 233.679 165.447 233.373 165.18C233.079 164.9 232.713 164.76 232.273 164.76C231.966 164.76 231.693 164.827 231.453 164.96C231.213 165.08 231.019 165.253 230.872 165.48C230.739 165.707 230.673 165.987 230.673 166.32L228.913 166.08C228.939 165.253 229.133 164.547 229.493 163.96C229.866 163.36 230.353 162.9 230.953 162.58C231.566 162.247 232.253 162.08 233.013 162.08C233.759 162.08 234.419 162.24 234.993 162.56C235.579 162.867 236.039 163.313 236.373 163.9C236.719 164.473 236.893 165.167 236.893 165.98V172H233.833ZM243.653 172.22C242.6 172.22 241.66 172.007 240.833 171.58C240.02 171.14 239.38 170.533 238.913 169.76C238.447 168.987 238.213 168.113 238.213 167.14C238.213 166.167 238.44 165.3 238.893 164.54C239.36 163.767 239.987 163.16 240.773 162.72C241.56 162.28 242.447 162.06 243.433 162.06C244.393 162.06 245.24 162.267 245.973 162.68C246.707 163.093 247.28 163.667 247.693 164.4C248.12 165.133 248.333 165.973 248.333 166.92C248.333 167.093 248.32 167.28 248.293 167.48C248.28 167.667 248.247 167.887 248.193 168.14L239.813 168.16V166.06L246.893 166.04L245.573 166.92C245.56 166.36 245.473 165.9 245.313 165.54C245.153 165.167 244.913 164.887 244.593 164.7C244.287 164.5 243.907 164.4 243.453 164.4C242.973 164.4 242.553 164.513 242.193 164.74C241.847 164.953 241.573 165.26 241.373 165.66C241.187 166.06 241.093 166.547 241.093 167.12C241.093 167.693 241.193 168.187 241.393 168.6C241.607 169 241.9 169.313 242.273 169.54C242.66 169.753 243.113 169.86 243.633 169.86C244.113 169.86 244.547 169.78 244.933 169.62C245.32 169.447 245.66 169.193 245.953 168.86L247.633 170.54C247.153 171.1 246.573 171.52 245.893 171.8C245.213 172.08 244.467 172.22 243.653 172.22ZM280.318 172.2C279.398 172.2 278.578 171.98 277.858 171.54C277.151 171.1 276.591 170.5 276.178 169.74C275.778 168.98 275.578 168.113 275.578 167.14C275.578 166.167 275.778 165.3 276.178 164.54C276.591 163.78 277.151 163.18 277.858 162.74C278.578 162.3 279.398 162.08 280.318 162.08C280.984 162.08 281.584 162.207 282.118 162.46C282.664 162.713 283.111 163.067 283.458 163.52C283.818 163.96 284.018 164.467 284.058 165.04V169.14C284.018 169.713 283.824 170.233 283.478 170.7C283.131 171.153 282.684 171.52 282.138 171.8C281.591 172.067 280.984 172.2 280.318 172.2ZM280.858 169.44C281.298 169.44 281.678 169.347 281.998 169.16C282.318 168.96 282.571 168.687 282.758 168.34C282.944 167.993 283.038 167.593 283.038 167.14C283.038 166.687 282.944 166.293 282.758 165.96C282.584 165.613 282.331 165.34 281.998 165.14C281.678 164.94 281.304 164.84 280.878 164.84C280.451 164.84 280.071 164.94 279.738 165.14C279.418 165.34 279.158 165.613 278.958 165.96C278.771 166.307 278.678 166.7 278.678 167.14C278.678 167.58 278.771 167.973 278.958 168.32C279.144 168.667 279.404 168.94 279.738 169.14C280.071 169.34 280.444 169.44 280.858 169.44ZM285.918 172H282.918V169.38L283.378 167.02L282.858 164.66V157.48H285.918V172ZM292.392 172.22C291.499 172.22 290.706 172.04 290.012 171.68C289.332 171.307 288.799 170.8 288.412 170.16C288.026 169.507 287.832 168.76 287.832 167.92V162.28H290.892V167.88C290.892 168.213 290.946 168.5 291.052 168.74C291.172 168.98 291.346 169.167 291.572 169.3C291.799 169.433 292.072 169.5 292.392 169.5C292.846 169.5 293.206 169.36 293.472 169.08C293.739 168.787 293.872 168.387 293.872 167.88V162.28H296.932V167.9C296.932 168.753 296.739 169.507 296.352 170.16C295.966 170.8 295.432 171.307 294.752 171.68C294.072 172.04 293.286 172.22 292.392 172.22ZM254.478 197.2C253.558 197.2 252.738 196.98 252.018 196.54C251.311 196.1 250.751 195.5 250.338 194.74C249.938 193.98 249.738 193.113 249.738 192.14C249.738 191.167 249.938 190.3 250.338 189.54C250.751 188.78 251.311 188.18 252.018 187.74C252.738 187.3 253.558 187.08 254.478 187.08C255.144 187.08 255.744 187.207 256.278 187.46C256.824 187.713 257.271 188.067 257.618 188.52C257.978 188.96 258.178 189.467 258.218 190.04V194.14C258.178 194.713 257.984 195.233 257.638 195.7C257.291 196.153 256.844 196.52 256.298 196.8C255.751 197.067 255.144 197.2 254.478 197.2ZM255.018 194.44C255.458 194.44 255.838 194.347 256.158 194.16C256.478 193.96 256.731 193.687 256.918 193.34C257.104 192.993 257.198 192.593 257.198 192.14C257.198 191.687 257.104 191.293 256.918 190.96C256.744 190.613 256.491 190.34 256.158 190.14C255.838 189.94 255.464 189.84 255.038 189.84C254.611 189.84 254.231 189.94 253.898 190.14C253.578 190.34 253.318 190.613 253.118 190.96C252.931 191.307 252.838 191.7 252.838 192.14C252.838 192.58 252.931 192.973 253.118 193.32C253.304 193.667 253.564 193.94 253.898 194.14C254.231 194.34 254.604 194.44 255.018 194.44ZM260.078 197H257.078V194.38L257.538 192.02L257.018 189.66V182.48H260.078V197ZM267.032 197.22C265.979 197.22 265.039 197.007 264.212 196.58C263.399 196.14 262.759 195.533 262.292 194.76C261.826 193.987 261.592 193.113 261.592 192.14C261.592 191.167 261.819 190.3 262.272 189.54C262.739 188.767 263.366 188.16 264.152 187.72C264.939 187.28 265.826 187.06 266.812 187.06C267.772 187.06 268.619 187.267 269.352 187.68C270.086 188.093 270.659 188.667 271.072 189.4C271.499 190.133 271.712 190.973 271.712 191.92C271.712 192.093 271.699 192.28 271.672 192.48C271.659 192.667 271.626 192.887 271.572 193.14L263.192 193.16V191.06L270.272 191.04L268.952 191.92C268.939 191.36 268.852 190.9 268.692 190.54C268.532 190.167 268.292 189.887 267.972 189.7C267.666 189.5 267.286 189.4 266.832 189.4C266.352 189.4 265.932 189.513 265.572 189.74C265.226 189.953 264.952 190.26 264.752 190.66C264.566 191.06 264.472 191.547 264.472 192.12C264.472 192.693 264.572 193.187 264.772 193.6C264.986 194 265.279 194.313 265.652 194.54C266.039 194.753 266.492 194.86 267.012 194.86C267.492 194.86 267.926 194.78 268.312 194.62C268.699 194.447 269.039 194.193 269.332 193.86L271.012 195.54C270.532 196.1 269.952 196.52 269.272 196.8C268.592 197.08 267.846 197.22 267.032 197.22ZM165.88 222.22C164.827 222.22 163.887 222.007 163.06 221.58C162.247 221.14 161.607 220.533 161.14 219.76C160.673 218.987 160.44 218.113 160.44 217.14C160.44 216.167 160.667 215.3 161.12 214.54C161.587 213.767 162.213 213.16 163 212.72C163.787 212.28 164.673 212.06 165.66 212.06C166.62 212.06 167.467 212.267 168.2 212.68C168.933 213.093 169.507 213.667 169.92 214.4C170.347 215.133 170.56 215.973 170.56 216.92C170.56 217.093 170.547 217.28 170.52 217.48C170.507 217.667 170.473 217.887 170.42 218.14L162.04 218.16V216.06L169.12 216.04L167.8 216.92C167.787 216.36 167.7 215.9 167.54 215.54C167.38 215.167 167.14 214.887 166.82 214.7C166.513 214.5 166.133 214.4 165.68 214.4C165.2 214.4 164.78 214.513 164.42 214.74C164.073 214.953 163.8 215.26 163.6 215.66C163.413 216.06 163.32 216.547 163.32 217.12C163.32 217.693 163.42 218.187 163.62 218.6C163.833 219 164.127 219.313 164.5 219.54C164.887 219.753 165.34 219.86 165.86 219.86C166.34 219.86 166.773 219.78 167.16 219.62C167.547 219.447 167.887 219.193 168.18 218.86L169.86 220.54C169.38 221.1 168.8 221.52 168.12 221.8C167.44 222.08 166.693 222.22 165.88 222.22ZM175.577 222.24C175.004 222.24 174.437 222.167 173.877 222.02C173.33 221.873 172.817 221.667 172.337 221.4C171.87 221.12 171.47 220.8 171.137 220.44L172.877 218.68C173.197 219.027 173.577 219.3 174.017 219.5C174.457 219.687 174.937 219.78 175.457 219.78C175.817 219.78 176.09 219.727 176.277 219.62C176.477 219.513 176.577 219.367 176.577 219.18C176.577 218.94 176.457 218.76 176.217 218.64C175.99 218.507 175.697 218.393 175.337 218.3C174.977 218.193 174.597 218.08 174.197 217.96C173.797 217.84 173.417 217.673 173.057 217.46C172.697 217.247 172.404 216.953 172.177 216.58C171.95 216.193 171.837 215.707 171.837 215.12C171.837 214.493 171.997 213.953 172.317 213.5C172.637 213.033 173.09 212.667 173.677 212.4C174.264 212.133 174.95 212 175.737 212C176.564 212 177.324 212.147 178.017 212.44C178.724 212.72 179.297 213.14 179.737 213.7L177.997 215.46C177.69 215.1 177.344 214.847 176.957 214.7C176.584 214.553 176.217 214.48 175.857 214.48C175.51 214.48 175.25 214.533 175.077 214.64C174.904 214.733 174.817 214.873 174.817 215.06C174.817 215.26 174.93 215.42 175.157 215.54C175.384 215.66 175.677 215.767 176.037 215.86C176.397 215.953 176.777 216.067 177.177 216.2C177.577 216.333 177.957 216.513 178.317 216.74C178.677 216.967 178.97 217.273 179.197 217.66C179.424 218.033 179.537 218.527 179.537 219.14C179.537 220.087 179.177 220.84 178.457 221.4C177.75 221.96 176.79 222.24 175.577 222.24ZM182.577 222V208.26H185.637V222H182.577ZM180.377 214.88V212.28H187.837V214.88H180.377ZM220.409 222V208.26H223.469V222H220.409ZM218.209 214.88V212.28H225.669V214.88H218.209ZM231.622 222.22C230.569 222.22 229.629 222.007 228.802 221.58C227.989 221.14 227.349 220.533 226.882 219.76C226.416 218.987 226.182 218.113 226.182 217.14C226.182 216.167 226.409 215.3 226.862 214.54C227.329 213.767 227.956 213.16 228.742 212.72C229.529 212.28 230.416 212.06 231.402 212.06C232.362 212.06 233.209 212.267 233.942 212.68C234.676 213.093 235.249 213.667 235.662 214.4C236.089 215.133 236.302 215.973 236.302 216.92C236.302 217.093 236.289 217.28 236.262 217.48C236.249 217.667 236.216 217.887 236.162 218.14L227.782 218.16V216.06L234.862 216.04L233.542 216.92C233.529 216.36 233.442 215.9 233.282 215.54C233.122 215.167 232.882 214.887 232.562 214.7C232.256 214.5 231.876 214.4 231.422 214.4C230.942 214.4 230.522 214.513 230.162 214.74C229.816 214.953 229.542 215.26 229.342 215.66C229.156 216.06 229.062 216.547 229.062 217.12C229.062 217.693 229.162 218.187 229.362 218.6C229.576 219 229.869 219.313 230.242 219.54C230.629 219.753 231.082 219.86 231.602 219.86C232.082 219.86 232.516 219.78 232.902 219.62C233.289 219.447 233.629 219.193 233.922 218.86L235.602 220.54C235.122 221.1 234.542 221.52 233.862 221.8C233.182 222.08 232.436 222.22 231.622 222.22ZM243.545 222L241.205 218.22L240.545 217.8L236.725 212.28H240.305L242.485 215.82L243.125 216.22L247.085 222H243.545ZM236.545 222L240.525 216.34L242.265 218.3L239.885 222H236.545ZM243.105 217.78L241.365 215.82L243.565 212.28H246.885L243.105 217.78ZM258.144 222V208.26H261.204V222H258.144ZM255.944 214.88V212.28H263.404V214.88H255.944ZM269.357 222.22C268.303 222.22 267.363 222.007 266.537 221.58C265.723 221.14 265.083 220.533 264.617 219.76C264.15 218.987 263.917 218.113 263.917 217.14C263.917 216.167 264.143 215.3 264.597 214.54C265.063 213.767 265.69 213.16 266.477 212.72C267.263 212.28 268.15 212.06 269.137 212.06C270.097 212.06 270.943 212.267 271.677 212.68C272.41 213.093 272.983 213.667 273.397 214.4C273.823 215.133 274.037 215.973 274.037 216.92C274.037 217.093 274.023 217.28 273.997 217.48C273.983 217.667 273.95 217.887 273.897 218.14L265.517 218.16V216.06L272.597 216.04L271.277 216.92C271.263 216.36 271.177 215.9 271.017 215.54C270.857 215.167 270.617 214.887 270.297 214.7C269.99 214.5 269.61 214.4 269.157 214.4C268.677 214.4 268.257 214.513 267.897 214.74C267.55 214.953 267.277 215.26 267.077 215.66C266.89 216.06 266.797 216.547 266.797 217.12C266.797 217.693 266.897 218.187 267.097 218.6C267.31 219 267.603 219.313 267.977 219.54C268.363 219.753 268.817 219.86 269.337 219.86C269.817 219.86 270.25 219.78 270.637 219.62C271.023 219.447 271.363 219.193 271.657 218.86L273.337 220.54C272.857 221.1 272.277 221.52 271.597 221.8C270.917 222.08 270.17 222.22 269.357 222.22Z" fill="#E21B54"/>
<path d="M214.303 118.24V115.56H221.383V118.24H214.303ZM251.002 118.24V115.56H258.082V118.24H251.002ZM280.396 118.24V115.56H287.476V118.24H280.396ZM302.603 118.24V115.56H309.683V118.24H302.603ZM194.693 168.24V165.56H201.773V168.24H194.693ZM176.217 193.24V190.56H183.297V193.24H176.217ZM214.459 193.24V190.56H221.539V193.24H214.459ZM247.76 218.24V215.56H254.84V218.24H247.76Z" fill="black"/>
<rect x="148" y="43" width="253" height="20" rx="10" fill="white"/>
<path opacity="0.6" d="M162.252 57L160.072 51.1836H161.662L163.083 55.4104L162.601 55.4225L164.058 51.1836H165.202L166.659 55.4225L166.178 55.4104L167.599 51.1836H169.188L167.021 57H165.877L164.407 52.9779H164.853L163.384 57H162.252ZM172.441 57L170.261 51.1836H171.851L173.272 55.4104L172.79 55.4225L174.247 51.1836H175.391L176.848 55.4225L176.366 55.4104L177.787 51.1836H179.377L177.209 57H176.065L174.596 52.9779H175.042L173.573 57H172.441ZM182.629 57L180.45 51.1836H182.039L183.46 55.4104L182.979 55.4225L184.436 51.1836H185.58L187.037 55.4225L186.555 55.4104L187.976 51.1836H189.566L187.398 57H186.254L184.785 52.9779H185.231L183.761 57H182.629ZM192.266 57.1204C191.977 57.1204 191.74 57.0241 191.556 56.8314C191.371 56.6387 191.279 56.4019 191.279 56.1209C191.279 55.8399 191.371 55.6031 191.556 55.4104C191.74 55.2178 191.977 55.1214 192.266 55.1214C192.547 55.1214 192.78 55.2178 192.965 55.4104C193.149 55.6031 193.242 55.8399 193.242 56.1209C193.242 56.4019 193.149 56.6387 192.965 56.8314C192.78 57.0241 192.547 57.1204 192.266 57.1204ZM195.938 57V51.1836H197.516V57H195.938ZM199.732 57V53.568C199.732 53.2308 199.623 52.9699 199.406 52.7852C199.198 52.5926 198.937 52.4962 198.624 52.4962C198.415 52.4962 198.226 52.5404 198.058 52.6287C197.889 52.709 197.757 52.8294 197.66 52.99C197.564 53.1505 197.516 53.3432 197.516 53.568L196.902 53.2669C196.902 52.8174 196.998 52.428 197.191 52.0988C197.391 51.7697 197.66 51.5168 197.997 51.3402C198.335 51.1555 198.716 51.0632 199.141 51.0632C199.543 51.0632 199.908 51.1555 200.237 51.3402C200.566 51.5168 200.827 51.7697 201.02 52.0988C201.213 52.42 201.309 52.8093 201.309 53.2669V57H199.732ZM203.525 57V53.568C203.525 53.2308 203.416 52.9699 203.2 52.7852C202.991 52.5926 202.73 52.4962 202.417 52.4962C202.216 52.4962 202.028 52.5404 201.851 52.6287C201.682 52.709 201.55 52.8294 201.454 52.99C201.357 53.1505 201.309 53.3432 201.309 53.568L200.406 53.3512C200.438 52.8856 200.562 52.4842 200.779 52.147C200.996 51.8018 201.281 51.5369 201.634 51.3522C201.987 51.1595 202.381 51.0632 202.814 51.0632C203.248 51.0632 203.637 51.1555 203.982 51.3402C204.328 51.5168 204.601 51.7737 204.801 52.1109C205.002 52.4481 205.102 52.8495 205.102 53.3151V57H203.525ZM210.018 57.1204C209.488 57.1204 209.01 56.988 208.585 56.723C208.159 56.4581 207.826 56.0968 207.585 55.6392C207.344 55.1816 207.224 54.6678 207.224 54.0978C207.224 53.5198 207.344 53.002 207.585 52.5444C207.826 52.0868 208.159 51.7255 208.585 51.4606C209.01 51.1957 209.488 51.0632 210.018 51.0632C210.435 51.0632 210.809 51.1475 211.138 51.3161C211.467 51.4847 211.728 51.7215 211.92 52.0266C212.121 52.3236 212.23 52.6608 212.246 53.0381V55.1335C212.23 55.5188 212.121 55.86 211.92 56.157C211.728 56.4541 211.467 56.6909 211.138 56.8675C210.809 57.0361 210.435 57.1204 210.018 57.1204ZM210.307 55.6633C210.748 55.6633 211.106 55.5188 211.379 55.2298C211.652 54.9328 211.788 54.5514 211.788 54.0858C211.788 53.7807 211.724 53.5118 211.595 53.279C211.475 53.0381 211.302 52.8535 211.077 52.725C210.861 52.5886 210.604 52.5203 210.307 52.5203C210.018 52.5203 209.761 52.5886 209.536 52.725C209.319 52.8535 209.147 53.0381 209.018 53.279C208.898 53.5118 208.838 53.7807 208.838 54.0858C208.838 54.3989 208.898 54.6759 209.018 54.9167C209.147 55.1495 209.319 55.3342 209.536 55.4706C209.761 55.5991 210.018 55.6633 210.307 55.6633ZM211.704 57V55.4345L211.957 54.0135L211.704 52.6167V51.1836H213.269V57H211.704ZM215.869 54.6397V53.2067H220.036V54.6397H215.869ZM222.636 57V51.1836H224.213V57H222.636ZM224.213 53.7847L223.599 53.3753C223.671 52.6608 223.88 52.0988 224.225 51.6894C224.57 51.2719 225.068 51.0632 225.718 51.0632C225.999 51.0632 226.252 51.1114 226.477 51.2077C226.702 51.296 226.907 51.4445 227.091 51.6533L226.104 52.7852C226.015 52.6889 225.907 52.6167 225.779 52.5685C225.658 52.5203 225.518 52.4962 225.357 52.4962C225.02 52.4962 224.743 52.6046 224.526 52.8214C224.318 53.0301 224.213 53.3512 224.213 53.7847ZM231.467 57.1204C230.857 57.1204 230.315 56.992 229.841 56.7351C229.367 56.4701 228.99 56.1089 228.709 55.6513C228.436 55.1937 228.3 54.6718 228.3 54.0858C228.3 53.5078 228.432 52.994 228.697 52.5444C228.97 52.0868 229.339 51.7255 229.805 51.4606C230.27 51.1876 230.788 51.0512 231.358 51.0512C231.92 51.0512 232.414 51.1796 232.839 51.4365C233.273 51.6854 233.61 52.0306 233.851 52.4721C234.1 52.9057 234.224 53.3994 234.224 53.9533C234.224 54.0577 234.216 54.1661 234.2 54.2785C234.192 54.3828 234.172 54.5033 234.14 54.6397L229.251 54.6518V53.4716L233.405 53.4596L232.767 53.9533C232.751 53.6081 232.687 53.3191 232.575 53.0863C232.47 52.8535 232.314 52.6769 232.105 52.5564C231.904 52.428 231.655 52.3638 231.358 52.3638C231.045 52.3638 230.772 52.436 230.539 52.5805C230.307 52.717 230.126 52.9137 229.998 53.1706C229.877 53.4195 229.817 53.7165 229.817 54.0617C229.817 54.4149 229.881 54.724 230.01 54.989C230.146 55.2459 230.339 55.4466 230.588 55.5911C230.836 55.7275 231.125 55.7958 231.455 55.7958C231.752 55.7958 232.021 55.7476 232.261 55.6513C232.502 55.5469 232.711 55.3944 232.888 55.1937L233.815 56.1209C233.534 56.4501 233.189 56.6989 232.779 56.8675C232.378 57.0361 231.94 57.1204 231.467 57.1204ZM238.403 57.1325C238.074 57.1325 237.749 57.0883 237.428 57C237.115 56.9117 236.826 56.7913 236.561 56.6387C236.296 56.4782 236.067 56.2855 235.874 56.0607L236.814 55.1094C237.014 55.3342 237.247 55.5028 237.512 55.6152C237.777 55.7275 238.07 55.7837 238.391 55.7837C238.648 55.7837 238.841 55.7476 238.969 55.6754C239.106 55.6031 239.174 55.4947 239.174 55.3502C239.174 55.1897 239.102 55.0652 238.957 54.9769C238.821 54.8886 238.64 54.8164 238.415 54.7602C238.19 54.6959 237.954 54.6277 237.705 54.5554C237.464 54.4752 237.231 54.3748 237.006 54.2544C236.781 54.1259 236.597 53.9533 236.452 53.7366C236.316 53.5118 236.248 53.2228 236.248 52.8695C236.248 52.5002 236.336 52.1791 236.513 51.9062C236.697 51.6332 236.958 51.4205 237.295 51.2679C237.632 51.1154 238.03 51.0391 238.487 51.0391C238.969 51.0391 239.403 51.1234 239.788 51.292C240.181 51.4606 240.507 51.7135 240.763 52.0507L239.812 53.002C239.635 52.7852 239.435 52.6287 239.21 52.5324C238.993 52.436 238.756 52.3879 238.499 52.3879C238.267 52.3879 238.086 52.424 237.958 52.4962C237.837 52.5685 237.777 52.6688 237.777 52.7973C237.777 52.9418 237.845 53.0542 237.982 53.1345C238.126 53.2147 238.311 53.287 238.536 53.3512C238.76 53.4074 238.993 53.4757 239.234 53.5559C239.483 53.6282 239.716 53.7326 239.933 53.869C240.157 54.0055 240.338 54.1861 240.474 54.4109C240.619 54.6357 240.691 54.9247 240.691 55.278C240.691 55.848 240.486 56.3016 240.077 56.6387C239.668 56.9679 239.11 57.1325 238.403 57.1325ZM244.958 57.1325C244.629 57.1325 244.304 57.0883 243.983 57C243.67 56.9117 243.381 56.7913 243.116 56.6387C242.851 56.4782 242.622 56.2855 242.429 56.0607L243.369 55.1094C243.569 55.3342 243.802 55.5028 244.067 55.6152C244.332 55.7275 244.625 55.7837 244.946 55.7837C245.203 55.7837 245.396 55.7476 245.524 55.6754C245.661 55.6031 245.729 55.4947 245.729 55.3502C245.729 55.1897 245.657 55.0652 245.512 54.9769C245.376 54.8886 245.195 54.8164 244.97 54.7602C244.745 54.6959 244.509 54.6277 244.26 54.5554C244.019 54.4752 243.786 54.3748 243.561 54.2544C243.336 54.1259 243.152 53.9533 243.007 53.7366C242.871 53.5118 242.803 53.2228 242.803 52.8695C242.803 52.5002 242.891 52.1791 243.068 51.9062C243.252 51.6332 243.513 51.4205 243.85 51.2679C244.187 51.1154 244.585 51.0391 245.042 51.0391C245.524 51.0391 245.958 51.1234 246.343 51.292C246.736 51.4606 247.061 51.7135 247.318 52.0507L246.367 53.002C246.19 52.7852 245.99 52.6287 245.765 52.5324C245.548 52.436 245.311 52.3879 245.054 52.3879C244.822 52.3879 244.641 52.424 244.513 52.4962C244.392 52.5685 244.332 52.6688 244.332 52.7973C244.332 52.9418 244.4 53.0542 244.537 53.1345C244.681 53.2147 244.866 53.287 245.091 53.3512C245.315 53.4074 245.548 53.4757 245.789 53.5559C246.038 53.6282 246.271 53.7326 246.487 53.869C246.712 54.0055 246.893 54.1861 247.029 54.4109C247.174 54.6357 247.246 54.9247 247.246 55.278C247.246 55.848 247.041 56.3016 246.632 56.6387C246.223 56.9679 245.665 57.1325 244.958 57.1325ZM252.248 57.1204C251.662 57.1204 251.132 56.988 250.658 56.723C250.192 56.4501 249.819 56.0848 249.538 55.6272C249.265 55.1616 249.129 54.6437 249.129 54.0738C249.129 53.5038 249.265 52.994 249.538 52.5444C249.811 52.0868 250.184 51.7255 250.658 51.4606C251.132 51.1876 251.658 51.0512 252.236 51.0512C252.83 51.0512 253.36 51.1876 253.825 51.4606C254.299 51.7255 254.672 52.0868 254.945 52.5444C255.218 52.994 255.355 53.5038 255.355 54.0738C255.355 54.6437 255.218 55.1616 254.945 55.6272C254.672 56.0848 254.299 56.4501 253.825 56.723C253.36 56.988 252.834 57.1204 252.248 57.1204ZM252.236 55.6513C252.533 55.6513 252.794 55.5871 253.018 55.4586C253.251 55.3221 253.428 55.1375 253.548 54.9047C253.677 54.6638 253.741 54.3909 253.741 54.0858C253.741 53.7807 253.677 53.5118 253.548 53.279C253.42 53.0462 253.243 52.8655 253.018 52.7371C252.794 52.6006 252.533 52.5324 252.236 52.5324C251.947 52.5324 251.69 52.6006 251.465 52.7371C251.24 52.8655 251.064 53.0462 250.935 53.279C250.807 53.5118 250.742 53.7807 250.742 54.0858C250.742 54.3909 250.807 54.6638 250.935 54.9047C251.064 55.1375 251.24 55.3221 251.465 55.4586C251.69 55.5871 251.947 55.6513 252.236 55.6513ZM260.055 57.1204C259.541 57.1204 259.084 57.012 258.682 56.7953C258.289 56.5785 257.98 56.2775 257.755 55.8921C257.53 55.5068 257.418 55.0612 257.418 54.5554V51.1836H259.007V54.5193C259.007 54.7602 259.048 54.9689 259.128 55.1455C259.208 55.3141 259.329 55.4425 259.489 55.5309C259.65 55.6192 259.838 55.6633 260.055 55.6633C260.384 55.6633 260.641 55.563 260.826 55.3623C261.01 55.1616 261.103 54.8806 261.103 54.5193V51.1836H262.68V54.5554C262.68 55.0692 262.568 55.5188 262.343 55.9042C262.126 56.2895 261.817 56.5906 261.416 56.8073C261.022 57.0161 260.569 57.1204 260.055 57.1204ZM265.141 57V51.1836H266.718V57H265.141ZM266.718 53.7847L266.104 53.3753C266.176 52.6608 266.385 52.0988 266.73 51.6894C267.075 51.2719 267.573 51.0632 268.224 51.0632C268.504 51.0632 268.757 51.1114 268.982 51.2077C269.207 51.296 269.412 51.4445 269.596 51.6533L268.609 52.7852C268.521 52.6889 268.412 52.6167 268.284 52.5685C268.163 52.5203 268.023 52.4962 267.862 52.4962C267.525 52.4962 267.248 52.6046 267.031 52.8214C266.823 53.0301 266.718 53.3512 266.718 53.7847ZM273.936 57.1204C273.342 57.1204 272.808 56.988 272.334 56.723C271.86 56.4581 271.487 56.0968 271.214 55.6392C270.941 55.1816 270.805 54.6678 270.805 54.0978C270.805 53.5198 270.941 53.002 271.214 52.5444C271.487 52.0868 271.86 51.7255 272.334 51.4606C272.816 51.1876 273.35 51.0512 273.936 51.0512C274.393 51.0512 274.815 51.1355 275.2 51.3041C275.585 51.4726 275.919 51.7135 276.2 52.0266L275.188 53.0502C275.035 52.8816 274.851 52.7531 274.634 52.6648C274.425 52.5765 274.193 52.5324 273.936 52.5324C273.647 52.5324 273.386 52.6006 273.153 52.7371C272.928 52.8655 272.747 53.0462 272.611 53.279C272.483 53.5038 272.418 53.7727 272.418 54.0858C272.418 54.3909 272.483 54.6638 272.611 54.9047C272.747 55.1375 272.928 55.3221 273.153 55.4586C273.386 55.5871 273.647 55.6513 273.936 55.6513C274.201 55.6513 274.437 55.6071 274.646 55.5188C274.863 55.4225 275.048 55.286 275.2 55.1094L276.224 56.133C275.927 56.4541 275.585 56.6989 275.2 56.8675C274.815 57.0361 274.393 57.1204 273.936 57.1204ZM280.974 57.1204C280.363 57.1204 279.822 56.992 279.348 56.7351C278.874 56.4701 278.497 56.1089 278.216 55.6513C277.943 55.1937 277.807 54.6718 277.807 54.0858C277.807 53.5078 277.939 52.994 278.204 52.5444C278.477 52.0868 278.846 51.7255 279.312 51.4606C279.777 51.1876 280.295 51.0512 280.865 51.0512C281.427 51.0512 281.921 51.1796 282.346 51.4365C282.78 51.6854 283.117 52.0306 283.358 52.4721C283.607 52.9057 283.731 53.3994 283.731 53.9533C283.731 54.0577 283.723 54.1661 283.707 54.2785C283.699 54.3828 283.679 54.5033 283.647 54.6397L278.758 54.6518V53.4716L282.912 53.4596L282.274 53.9533C282.258 53.6081 282.194 53.3191 282.081 53.0863C281.977 52.8535 281.821 52.6769 281.612 52.5564C281.411 52.428 281.162 52.3638 280.865 52.3638C280.552 52.3638 280.279 52.436 280.046 52.5805C279.814 52.717 279.633 52.9137 279.504 53.1706C279.384 53.4195 279.324 53.7165 279.324 54.0617C279.324 54.4149 279.388 54.724 279.517 54.989C279.653 55.2459 279.846 55.4466 280.095 55.5911C280.343 55.7275 280.632 55.7958 280.962 55.7958C281.259 55.7958 281.528 55.7476 281.768 55.6513C282.009 55.5469 282.218 55.3944 282.395 55.1937L283.322 56.1209C283.041 56.4501 282.696 56.6989 282.286 56.8675C281.885 57.0361 281.447 57.1204 280.974 57.1204ZM286.995 57.1204C286.706 57.1204 286.469 57.0241 286.284 56.8314C286.1 56.6387 286.007 56.4019 286.007 56.1209C286.007 55.8399 286.1 55.6031 286.284 55.4104C286.469 55.2178 286.706 55.1214 286.995 55.1214C287.276 55.1214 287.509 55.2178 287.693 55.4104C287.878 55.6031 287.97 55.8399 287.97 56.1209C287.97 56.4019 287.878 56.6387 287.693 56.8314C287.509 57.0241 287.276 57.1204 286.995 57.1204ZM291.061 57V50.5574C291.061 50.0918 291.162 49.6824 291.362 49.3291C291.563 48.9679 291.848 48.6829 292.217 48.4741C292.587 48.2654 293.02 48.1611 293.518 48.1611C293.895 48.1611 294.22 48.2253 294.493 48.3537C294.766 48.4822 295.011 48.6588 295.228 48.8836L294.228 49.8951C294.14 49.8068 294.044 49.7386 293.939 49.6904C293.835 49.6422 293.702 49.6182 293.542 49.6182C293.253 49.6182 293.028 49.6984 292.868 49.859C292.715 50.0115 292.639 50.2323 292.639 50.5213V57H291.061ZM289.712 52.5685V51.1836H294.361V52.5685H289.712ZM296.328 57V51.1836H297.906V57H296.328ZM297.906 53.7847L297.291 53.3753C297.364 52.6608 297.572 52.0988 297.918 51.6894C298.263 51.2719 298.761 51.0632 299.411 51.0632C299.692 51.0632 299.945 51.1114 300.169 51.2077C300.394 51.296 300.599 51.4445 300.784 51.6533L299.796 52.7852C299.708 52.6889 299.599 52.6167 299.471 52.5685C299.351 52.5203 299.21 52.4962 299.05 52.4962C298.712 52.4962 298.435 52.6046 298.219 52.8214C298.01 53.0301 297.906 53.3512 297.906 53.7847Z" fill="#010003"/>
<circle cx="382" cy="138" r="13" fill="url(#paint4_linear_7394_216)"/>
<path d="M352.201 189.183L325 213.34V238H460V196.732L424 160.5L377.388 207.804L352.201 189.183Z" fill="url(#paint5_linear_7394_216)"/>
<defs>
<filter id="filter0_d_7394_216" x="97.8074" y="0.807423" width="423.385" height="382.914" filterUnits="userSpaceOnUse" color-interpolation-filters="sRGB">
<feFlood flood-opacity="0" result="BackgroundImageFix"/>
<feColorMatrix in="SourceAlpha" type="matrix" values="0 0 0 0 0 0 0 0 0 0 0 0 0 0 0 0 0 0 127 0" result="hardAlpha"/>
<feOffset/>
<feGaussianBlur stdDeviation="15.5963"/>
<feComposite in2="hardAlpha" operator="out"/>
<feColorMatrix type="matrix" values="0 0 0 0 0 0 0 0 0 0 0 0 0 0 0 0 0 0 0.25 0"/>
<feBlend mode="normal" in2="BackgroundImageFix" result="effect1_dropShadow_7394_216"/>
<feBlend mode="normal" in="SourceGraphic" in2="effect1_dropShadow_7394_216" result="shape"/>
</filter>
<filter id="filter1_d_7394_216" x="0.214437" y="89.8941" width="177.571" height="178.684" filterUnits="userSpaceOnUse" color-interpolation-filters="sRGB">
<feFlood flood-opacity="0" result="BackgroundImageFix"/>
<feColorMatrix in="SourceAlpha" type="matrix" values="0 0 0 0 0 0 0 0 0 0 0 0 0 0 0 0 0 0 127 0" result="hardAlpha"/>
<feOffset/>
<feGaussianBlur stdDeviation="14.8928"/>
<feComposite in2="hardAlpha" operator="out"/>
<feColorMatrix type="matrix" values="0 0 0 0 0 0 0 0 0 0 0 0 0 0 0 0 0 0 0.25 0"/>
<feBlend mode="normal" in2="BackgroundImageFix" result="effect1_dropShadow_7394_216"/>
<feBlend mode="normal" in="SourceGraphic" in2="effect1_dropShadow_7394_216" result="shape"/>
</filter>
<linearGradient id="paint0_linear_7394_216" x1="205.438" y1="66.1282" x2="212.073" y2="5.89562" gradientUnits="userSpaceOnUse">
<stop stop-color="#DB2667"/>
<stop offset="1" stop-color="#FF4B9F"/>
</linearGradient>
<linearGradient id="paint1_linear_7394_216" x1="352.862" y1="209.789" x2="449.206" y2="105.848" gradientUnits="userSpaceOnUse">
<stop stop-color="#DB2667"/>
<stop offset="1" stop-color="#FF4B9F"/>
</linearGradient>
<linearGradient id="paint2_linear_7394_216" x1="223.522" y1="307.142" x2="237.833" y2="227.283" gradientUnits="userSpaceOnUse">
<stop stop-color="#DB2667"/>
<stop offset="1" stop-color="#FF4B9F"/>
</linearGradient>
<linearGradient id="paint3_linear_7394_216" x1="70.4439" y1="185.718" x2="108.602" y2="138.196" gradientUnits="userSpaceOnUse">
<stop stop-color="#DB2667"/>
<stop offset="1" stop-color="#FF4B9F"/>
</linearGradient>
<linearGradient id="paint4_linear_7394_216" x1="374.505" y1="145.684" x2="392.926" y2="125.811" gradientUnits="userSpaceOnUse">
<stop stop-color="#DB2667"/>
<stop offset="1" stop-color="#FF4B9F"/>
</linearGradient>
<linearGradient id="paint5_linear_7394_216" x1="353.585" y1="222.155" x2="399.257" y2="136.323" gradientUnits="userSpaceOnUse">
<stop stop-color="#DB2667"/>
<stop offset="1" stop-color="#FF4B9F"/>
</linearGradient>
</defs>
</svg>
