<svg width="508" height="123" viewBox="0 0 508 123" fill="none" xmlns="http://www.w3.org/2000/svg">
<g filter="url(#filter0_d_7034_258)">
<path d="M44.5156 31.7796C44.5156 26.7836 48.5657 22.7335 53.5618 22.7335H476.324C481.32 22.7335 485.37 26.7836 485.37 31.7797V91.9098C485.37 96.9059 481.32 100.956 476.324 100.956H53.5618C48.5657 100.956 44.5156 96.9059 44.5156 91.9098V31.7796Z" fill="white"/>
<path d="M485.37 93.0004C485.37 97.4186 481.788 101 477.37 101L416.824 101L416.824 22.5333L476.324 22.5333C481.32 22.5333 485.37 26.5834 485.37 31.5794L485.37 93.0004Z" fill="url(#paint0_linear_7034_258)"/>
<path d="M437.552 60.812C437.489 61.3376 437.446 61.8842 437.446 62.4519C437.446 63.0195 437.489 63.5661 437.573 64.0917L433.987 66.8667C433.669 67.119 433.584 67.5815 433.775 67.9389L437.17 73.7624C437.382 74.1408 437.828 74.267 438.21 74.1408L442.433 72.459C443.324 73.1317 444.258 73.6783 445.298 74.0988L445.934 78.5557C445.998 78.9762 446.359 79.2705 446.783 79.2705L453.574 79.2705C453.998 79.2705 454.337 78.9762 454.401 78.5557L455.038 74.0988C456.078 73.6783 457.032 73.1107 457.902 72.459L462.125 74.1408C462.507 74.288 462.953 74.1408 463.165 73.7624L466.56 67.9389C466.773 67.5605 466.688 67.119 466.348 66.8668L462.762 64.0917C462.847 63.5661 462.911 62.9985 462.911 62.4519C462.911 61.9053 462.868 61.3376 462.783 60.812L466.369 58.037C466.688 57.7847 466.773 57.3222 466.582 56.9648L463.186 51.1413C462.974 50.7629 462.529 50.6368 462.147 50.7629L457.924 52.4448C457.032 51.772 456.099 51.2254 455.059 50.8049L454.422 46.348C454.337 45.9275 453.998 45.6332 453.574 45.6332L446.783 45.6332C446.359 45.6332 445.998 45.9275 445.955 46.348L445.319 50.8049C444.279 51.2254 443.324 51.793 442.454 52.4448L438.231 50.7629C437.849 50.6157 437.404 50.7629 437.191 51.1413L433.796 56.9648C433.584 57.3432 433.669 57.7847 434.008 58.037L437.552 60.812ZM450.178 56.1449C453.68 56.1449 456.544 58.983 456.544 62.4519C456.544 65.9207 453.68 68.7588 450.178 68.7588C446.677 68.7588 443.812 65.9207 443.812 62.4519C443.812 58.983 446.677 56.1449 450.178 56.1449Z" fill="white"/>
<rect x="281.012" y="45.3448" width="37.6823" height="3.63232" rx="1.81616" fill="#521E82"/>
<rect x="307.603" y="63.5079" width="10.94" height="3.63232" rx="1.81616" fill="#521E82"/>
<rect x="280.861" y="54.0295" width="37.7933" height="3.61965" rx="1.80983" fill="#521E82"/>
<rect x="307.603" y="72.1945" width="10.94" height="3.61965" rx="1.80983" fill="#521E82"/>
<path fill-rule="evenodd" clip-rule="evenodd" d="M301.331 64.7957V64.8676V65.2712L301.331 75.26L300.227 73.9483C299.962 73.6456 299.564 73.6456 299.299 73.8979C299.034 74.2006 299.034 74.6546 299.255 74.9573L301.508 77.6815C301.64 77.8328 301.817 77.9337 301.994 77.9337C302.17 77.9337 302.347 77.8328 302.48 77.6815L304.732 74.9573C304.865 74.8059 304.909 74.6041 304.909 74.4528C304.909 74.251 304.821 74.0492 304.688 73.8979C304.423 73.5952 303.981 73.6456 303.761 73.9483L302.656 75.26V75.185C302.667 75.1369 302.673 75.0873 302.673 75.0368V74.4278V74.0531L302.673 64.7778L303.777 65.9958C304.042 66.2768 304.439 66.2768 304.704 66.0426C304.969 65.7616 304.969 65.34 304.749 65.0589L302.496 62.5293C302.363 62.3887 302.187 62.295 302.01 62.295C301.833 62.295 301.657 62.3887 301.524 62.5293L299.271 65.0589C299.139 65.1994 299.095 65.3868 299.095 65.5273C299.095 65.7147 299.183 65.9021 299.316 66.0426C299.581 66.3237 300.022 66.2768 300.243 65.9958L301.331 64.7957Z" fill="#521E82"/>
<path d="M301.331 64.7957H301.518V64.3121L301.193 64.6703L301.331 64.7957ZM301.331 65.2712L301.145 65.2712V65.2712L301.331 65.2712ZM301.331 75.26L301.189 75.3801L301.518 75.7713L301.518 75.26L301.331 75.26ZM300.227 73.9483L300.37 73.8281L300.367 73.8254L300.227 73.9483ZM299.299 73.8979L299.171 73.7627L299.165 73.7686L299.159 73.775L299.299 73.8979ZM299.255 74.9573L299.104 75.0674L299.111 75.0762L299.255 74.9573ZM301.508 77.6815L301.364 77.8004L301.368 77.8044L301.508 77.6815ZM302.48 77.6815L302.62 77.8044L302.623 77.8004L302.48 77.6815ZM304.732 74.9573L304.592 74.8343L304.589 74.8384L304.732 74.9573ZM304.688 73.8979L304.548 74.0208L304.548 74.0208L304.688 73.8979ZM303.761 73.9483L303.904 74.0688L303.911 74.0583L303.761 73.9483ZM302.656 75.26H302.47V75.7713L302.799 75.3801L302.656 75.26ZM302.656 75.185L302.474 75.145L302.47 75.1648V75.185H302.656ZM302.673 74.0531L302.486 74.0531V74.0531H302.673ZM302.673 64.7778L302.811 64.6525L302.486 64.2943L302.486 64.7778L302.673 64.7778ZM303.777 65.9958L303.639 66.1211L303.641 66.1238L303.777 65.9958ZM304.704 66.0426L304.828 66.1824L304.834 66.1768L304.84 66.1706L304.704 66.0426ZM304.749 65.0589L304.896 64.9434L304.888 64.9348L304.749 65.0589ZM302.496 62.5293L302.635 62.4051L302.632 62.4013L302.496 62.5293ZM301.524 62.5293L301.388 62.4012L301.385 62.4052L301.524 62.5293ZM299.271 65.0589L299.407 65.1869L299.411 65.183L299.271 65.0589ZM299.316 66.0426L299.451 65.9146L299.451 65.9146L299.316 66.0426ZM300.243 65.9958L300.105 65.8701L300.096 65.8805L300.243 65.9958ZM301.145 64.7957V64.8676H301.518V64.7957H301.145ZM301.145 64.8676V65.2712H301.518V64.8676H301.145ZM301.145 65.2712L301.145 75.26L301.518 75.26L301.518 65.2712L301.145 65.2712ZM301.474 75.1398L300.37 73.8281L300.084 74.0685L301.189 75.3801L301.474 75.1398ZM300.367 73.8254C300.031 73.4409 299.511 73.4392 299.171 73.7627L299.428 74.033C299.618 73.8521 299.893 73.8503 300.087 74.0712L300.367 73.8254ZM299.159 73.775C298.833 74.1469 298.835 74.698 299.105 75.0672L299.406 74.8473C299.234 74.6112 299.235 74.2542 299.44 74.0208L299.159 73.775ZM299.111 75.0762L301.364 77.8004L301.652 77.5626L299.399 74.8384L299.111 75.0762ZM301.368 77.8044C301.523 77.9821 301.747 78.1203 301.994 78.1203V77.7471C301.887 77.7471 301.758 77.6835 301.648 77.5586L301.368 77.8044ZM301.994 78.1203C302.24 78.1203 302.464 77.9821 302.62 77.8044L302.339 77.5586C302.23 77.6835 302.101 77.7471 301.994 77.7471V78.1203ZM302.623 77.8004L304.876 75.0762L304.589 74.8384L302.336 77.5626L302.623 77.8004ZM304.873 75.0802C305.044 74.8844 305.096 74.6332 305.096 74.4528H304.722C304.722 74.5751 304.686 74.7275 304.592 74.8344L304.873 75.0802ZM305.096 74.4528C305.096 74.1985 304.986 73.9544 304.829 73.775L304.548 74.0208C304.656 74.144 304.722 74.3035 304.722 74.4528H305.096ZM304.829 73.775C304.477 73.3737 303.894 73.4485 303.61 73.8383L303.911 74.0583C304.069 73.8427 304.369 73.8167 304.548 74.0208L304.829 73.775ZM303.618 73.8281L302.514 75.1398L302.799 75.3801L303.903 74.0685L303.618 73.8281ZM302.843 75.26V75.185H302.47V75.26H302.843ZM302.839 75.2251C302.852 75.1642 302.859 75.1011 302.859 75.0368H302.486C302.486 75.0734 302.482 75.1096 302.474 75.145L302.839 75.2251ZM302.859 75.0368V74.4278H302.486V75.0368H302.859ZM302.859 74.4278V74.0531H302.486V74.4278H302.859ZM302.859 74.0531L302.859 64.7778L302.486 64.7778L302.486 74.0531L302.859 74.0531ZM302.534 64.9031L303.639 66.1211L303.915 65.8705L302.811 64.6525L302.534 64.9031ZM303.641 66.1238C303.978 66.4807 304.49 66.481 304.828 66.1824L304.581 65.9028C304.389 66.0727 304.106 66.073 303.913 65.8678L303.641 66.1238ZM304.84 66.1706C305.172 65.8191 305.17 65.2938 304.895 64.9436L304.602 65.1742C304.768 65.3861 304.767 65.704 304.569 65.9146L304.84 66.1706ZM304.888 64.9348L302.635 62.4052L302.357 62.6534L304.609 65.183L304.888 64.9348ZM302.632 62.4013C302.474 62.2343 302.251 62.1085 302.01 62.1085V62.4816C302.122 62.4816 302.253 62.5432 302.36 62.6573L302.632 62.4013ZM302.01 62.1085C301.769 62.1085 301.546 62.2343 301.388 62.4013L301.66 62.6573C301.767 62.5432 301.898 62.4816 302.01 62.4816V62.1085ZM301.385 62.4052L299.132 64.9348L299.411 65.183L301.663 62.6534L301.385 62.4052ZM299.136 64.9309C298.961 65.1157 298.908 65.3544 298.908 65.5273H299.281C299.281 65.4192 299.316 65.2831 299.407 65.1869L299.136 64.9309ZM298.908 65.5273C298.908 65.7716 299.022 66.0029 299.18 66.1706L299.451 65.9146C299.344 65.8013 299.281 65.6578 299.281 65.5273H298.908ZM299.18 66.1706C299.529 66.5411 300.104 66.4747 300.39 66.1111L300.096 65.8805C299.941 66.0789 299.632 66.1063 299.451 65.9146L299.18 66.1706ZM300.381 66.1211L301.469 64.921L301.193 64.6703L300.105 65.8705L300.381 66.1211Z" fill="#521E82"/>
<path d="M282.405 78.0351C281.254 78.0351 280.508 76.7576 281.03 75.6788L286.889 63.5605C287.265 62.7841 288.023 62.295 288.852 62.295C289.689 62.295 290.454 62.7942 290.825 63.583L296.497 75.6364C297.016 76.741 296.252 78.0351 295.08 78.0351C294.467 78.0351 293.909 77.6628 293.649 77.0798L288.494 65.5445C288.374 65.2761 288.56 64.9676 288.842 64.9676C289.127 64.9676 289.313 65.2816 289.188 65.5506L283.79 77.1272C283.531 77.6829 282.994 78.0351 282.405 78.0351ZM285.395 74.4275C284.76 74.4275 284.245 73.8862 284.245 73.2185C284.245 72.5508 284.76 72.0095 285.395 72.0095H292.349C292.984 72.0095 293.499 72.5508 293.499 73.2185C293.499 73.8862 292.984 74.4275 292.349 74.4275H285.395Z" fill="#521E82"/>
<path d="M104.337 73.3855C104.096 73.3871 103.857 73.3385 103.634 73.2426C103.411 73.1466 103.208 73.0051 103.038 72.8264C102.868 72.6494 102.733 72.439 102.641 72.2073C102.549 71.9756 102.502 71.7272 102.502 71.4763C102.502 71.2255 102.549 70.9771 102.641 70.7454C102.733 70.5137 102.868 70.3033 103.038 70.1262C104.225 68.8861 105.166 67.4137 105.808 65.7931C106.45 64.1724 106.781 62.4354 106.781 60.6811C106.781 58.9269 106.45 57.1898 105.808 55.5692C105.166 53.9486 104.225 52.4762 103.038 51.2361C102.868 51.059 102.733 50.8486 102.641 50.6169C102.549 50.3852 102.502 50.1368 102.502 49.8859C102.502 49.6351 102.549 49.3867 102.641 49.155C102.733 48.9233 102.868 48.7129 103.038 48.5358C103.208 48.3568 103.411 48.2147 103.633 48.1178C103.856 48.0209 104.095 47.9709 104.337 47.9709C104.578 47.9709 104.817 48.0209 105.04 48.1178C105.263 48.2147 105.465 48.3568 105.636 48.5358C107.168 50.1258 108.383 52.0181 109.21 54.1031C110.037 56.188 110.46 58.4239 110.454 60.6811C110.459 62.9381 110.036 65.1737 109.209 67.2583C108.381 69.3428 107.166 71.2347 105.633 72.8242C105.463 73.0023 105.26 73.1435 105.037 73.2394C104.815 73.3354 104.576 73.3842 104.335 73.3832V73.3832L104.337 73.3855ZM97.8428 69.7845C97.6017 69.7861 97.3627 69.7375 97.1397 69.6415C96.9167 69.5455 96.7142 69.4041 96.5441 69.2254C96.3741 69.0483 96.2392 68.8379 96.1472 68.6063C96.0552 68.3746 96.0078 68.1262 96.0078 67.8753C96.0078 67.6244 96.0552 67.376 96.1472 67.1443C96.2392 66.9127 96.3741 66.7022 96.5441 66.5252C98.0269 64.9746 98.86 62.8717 98.86 60.6789C98.86 58.4861 98.0269 56.3831 96.5441 54.8326C96.3741 54.6555 96.2392 54.4451 96.1472 54.2134C96.0552 53.9817 96.0078 53.7333 96.0078 53.4825C96.0078 53.2316 96.0552 52.9832 96.1472 52.7515C96.2392 52.5198 96.3741 52.3094 96.5441 52.1324C96.7143 51.9533 96.9166 51.8113 97.1395 51.7143C97.3624 51.6174 97.6014 51.5675 97.8428 51.5675C98.0843 51.5675 98.3233 51.6174 98.5462 51.7143C98.7691 51.8113 98.9714 51.9533 99.1416 52.1324C100.215 53.2545 101.067 54.5869 101.648 56.0533C102.229 57.5198 102.528 59.0916 102.528 60.6789C102.528 62.2662 102.229 63.838 101.648 65.3044C101.067 66.7709 100.215 68.1032 99.1416 69.2254C98.9711 69.4036 98.7686 69.5447 98.5457 69.6406C98.3228 69.7366 98.0839 69.7855 97.8428 69.7845V69.7845Z" fill="#521E82"/>
<path d="M90.8737 78.4996C90.5495 78.5 90.2384 78.3666 90.0078 78.1284L80.6155 68.3166H76.2429C75.9204 68.316 75.6113 68.1818 75.3833 67.9434C75.1553 67.705 75.0269 67.3818 75.0264 67.0446V54.3153C75.0275 53.9786 75.1561 53.6559 75.3841 53.418C75.612 53.1801 75.9208 53.0462 76.2429 53.0456H80.6155L90.0121 43.2338C90.1828 43.0556 90.4002 42.9343 90.6369 42.8856C90.8735 42.8368 91.1187 42.8627 91.3412 42.96C91.5641 43.0562 91.7546 43.2195 91.8886 43.429C92.0227 43.6385 92.0944 43.8848 92.0945 44.1369V77.2275C92.0928 77.4784 92.0201 77.7231 91.8857 77.931C91.7513 78.1388 91.5611 78.3004 91.3391 78.3954C91.1921 78.4622 91.0339 78.4976 90.8737 78.4996V78.4996Z" fill="#521E82"/>
<path d="M389.418 45.6624C388.696 45.6624 388.021 45.7138 387.299 45.7138V43.0892C387.299 42.4718 386.817 41.9572 386.239 41.9572C379.784 41.9572 373.474 43.2951 367.549 45.9713C361.624 43.2952 355.362 41.9572 348.907 41.9572C348.329 41.9572 347.847 42.4718 347.847 43.0892V45.7138C347.173 45.6624 346.45 45.6624 345.728 45.6624C345.15 45.6624 344.668 46.177 344.668 46.7945V75.1503C344.668 75.7678 345.15 76.2824 345.728 76.2824C353.098 76.2824 360.323 77.8777 367.164 80.9655C367.308 81.0169 367.453 81.0684 367.597 81.0684C367.742 81.0684 367.886 81.0684 368.031 80.9655C374.823 77.8781 382.048 76.2824 389.418 76.2824C389.996 76.2824 390.478 75.8192 390.478 75.1503V46.7945C390.478 46.1768 389.996 45.6622 389.418 45.6622L389.418 45.6624ZM366.537 75.3563C361.19 73.1433 355.651 71.9084 349.918 71.7539V44.2214C355.651 44.3759 361.238 45.6108 366.537 47.9783V75.3563ZM385.276 71.8053C379.543 71.9082 374.004 73.1433 368.657 75.4077V47.9267C373.956 45.6109 379.543 44.3243 385.276 44.1698V71.8053Z" fill="#521E82"/>
<path d="M372.656 53.1228C372.752 53.1228 372.848 53.1228 372.945 53.0713C375.69 52.1966 378.484 51.5789 381.326 51.2702C381.904 51.2187 382.29 50.6527 382.242 50.035C382.193 49.4176 381.664 49.0058 381.085 49.0572C378.147 49.4174 375.209 50.035 372.366 50.9612C371.837 51.1157 371.499 51.7332 371.644 52.3506C371.788 52.814 372.222 53.1227 372.655 53.1227L372.656 53.1228Z" fill="#521E82"/>
<path d="M362.438 53.1228C362.342 53.1228 362.245 53.1228 362.149 53.0713C359.404 52.1966 356.61 51.5789 353.768 51.2702C353.19 51.2187 352.804 50.6527 352.852 50.035C352.9 49.4176 353.43 49.0058 354.008 49.0572C356.947 49.4174 359.885 50.035 362.727 50.9612C363.257 51.1157 363.594 51.7332 363.45 52.3506C363.305 52.814 362.872 53.1227 362.438 53.1227L362.438 53.1228Z" fill="#521E82"/>
<path d="M381.134 54.4617C378.195 54.8219 375.257 55.4395 372.366 56.3657C371.837 56.5202 371.499 57.1377 371.644 57.7551C371.789 58.2183 372.174 58.5271 372.655 58.5271C372.752 58.5271 372.848 58.5271 372.944 58.4756C375.69 57.6009 378.484 56.9832 381.326 56.6745C381.904 56.623 382.29 56.057 382.241 55.4393C382.193 54.8218 381.712 54.3586 381.133 54.4616L381.134 54.4617Z" fill="#521E82"/>
<path d="M353.96 54.4617C356.899 54.8219 359.837 55.4395 362.727 56.3657C363.257 56.5202 363.594 57.1377 363.45 57.7551C363.305 58.2183 362.92 58.5271 362.438 58.5271C362.342 58.5271 362.246 58.5271 362.149 58.4756C359.404 57.6009 356.61 56.9832 353.768 56.6745C353.19 56.623 352.804 56.057 352.852 55.4393C352.9 54.8218 353.382 54.3586 353.96 54.4616L353.96 54.4617Z" fill="#521E82"/>
<path d="M381.134 59.8156C378.195 60.1758 375.257 60.7934 372.366 61.7196C371.837 61.8741 371.499 62.4916 371.644 63.109C371.789 63.5722 372.174 63.881 372.655 63.881C372.752 63.881 372.848 63.881 372.944 63.8295C375.69 62.9548 378.484 62.3371 381.326 62.0284C381.904 61.9769 382.29 61.4109 382.241 60.7932C382.193 60.2273 381.712 59.7641 381.133 59.8156L381.134 59.8156Z" fill="#521E82"/>
<path d="M353.96 59.8156C356.899 60.1758 359.837 60.7934 362.727 61.7196C363.257 61.8741 363.594 62.4916 363.45 63.109C363.305 63.5722 362.92 63.881 362.438 63.881C362.342 63.881 362.246 63.881 362.149 63.8295C359.404 62.9548 356.61 62.3371 353.768 62.0284C353.19 61.9769 352.804 61.4109 352.852 60.7932C352.9 60.2273 353.382 59.7641 353.96 59.8156L353.96 59.8156Z" fill="#521E82"/>
<path d="M381.134 65.2184C378.195 65.5785 375.257 66.1962 372.366 67.1224C371.837 67.2769 371.499 67.8943 371.644 68.5118C371.789 68.975 372.174 69.2837 372.655 69.2837C372.752 69.2837 372.848 69.2837 372.944 69.2323C375.69 68.3575 378.484 67.7399 381.326 67.4311C381.904 67.3797 382.29 66.8137 382.241 66.196C382.193 65.5786 381.712 65.1669 381.133 65.2183L381.134 65.2184Z" fill="#521E82"/>
<path d="M353.96 65.2184C356.899 65.5785 359.837 66.1962 362.727 67.1224C363.257 67.2769 363.594 67.8943 363.45 68.5118C363.305 68.975 362.92 69.2837 362.438 69.2837C362.342 69.2837 362.246 69.2837 362.149 69.2323C359.404 68.3575 356.61 67.7399 353.768 67.4311C353.19 67.3797 352.804 66.8137 352.852 66.196C352.9 65.5786 353.382 65.1669 353.96 65.2183L353.96 65.2184Z" fill="#521E82"/>
<path d="M171.499 63.2027C171.496 62.9495 171.388 62.7069 171.196 62.5245C171.004 62.3421 170.744 62.2335 170.467 62.221C170.191 62.2084 169.92 62.2929 169.71 62.4571C169.499 62.6212 169.365 62.8528 169.334 63.1045C169.334 63.4789 168.731 72.2752 159.85 72.2752C150.52 72.2752 150.292 63.5403 150.285 63.1474C150.282 62.8858 150.166 62.636 149.963 62.4522C149.759 62.2683 149.485 62.1653 149.199 62.1653V62.1653C148.913 62.1685 148.639 62.2756 148.438 62.463C148.237 62.6505 148.125 62.9032 148.127 63.1658C148.127 63.2763 148.328 73.5642 158.771 74.2149V79.5798H153.107C152.958 79.5691 152.808 79.5867 152.666 79.6316C152.525 79.6766 152.395 79.7478 152.285 79.8409C152.175 79.934 152.087 80.047 152.027 80.1727C151.967 80.2983 151.936 80.434 151.936 80.5712C151.936 80.7083 151.967 80.844 152.027 80.9697C152.087 81.0954 152.175 81.2083 152.285 81.3014C152.395 81.3945 152.525 81.4658 152.666 81.5107C152.808 81.5557 152.958 81.5733 153.107 81.5625H166.124C166.273 81.5733 166.423 81.5557 166.565 81.5107C166.706 81.4658 166.836 81.3945 166.946 81.3014C167.056 81.2083 167.144 81.0954 167.204 80.9697C167.264 80.844 167.295 80.7083 167.295 80.5712C167.295 80.434 167.264 80.2983 167.204 80.1727C167.144 80.047 167.056 79.934 166.946 79.8409C166.836 79.7478 166.706 79.6766 166.565 79.6316C166.423 79.5867 166.273 79.5691 166.124 79.5798H160.949V74.2088C168.838 73.6502 171.312 66.8673 171.499 63.2027Z" fill="#521E82" stroke="#521E82" stroke-width="0.203538"/>
<path d="M153.969 46.6683C153.969 43.4412 156.585 40.8252 159.812 40.8252V40.8252C163.039 40.8252 165.655 43.4412 165.655 46.6683V62.1425C165.655 65.3696 163.039 67.9856 159.812 67.9856V67.9856C156.585 67.9856 153.969 65.3696 153.969 62.1425V46.6683Z" fill="#521E82"/>
<path d="M221.988 61.9083C222.177 62.645 222.722 64.4642 223.622 67.3653H220.325C221.175 64.6478 221.652 63.1106 221.757 62.754C221.86 62.3991 221.938 62.1166 221.988 61.9083Z" fill="#521E82"/>
<path d="M230.85 40.8302H248.574C249.515 40.8302 250.416 41.2022 251.081 41.8644C251.746 42.5265 252.119 43.4246 252.119 44.3611V60.25C252.119 61.1864 251.746 62.0844 251.081 62.7467C250.416 63.4089 249.515 63.7809 248.574 63.7809V69.0772L241.485 63.7809H236.167V58.4846C236.16 58.2519 236.136 58.02 236.096 57.7908C237.342 57.3021 238.523 56.663 239.613 55.8876C241.33 57.0689 243.237 57.9474 245.253 58.4846C245.557 57.5791 246.017 56.7336 246.614 55.9865C244.842 55.6671 243.139 55.0409 241.584 54.1364C242.301 53.3569 242.915 52.4888 243.411 51.5535C243.821 50.7853 244.149 49.9763 244.389 49.1402C245.224 49.1402 245.706 49.1684 246.415 49.2249V46.6702C245.733 46.7435 245.047 46.7764 244.361 46.7691H241.228V45.9217C241.226 45.6255 241.254 45.3296 241.313 45.039H238.471C238.529 45.322 238.557 45.6102 238.556 45.8988V46.7603H235.189C234.503 46.7679 233.817 46.7349 233.135 46.6614V49.2249C233.759 49.1684 234.312 49.1402 235.146 49.1402C235.343 50.0855 235.663 51.0014 236.098 51.8642C236.518 52.6956 237.047 53.4674 237.672 54.1593C236.853 54.6402 235.981 55.0253 235.074 55.3068C234.583 54.6518 233.946 54.1194 233.212 53.7517C232.48 53.384 231.671 53.1912 230.85 53.1883H227.305V44.3611C227.305 43.4246 227.679 42.5266 228.343 41.8644C229.008 41.2022 229.91 40.8302 230.85 40.8302L230.85 40.8302Z" fill="#521E82"/>
<path d="M239.684 52.5549C238.822 51.5774 238.213 50.4045 237.912 49.1388H241.662C241.297 50.4231 240.617 51.597 239.684 52.5549H239.684Z" fill="#521E82"/>
<path fill-rule="evenodd" clip-rule="evenodd" d="M230.851 54.9523H213.127C212.187 54.9523 211.285 55.3242 210.62 55.9864C209.955 56.6486 209.582 57.5467 209.582 58.4831V74.3721C209.582 75.3085 209.955 76.2065 210.62 76.8688C211.285 77.531 212.187 77.9029 213.127 77.9029V83.1993L220.217 77.9029H230.851C231.791 77.9029 232.693 77.531 233.358 76.8688C234.022 76.2065 234.396 75.3085 234.396 74.3721V58.4831C234.396 57.5467 234.022 56.6486 233.358 55.9864C232.693 55.3242 231.791 54.9523 230.851 54.9523ZM214.303 71.8544C213.801 72.8915 214.518 74.1197 215.625 74.1197C216.191 74.1197 216.708 73.7811 216.957 73.2469L218.189 70.6048C218.287 70.6352 218.392 70.6515 218.5 70.6515H225.185C225.221 70.6515 225.257 70.6496 225.293 70.6461L226.435 73.2014C226.685 73.7619 227.221 74.1197 227.81 74.1197C228.937 74.1197 229.672 72.8756 229.173 71.8137L223.72 60.2257C223.363 59.4673 222.628 58.9874 221.823 58.9874C221.026 58.9874 220.297 59.4576 219.936 60.204L214.303 71.8544ZM224.256 68.3268L221.807 62.8455L219.251 68.3268H224.256Z" fill="#521E82"/>
<path d="M22.7842 60.1926L46.7584 41.7372L46.7584 78.648L22.7842 60.1926Z" fill="white"/>
</g>
<defs>
<filter id="filter0_d_7034_258" x="0.78418" y="0.533325" width="506.586" height="122.467" filterUnits="userSpaceOnUse" color-interpolation-filters="sRGB">
<feFlood flood-opacity="0" result="BackgroundImageFix"/>
<feColorMatrix in="SourceAlpha" type="matrix" values="0 0 0 0 0 0 0 0 0 0 0 0 0 0 0 0 0 0 127 0" result="hardAlpha"/>
<feOffset/>
<feGaussianBlur stdDeviation="11"/>
<feComposite in2="hardAlpha" operator="out"/>
<feColorMatrix type="matrix" values="0 0 0 0 0 0 0 0 0 0 0 0 0 0 0 0 0 0 0.25 0"/>
<feBlend mode="normal" in2="BackgroundImageFix" result="effect1_dropShadow_7034_258"/>
<feBlend mode="normal" in="SourceGraphic" in2="effect1_dropShadow_7034_258" result="shape"/>
</filter>
<linearGradient id="paint0_linear_7034_258" x1="410.972" y1="33.1591" x2="405.8" y2="-43.4733" gradientUnits="userSpaceOnUse">
<stop offset="0.171905" stop-color="#521E82"/>
<stop offset="1" stop-color="#E31992"/>
</linearGradient>
</defs>
</svg>
